G04 ================== begin FILE IDENTIFICATION RECORD ==================*
G04 Layout Name:  C:/Users/Jahn/Desktop/Allergo/HardWare/BOARD/Aircraft.brd*
G04 Film Name:    BOTTOM*
G04 File Format:  Gerber RS274X*
G04 File Origin:  Cadence Allegro 16.6-2015-S108*
G04 Origin Date:  Mon Sep 30 12:36:45 2019*
G04 *
G04 Layer:  PIN/BOTTOM*
G04 Layer:  ETCH/BOTTOM*
G04 Layer:  BOARD GEOMETRY/OUTLINE*
G04 Layer:  VIA CLASS/BOTTOM*
G04 *
G04 Offset:    (0.000 0.000)*
G04 Mirror:    No*
G04 Mode:      Positive*
G04 Rotation:  0*
G04 FullContactRelief:  No*
G04 UndefLineWidth:     4.000*
G04 ================== end FILE IDENTIFICATION RECORD ====================*
%FSLAX25Y25*MOIN*%
%IR0*IPPOS*OFA0.00000B0.00000*MIA0B0*SFA1.00000B1.00000*%
%AMMACRO16*
21,1,.023622,.061024,0.0,0.0,60.*%
%ADD16MACRO16*%
%ADD11C,.024016*%
%ADD10C,.035433*%
%ADD14C,.047244*%
%ADD12C,.059055*%
%ADD13R,.031496X.031496*%
%AMMACRO15*
21,1,.047244,.070866,0.0,0.0,60.*%
%ADD15MACRO15*%
%ADD17C,.006*%
%ADD18C,.007874*%
%ADD19C,.01*%
%ADD20C,.02*%
%ADD21C,.05*%
%ADD22C,.015*%
%ADD23C,.08*%
%ADD24C,.004*%
%ADD26C,.31559*%
%ADD27C,.315592*%
%ADD25C,.07906*%
%ADD28C,.067248*%
G75*
%LPD*%
G75*
G36*
G01X-155699Y-174802D02*
G02X-174802Y-155699I-19646J-543D01*
G03X-95530Y-55957I-93332J155550D01*
G02X-94862Y-55802I381J-123D01*
G03X-91458Y-56962I2838J2752D01*
G02X-91000Y-57358I57J-396D01*
G01Y-64621D01*
X-87621Y-68000D01*
X-83000D01*
Y-84535D01*
X-84111Y-85646D01*
G02X-84777Y-85479I-283J283D01*
G03X-87773Y-84727I-1723J-521D01*
G01X-112378Y-109332D01*
G02X-113048Y-109150I-283J283D01*
G03X-117870Y-113972I-3826J-996D01*
G02X-117687Y-114642I-101J-387D01*
G01X-134219Y-131173D01*
Y-134582D01*
G03X-130618I1800J0D01*
G01Y-132664D01*
X-114593Y-116639D01*
G02X-113910Y-116938I283J-283D01*
G03X-107085Y-119935I3997J-168D01*
G01X-75000Y-87849D01*
Y-82123D01*
G02X-74317Y-81840I400J0D01*
G01X-70179Y-85978D01*
X61321D01*
X79756Y-104413D01*
G02X79298Y-105055I-283J-283D01*
G03X-155699Y-174802I-79447J-163079D01*
G37*
G36*
G01X-93500Y51758D02*
G02X-94284Y51644I-400J0D01*
G03X-174802Y155400I-173851J-51793D01*
G02X-155699Y174503I-543J19646D01*
G03X-60531Y96777I155550J93332D01*
G02X-60664Y96000I-133J-377D01*
G01X-95630D01*
G03X-98264Y96803I-2870J-4692D01*
G01X-98341Y96806D01*
X-114777Y113242D01*
G03X-120434Y107585I-2829J-2829D01*
G01X-103998Y91149D01*
X-103995Y91071D01*
G03X-102389Y87419I5495J237D01*
G01X-93500Y78530D01*
Y51758D01*
G37*
G36*
G01X-89500Y-47496D02*
G03Y-39590I23J3953D01*
G01Y-37809D01*
G02X-88901Y-37462I400J0D01*
G03X-89186Y-30790I1971J3427D01*
G01X-89237Y-30825D01*
X-89500D01*
Y-30500D01*
X-87500Y-28500D01*
X-69500D01*
X-67500Y-30500D01*
Y-63500D01*
X-70500Y-66500D01*
X-87000D01*
X-89500Y-64000D01*
Y-56092D01*
G03Y-50008I-2524J3042D01*
G01Y-47496D01*
G37*
G36*
G01X-60500Y34000D02*
X-71127D01*
X-82500Y51621D01*
Y83086D01*
X-86731Y87317D01*
G02X-86448Y88000I283J283D01*
G01X-62157D01*
X-52657Y78500D01*
X-43000D01*
Y76750D01*
X-54932D01*
X-62932Y68750D01*
X-78376D01*
G03Y64250I0J-2250D01*
G01X-61068D01*
X-53068Y72250D01*
X-43000D01*
Y65400D01*
X-49146D01*
X-49773Y64773D01*
G03X-47938Y61790I1273J-1273D01*
G01X-47908Y61800D01*
X-43664D01*
G02X-43270Y61327I0J-400D01*
G03X-43000Y60005I1770J-327D01*
G01Y47745D01*
X-43002Y47732D01*
G03Y47268I1785J-232D01*
G01X-43000Y47255D01*
Y44500D01*
X-46500Y41000D01*
X-52500D01*
X-60500Y34000D01*
G37*
G36*
G01X-45879Y39500D02*
X-41500Y43879D01*
Y45303D01*
G02X-41121Y45702I400J0D01*
G03X-39944Y46227I-96J1798D01*
G01X-30471Y55700D01*
X42754D01*
X44700Y53754D01*
Y47000D01*
G03X44717Y46755I1800J0D01*
G02X44320Y46300I-396J-55D01*
G01X43783D01*
X27700Y30217D01*
Y-2057D01*
X-6072Y-35829D01*
X-13922D01*
X-32649Y-54555D01*
G02X-33331Y-54272I-283J283D01*
G01Y-7264D01*
X-31849Y-5782D01*
Y-2507D01*
X-16183Y13159D01*
G02X-15500Y12876I283J-283D01*
G01Y-15000D01*
X14000D01*
Y15000D01*
X-13376D01*
G02X-13659Y15683I0J400D01*
G01X-10342Y19000D01*
X20500D01*
G03Y23000I0J2000D01*
G01X20174D01*
Y23236D01*
X20187Y23270D01*
G03X18500Y25699I-1687J629D01*
G01X17698D01*
G02X17298Y26081I0J400D01*
G03X15500Y27800I-1798J-81D01*
G01X-12076D01*
X-36438Y3438D01*
G03X-36410Y865I1273J-1273D01*
G02X-36404Y293I-276J-289D01*
G01X-37950Y-1254D01*
Y-4000D01*
G03X-37332Y-5358I1800J0D01*
G01Y-75478D01*
G03X-34475Y-77285I2000J0D01*
G02X-33965Y-77434I171J-362D01*
G03X-33808Y-77647I1525J957D01*
G02X-33960Y-77977I-152J-130D01*
G01X-66866D01*
X-70500Y-74343D01*
Y-68000D01*
X-69879D01*
X-66000Y-64121D01*
Y-29879D01*
X-68879Y-27000D01*
X-74257D01*
G03X-74972Y-26281I-4243J-3500D01*
G01Y-15554D01*
X-74924Y-15506D01*
Y35760D01*
G02X-74188Y35977I400J0D01*
G01X-71944Y32500D01*
X-59936D01*
X-51936Y39500D01*
X-45879D01*
G37*
G36*
G01X-41500Y65400D02*
Y72250D01*
G03Y76750I0J2250D01*
G01Y78500D01*
X4302D01*
G02X4702Y78118I0J-400D01*
G03X6500Y76399I1798J81D01*
G01X34555D01*
X44871Y66083D01*
G02X44588Y65400I-283J-283D01*
G01X-41500D01*
G37*
G36*
G01X-43870Y86500D02*
X-49343D01*
X-54160Y91317D01*
G02X-53877Y92000I283J283D01*
G01X-52000D01*
X-50500Y90000D01*
X-46000D01*
X-43566Y87161D01*
G02X-43870Y86500I-304J-260D01*
G37*
G36*
G01X3006Y-42500D02*
X9243D01*
X12481Y-39262D01*
X12589Y-39287D01*
G03X14273Y-38808I411J1753D01*
G01X22280Y-30800D01*
X42562D01*
G02X42935Y-31346I0J-400D01*
G03X42812Y-32000I1677J-655D01*
G01Y-43858D01*
X96271Y-97317D01*
G02X95988Y-98000I-283J-283D01*
G01X84657D01*
X64635Y-77977D01*
X-30534D01*
G02X-30881Y-77378I0J400D01*
G03X-30640Y-76478I-1559J900D01*
G01Y-57638D01*
X-12431Y-39429D01*
X-4581D01*
X1517Y-33332D01*
G02X2200Y-33614I283J-283D01*
G01Y-36728D01*
G03X2262Y-37196I1800J0D01*
G02X1875Y-37700I-386J-104D01*
G01X-2246D01*
X-11746Y-47200D01*
X-13084D01*
X-13650Y-46634D01*
X-13651Y-46634D01*
G03Y-51366I-2389J-2366D01*
G01X-13650Y-51366D01*
X-13084Y-50800D01*
X-10254D01*
X-9741Y-50287D01*
G02X-9095Y-50403I283J-283D01*
G03X-2677Y-49000I3056J1403D01*
G01Y-48184D01*
X3006Y-42500D01*
G37*
G36*
G01X-12911Y-48788D02*
X-14369Y-47330D01*
X-16115Y-49000D01*
X-14369Y-50670D01*
X-12911Y-49212D01*
G03Y-48788I-212J212D01*
G37*
G36*
G01X-3977Y-46638D02*
X-6039D01*
X-6092Y-49053D01*
X-3677Y-49000D01*
Y-46938D01*
G03X-3977Y-46638I-300J0D01*
G37*
G36*
G01X95496Y85215D02*
X95323Y85315D01*
X97734Y89491D01*
X91987Y92810D01*
G02X91904Y93439I200J346D01*
G01X94677Y96212D01*
G02X95240Y96215I283J-283D01*
G03X97773Y96227I1260J1285D01*
G01X112915Y111370D01*
G02X113598Y111062I283J-283D01*
G03X117296Y114761I3945J-246D01*
G02X116989Y115443I-25J399D01*
G01X134888Y133342D01*
Y135000D01*
G03X131288I-1800J0D01*
G01Y134834D01*
X115110Y118656D01*
G02X114441Y118833I-283J283D01*
G03X107755Y120604I-3858J-1057D01*
G01X77726Y90575D01*
X51073D01*
X46998Y86500D01*
X17584D01*
G02X17545Y87298I0J400D01*
G03X155400Y174503I-17694J180537D01*
G02X174503Y155400I19646J543D01*
G03X110279Y89754I93332J-155550D01*
G01X110179Y89580D01*
X105786Y92116D01*
X101924Y85426D01*
X106501Y82784D01*
X106414Y82614D01*
G03X100615Y70164I161421J-82764D01*
G02X100046Y69972I-369J155D01*
G01X94763Y73023D01*
X90900Y66333D01*
X97585Y62473D01*
X97527Y62315D01*
G03X116543Y-100236I170308J-62465D01*
G02X115927Y-100740I-334J-221D01*
G01X111987Y-96800D01*
X100846D01*
X85358Y-81312D01*
G02X85433Y-80687I283J283D01*
G03X85773Y-77875I-933J1539D01*
G01X78572Y-70674D01*
Y-59657D01*
G02X79255Y-59375I400J0D01*
G01X83227Y-63347D01*
G03X85773Y-60801I1273J1273D01*
G01X79772Y-54800D01*
Y-43783D01*
G02X80455Y-43501I400J0D01*
G01X83227Y-46273D01*
G03X85773Y-43727I1273J1273D01*
G01X79099Y-37053D01*
Y1802D01*
G02X79480Y2202I400J0D01*
G03X79490Y2202I-93J1798D01*
G02X79700Y2002I10J-200D01*
G01Y-27500D01*
G03X83300I1800J0D01*
G01Y54000D01*
G03X81581Y55798I-1800J0D01*
G02X81199Y56198I18J400D01*
G01Y56346D01*
X70254Y67291D01*
G03X67201Y66281I-1273J-1273D01*
G02X66774Y65941I-396J58D01*
G03X64854Y64408I-139J-1795D01*
G02X64425Y64068I-396J58D01*
G03X62475Y62213I-151J-1794D01*
G02X62062Y61799I-400J-14D01*
G03X60727Y58727I-62J-1799D01*
G01X62669Y56785D01*
X66790D01*
G02X67101Y56133I0J-400D01*
G03X66818Y54358I1399J-1133D01*
G02X66444Y53816I-374J-143D01*
G01X65501D01*
G03X63829Y51348I0J-1800D01*
G02X63457Y50800I-371J-148D01*
G01X61680D01*
G02X61283Y51255I0J400D01*
G03X60773Y52773I-1783J245D01*
G01X51529Y62017D01*
G02X51812Y62700I283J283D01*
G01X56000D01*
G03Y66300I0J1800D01*
G01X49746D01*
X38229Y77817D01*
G02X38512Y78500I283J283D01*
G01X50312D01*
X52131Y80319D01*
G02X52472Y80178I141J-141D01*
G01Y79851D01*
X54000Y78147D01*
Y76500D01*
G03X58000I2000J0D01*
G01Y78562D01*
X58622Y80140D01*
Y82575D01*
X81040D01*
X85147Y86682D01*
G02X85462Y86441I141J-141D01*
G01X85201Y85989D01*
X91548Y82325D01*
X91950Y81833D01*
X93337Y82122D01*
X93603Y81855D01*
X94596D01*
G03X95496Y85215I0J1800D01*
G37*
G36*
G01X26892Y-22599D02*
G02X26493Y-22166I0J400D01*
G03X26500Y-22000I-1993J166D01*
G01Y-21075D01*
X29622D01*
Y-14925D01*
X28284D01*
G02X28001Y-14242I0J400D01*
G01X42017Y-226D01*
G02X42700Y-509I283J-283D01*
G01Y-19000D01*
G03X46300I1800J0D01*
G01Y13500D01*
G03X45071Y15207I-1800J0D01*
G02X44915Y15869I127J379D01*
G01X60746Y31700D01*
X69446D01*
X72415Y34670D01*
G02X73098Y34387I283J-283D01*
G01Y-11788D01*
G02X72415Y-12070I-400J0D01*
G01X64000Y-3655D01*
Y9488D01*
G02X64683Y9771I400J0D01*
G01X66727Y7727D01*
G03X69273Y10273I1273J1273D01*
G01X67800Y11746D01*
Y15500D01*
G03X64691Y16736I-1800J0D01*
G02X64000Y17010I-291J275D01*
G01Y18509D01*
X66273Y20782D01*
G03X65000Y23855I-1273J1273D01*
G01X55920D01*
X50337Y18273D01*
G03X52883Y15727I1273J-1273D01*
G01X57411Y20255D01*
X60400D01*
Y18173D01*
G02X59717Y17890I-400J0D01*
G01X59334Y18273D01*
G03X56325Y16526I-1273J-1273D01*
G02X55932Y16021I-386J-105D01*
G03X54626Y12948I-32J-1800D01*
G01X56935Y10639D01*
Y-15265D01*
G03X60536I1800J0D01*
G01Y-10748D01*
G02X61218Y-10465I400J0D01*
G01X66227Y-15474D01*
G03X69207Y-14772I1273J1273D01*
G02X69869Y-14616I379J-127D01*
G01X70200Y-14947D01*
Y-21254D01*
X68855Y-22599D01*
X26892D01*
G37*
G36*
G01X64500Y-41639D02*
X67247D01*
X71517Y-37368D01*
G02X72200Y-37651I283J-283D01*
G01Y-39246D01*
X74972Y-42017D01*
Y-69960D01*
G02X74289Y-70243I-400J0D01*
G01X46412Y-42366D01*
Y-32000D01*
G03X46289Y-31346I-1800J0D01*
G02X46662Y-30800I373J145D01*
G01X53754D01*
X57463Y-34508D01*
G03X60008Y-31962I1273J1273D01*
G01X57529Y-29483D01*
G02X57812Y-28800I283J283D01*
G01X65254D01*
X66227Y-29773D01*
G03X66272Y-29817I1274J1272D01*
G02X66283Y-30392I-273J-293D01*
G01X63227Y-33448D01*
G03X65773Y-35993I1273J-1273D01*
G01X68466Y-33300D01*
X69899D01*
G03X69990Y-33298I0J1800D01*
G02X70200Y-33498I10J-200D01*
G01Y-33594D01*
X65755Y-38038D01*
X64500D01*
G03Y-41639I0J-1800D01*
G37*
G36*
G01X56403Y78602D02*
X57122Y80425D01*
X55529Y82124D01*
X53972Y80425D01*
X55699Y78498D01*
G03X56403Y78602I301J399D01*
G37*
G36*
G01X71152Y-23148D02*
X72000D01*
Y-22000D01*
X71152Y-22848D01*
Y-23148D01*
G37*
G36*
G01X174503Y-155699D02*
G02X155400Y-174802I543J-19646D01*
G03X82698Y-106756I-155550J-93332D01*
G02X82880Y-106000I183J356D01*
G01X107535D01*
X114277Y-112742D01*
G03X118608Y-113621I2829J2829D01*
G02X119159Y-113992I150J-371D01*
G01Y-120623D01*
X132388Y-133852D01*
G03X134934Y-131306I1273J1273D01*
G01X122759Y-119132D01*
Y-110244D01*
G02X123477Y-110001I400J0D01*
G03X174503Y-155699I144358J109852D01*
G37*
G36*
G01X94187Y84104D02*
X93716Y85533D01*
X90418Y86073D01*
X92535Y83487D01*
X94008Y83794D01*
G03X94187Y84104I-119J275D01*
G37*
%LPC*%
G75*
G36*
G01X-64372Y50004D02*
X-61575Y52801D01*
Y56122D01*
X-60131D01*
G03X-60348Y57453I-2062J346D01*
G03X-60115Y58673I-1844J985D01*
G02X-59673Y59115I397J45D01*
G03X-58453Y59348I235J2077D01*
G03X-56262Y59485I985J1844D01*
G02X-55632Y59158I230J-327D01*
G01Y58633D01*
X-55517Y58518D01*
X-57230Y56805D01*
G03X-56948Y56122I283J-283D01*
G01X-51973D01*
X-51571Y56525D01*
G02X-50891Y56296I283J-283D01*
G01X-50868Y56122D01*
X-49425D01*
Y49972D01*
X-50494D01*
X-50541Y49839D01*
G02X-54316I-1888J661D01*
G01X-54364Y49972D01*
X-58746D01*
X-60371Y48348D01*
Y44129D01*
G02X-64372I-2000J0D01*
G01Y50004D01*
G37*
G36*
G01X32065Y50083D02*
X30618Y48878D01*
X25425D01*
Y55028D01*
X30661D01*
X32118Y53684D01*
X32516D01*
G02Y50083I0J-1800D01*
G01X32065D01*
G37*
G36*
G01X-52972Y16108D02*
Y10925D01*
X-59122D01*
Y15942D01*
X-58760Y16637D01*
Y18760D01*
G02X-53760I2500J0D01*
G01Y17076D01*
X-52972Y16108D01*
G37*
G36*
G01X87610Y75506D02*
X81264Y79170D01*
X83945Y83814D01*
X90292Y80150D01*
X90919Y80047D01*
X91025Y79727D01*
X91829Y79263D01*
X91418Y78551D01*
X91566Y78445D01*
G02X91794Y78252I-1045J-1466D01*
G01X91847Y78199D01*
X91887Y78184D01*
G02X91250Y74700I-637J-1684D01*
G01X91000D01*
G02X89727Y75227I0J1800D01*
G01X89608Y75346D01*
X88013Y75013D01*
X87610Y75506D01*
G37*
G36*
G01X79500Y77800D02*
G02Y74200I0J-1800D01*
G01X70956D01*
G02X69703Y77293I0J1800D01*
G03X69621Y77929I-278J287D01*
G02X70500Y81300I879J1571D01*
G01X77500D01*
G02X78952Y78436I0J-1800D01*
G03X79275Y77800I323J-236D01*
G01X79500D01*
G37*
G54D26*
X-175197Y-175197D03*
X175197D03*
G54D27*
X-175197Y175197D03*
X175197D03*
G54D25*
X-91226Y-73746D03*
X-110646Y117374D03*
X-76547Y-47007D03*
X-74000Y-37500D03*
X110146Y-116874D03*
G54D28*
X13961Y-49000D03*
%LPD*%
G75*
G36*
G01X-56760Y17228D02*
X-57622Y15575D01*
X-56025Y13751D01*
X-54472Y15575D01*
X-55857Y17277D01*
G03X-56760Y17228I-403J-915D01*
G37*
G36*
G01X31651Y52073D02*
X30075Y53528D01*
X28425Y51955D01*
X30075Y50378D01*
X31642Y51684D01*
G03X31651Y52073I-224J200D01*
G37*
G36*
G01X90250Y77285D02*
X89779Y78714D01*
X86482Y79254D01*
X88598Y76668D01*
X90071Y76975D01*
G03X90250Y77285I-119J275D01*
G37*
G54D10*
X-142000Y-135500D03*
X-139500Y139500D03*
X-136000Y142500D03*
X-129676Y127176D03*
X-99500Y113000D03*
X-88500Y-106000D03*
X-78043Y47500D03*
X-79500Y57047D03*
Y70500D03*
X-77000Y86500D03*
X-76500Y81500D03*
X-83000Y86000D03*
X-71000Y-94500D03*
X-66500Y-74500D03*
Y-69500D03*
X-59500Y-34000D03*
X-74000Y-15953D03*
X-73953Y-10500D03*
X-65000Y7000D03*
X-72678Y38981D03*
X-57468Y40000D03*
X-57000Y22500D03*
X-74000Y47500D03*
X-70000Y49000D03*
X-68500Y73500D03*
X-66000Y63000D03*
X-58500Y78000D03*
X-67830Y84870D03*
X-50978Y-66478D03*
X-55500Y7000D03*
X-47500Y45543D03*
X-39000Y43000D03*
X-47000Y71000D03*
X-52000Y69500D03*
X0Y-20500D03*
X-9000D03*
X-3500Y47500D03*
Y52000D03*
X18000Y500D03*
X9000Y37500D03*
X19210Y54500D03*
X34047Y-48953D03*
X24000Y-33500D03*
X26976Y31524D03*
X32500Y48411D03*
X42547Y-48953D03*
X55000Y-19500D03*
X52366Y77134D03*
X74000Y-83500D03*
Y-66500D03*
Y-49500D03*
X67358Y29858D03*
X96000Y-109500D03*
X84500Y-87648D03*
Y-70574D03*
Y-53500D03*
X84339Y9161D03*
X84280Y14279D03*
X83000Y71000D03*
X82000Y64500D03*
X84000Y103000D03*
X100000Y-91000D03*
X109000Y96500D03*
X115500Y126000D03*
X135000Y-141500D03*
X125500Y-115000D03*
X125000Y116500D03*
X142500Y136000D03*
G54D20*
G01X-56260Y18760D02*
Y14213D01*
X-56047Y14000D01*
G54D11*
X-132418Y-134582D03*
X-86500Y-86000D03*
X-78376Y66500D03*
X-65724Y36651D03*
X-62371Y44129D03*
X-56260Y18760D03*
X-41216Y47500D03*
X-53516Y50516D03*
X-41000Y57502D03*
Y54500D03*
Y51498D03*
X-41500Y74500D03*
Y61000D03*
X-44999Y63600D03*
X-49276Y88000D03*
X-32440Y-76478D03*
X-35332Y-75478D03*
X-36150Y-4000D03*
X-35165Y2165D03*
X13031Y-31531D03*
X13000Y-37535D03*
Y-34533D03*
X4000Y-36728D03*
X7002Y-36701D03*
X15500Y26000D03*
X18500Y23899D03*
X11166Y55003D03*
X6500Y78199D03*
X11500Y69953D03*
X24500Y-22000D03*
X32000Y29000D03*
X37500D03*
X20500Y21000D03*
X32516Y51884D03*
X33500Y68000D03*
X26000D03*
X44612Y-32000D03*
X44500Y-19000D03*
X58735Y-33235D03*
X52000Y-34720D03*
X58735Y-5735D03*
Y-15265D03*
X44500Y13500D03*
X51610Y17000D03*
X55899Y14221D03*
X58061Y17000D03*
X44500Y23000D03*
X49735Y46735D03*
X49500Y50000D03*
X46500Y47000D03*
X56000Y64500D03*
Y76500D03*
X64500Y-39839D03*
X67500Y-28500D03*
X69899Y-31500D03*
X64500Y-34720D03*
Y-31001D03*
X72000Y-14201D03*
X67500D03*
X68000Y9000D03*
X66000Y15500D03*
X65000Y22055D03*
X65501Y52016D03*
X68500Y55000D03*
X69130Y48341D03*
X65501Y49000D03*
X68551Y43551D03*
X70875Y41226D03*
X59500Y51500D03*
X68982Y66018D03*
X66635Y64146D03*
X64274Y62274D03*
X62000Y60000D03*
X70956Y76000D03*
X77500Y79500D03*
X70500D03*
X84500Y-79148D03*
X90000Y-96000D03*
X84500Y-62074D03*
Y-45000D03*
X81500Y-27500D03*
X79399Y4000D03*
X81500Y54000D03*
X91250Y76500D03*
X79500Y76000D03*
X94596Y83656D03*
X96500Y97500D03*
X133661Y-132579D03*
X133088Y135000D03*
G54D21*
G01X-98500Y91308D02*
X-117606Y110414D01*
G01X-79000Y-65000D02*
Y-86192D01*
X-109914Y-117106D01*
G01X110583Y117775D02*
X79383Y86575D01*
X52729D01*
X48655Y82500D01*
X-51000D01*
X-60500Y92000D01*
X-97808D01*
X-98500Y91308D01*
G01X-74500Y-62500D02*
Y-76000D01*
X-68522Y-81978D01*
X62978D01*
X83000Y-102000D01*
X109192D01*
X117106Y-109914D01*
G54D12*
X-116874Y-110146D03*
X-117606Y110414D03*
X-109914Y-117106D03*
X-93774Y-83254D03*
X-110646Y117374D03*
X-79095Y-56514D03*
X-91226Y-73746D03*
X-92024Y-53050D03*
X-89477Y-43543D03*
X-76547Y-47007D03*
X-86930Y-34036D03*
X-74000Y-37500D03*
X110146Y-116874D03*
X117106Y-109914D03*
X110583Y117775D03*
X117543Y110815D03*
G54D22*
G01X-41500Y74500D02*
X-54000D01*
X-62000Y66500D01*
X-78376D01*
G54D13*
X-61953Y14000D03*
X-58500Y58953D03*
Y53047D03*
X-56047Y14000D03*
X-52500Y58953D03*
Y53047D03*
X-39047Y67000D03*
X-44953D03*
X32453Y-18000D03*
X26547D03*
X28500Y46047D03*
Y51953D03*
X55547Y82000D03*
X61453D03*
G54D23*
G01X-80472Y-29528D02*
Y-13272D01*
X-80424Y-13225D01*
Y38263D01*
X-88000Y50000D01*
Y80808D01*
X-98500Y91308D01*
G01X-78500Y-30500D02*
X-79500D01*
X-80472Y-29528D01*
G54D14*
X-16039Y-49000D03*
X-6039D03*
X3961D03*
X13961D03*
G54D24*
G01X175226Y153516D02*
G03X153573Y175169I0J21654D01*
G02X-153511I-153542J92789D01*
G03X-175165Y153516I-21654J0D01*
G02Y-153568I-92789J-153542D01*
G03X-153511Y-175222I0J-21654D01*
G02X153573I153542J-92789D01*
G03X175226Y-153568I21654J0D01*
G02Y153516I92789J153542D01*
G01X-161220Y-175197D02*
G03I-13976J0D01*
G01Y175197D02*
G03I-13976J0D01*
G01X189173Y-175197D02*
G03I-13976J0D01*
G01Y175197D02*
G03I-13976J0D01*
G54D15*
X97199Y67156D03*
X108223Y86250D03*
G54D16*
X86546Y79216D03*
X88515Y82626D03*
X90483Y86036D03*
X92452Y89445D03*
G54D17*
G01X-132418Y-134582D02*
Y-131918D01*
X-86500Y-86000D01*
G01X-41216Y47500D02*
X-31217Y57500D01*
X43500D01*
X46500Y54500D01*
Y47000D01*
G01X-41000Y57502D02*
X-37302Y61200D01*
X45102D01*
X59802Y46500D01*
X67289D01*
X69130Y48341D01*
G01X68551Y43551D02*
X60949D01*
X44500Y60000D01*
X-35500D01*
X-41000Y54500D01*
G01Y51498D02*
X-33798Y58700D01*
X43997D01*
X61471Y41226D01*
X70875D01*
G01X-41500Y61000D02*
X-40100Y62400D01*
X45600D01*
X59000Y49000D01*
X65501D01*
G01X-44999Y63600D02*
X47400D01*
X59500Y51500D01*
G01X-32440Y-76478D02*
Y-56892D01*
X-13176Y-37629D01*
X-5326D01*
X29500Y-2803D01*
Y29471D01*
X44529Y44500D01*
X47500D01*
X49735Y46735D01*
G01X-36150Y-4000D02*
Y-1999D01*
X-10251Y23899D01*
X18500D01*
G01X-35165Y2165D02*
X-11331Y26000D01*
X15500D01*
G01X65501Y52016D02*
X68427D01*
X73000Y47443D01*
Y39497D01*
X68203Y34700D01*
X59200D01*
X40800Y16300D01*
Y2800D01*
X9500Y-28500D01*
X9300Y-28700D01*
Y-38200D01*
X8000Y-39500D01*
X-1500D01*
X-11000Y-49000D01*
X-16039D01*
G01X68500Y55000D02*
X74200Y49300D01*
Y39000D01*
X68700Y33500D01*
X60000D01*
X42000Y15500D01*
Y2303D01*
X10500Y-29197D01*
Y-38697D01*
X8497Y-40700D01*
X2261D01*
X-6039Y-49000D01*
G01X13031Y-31531D02*
X14446Y-30116D01*
X14447D01*
X20164Y-24399D01*
X69601D01*
X72000Y-22000D01*
G01X13000Y-37535D02*
X21535Y-29000D01*
X54500D01*
X58735Y-33235D01*
G01X67500Y-28500D02*
X66000Y-27000D01*
X20534D01*
X14416Y-33118D01*
X14415D01*
X13000Y-34533D01*
G01X4000Y-36728D02*
Y-30000D01*
X12935Y-21065D01*
X30700Y-3300D01*
X32000Y-2000D01*
Y29000D01*
G01X7002Y-36701D02*
Y-34700D01*
X7001Y-34700D01*
Y-28999D01*
X37500Y1500D01*
Y29000D01*
G01X6500Y78199D02*
X35301D01*
X49000Y64500D01*
X56000D01*
G01X32516Y51884D02*
X28569D01*
X28500Y51953D01*
G01X133661Y-132579D02*
X120959Y-119877D01*
Y-108318D01*
X111241Y-98600D01*
X100100D01*
X44612Y-43112D01*
Y-32000D01*
G01X44500Y13500D02*
Y-19000D01*
G01X65000Y22055D02*
X56665D01*
X51610Y17000D01*
G01X55899Y14221D02*
X58735Y11385D01*
Y-5735D01*
G01X58061Y17000D02*
X61000Y14061D01*
Y-7701D01*
X67500Y-14201D01*
G01X44500Y23000D02*
X44529D01*
X45179Y23650D01*
Y23679D01*
X52000Y30500D01*
Y47500D01*
X49500Y50000D01*
G01X62000Y60000D02*
X63415Y58585D01*
X68267D01*
X75400Y51452D01*
Y38503D01*
X74898Y38001D01*
Y-22073D01*
X74000Y-22971D01*
Y-38500D01*
X76772Y-41272D01*
Y-71420D01*
X84500Y-79148D01*
G01X72000Y-22000D02*
Y-34339D01*
X66501Y-39839D01*
X64500D01*
G01X84500Y-62074D02*
X77972Y-55546D01*
Y-40472D01*
X76098Y-38598D01*
Y37504D01*
X76600Y38006D01*
Y51949D01*
X67690Y60859D01*
X65689D01*
X64274Y62274D01*
G01X72000Y-14201D02*
Y-22000D01*
G01X69899Y-31500D02*
X67720D01*
X64500Y-34720D01*
G01X84500Y-45000D02*
X77298Y-37798D01*
Y37007D01*
X77800Y37509D01*
Y52980D01*
X68050Y62730D01*
Y62731D01*
X66635Y64146D01*
G01X72000Y-14201D02*
X62200Y-4401D01*
Y19255D01*
X65000Y22055D01*
G01X58735Y-15265D02*
Y-5735D01*
G01X66000Y15500D02*
Y11000D01*
X68000Y9000D01*
G01X79399Y4000D02*
Y55601D01*
X68982Y66018D01*
G01X79500Y76000D02*
X70956D01*
G01X77500Y79500D02*
X70500D01*
G01X81500Y-27500D02*
Y54000D01*
G01X91250Y76500D02*
X91000D01*
X90521Y76979D01*
X90422D01*
X86546Y79216D01*
G01X90483Y86036D02*
X90483Y86035D01*
X90484D01*
X93998Y84006D01*
X94349Y83656D01*
X94596D01*
G01X133088Y135000D02*
Y134088D01*
X96500Y97500D01*
G54D18*
G01X-13189Y-12795D02*
X12402D01*
Y12795D01*
X-13189D01*
Y-12795D01*
G54D19*
G01X-62371Y44129D02*
Y49176D01*
X-58500Y53047D01*
G01X-53516Y50516D02*
X-52449Y51583D01*
X-52450Y52997D01*
X-52500Y53047D01*
G01X-35332Y-75478D02*
Y-6436D01*
X-33849Y-4953D01*
Y-1678D01*
X-11170Y21000D01*
X20500D01*
G01X24500Y-22000D02*
Y-20047D01*
X26547Y-18000D01*
G01X56000Y76500D02*
Y81547D01*
X55547Y82000D01*
M02*
