G04 ================== begin FILE IDENTIFICATION RECORD ==================*
G04 Layout Name:  C:/Users/Jahn/Desktop/Allergo/HardWare/BOARD/Aircraft.brd*
G04 Film Name:    DRILL*
G04 File Format:  Gerber RS274X*
G04 File Origin:  Cadence Allegro 16.6-2015-S108*
G04 Origin Date:  Mon Sep 30 12:36:45 2019*
G04 *
G04 Layer:  MANUFACTURING/NCLEGEND-1-2*
G04 Layer:  MANUFACTURING/NCDRILL_LEGEND*
G04 Layer:  MANUFACTURING/NCDRILL_FIGURE*
G04 Layer:  BOARD GEOMETRY/DIMENSION*
G04 Layer:  BOARD GEOMETRY/OUTLINE*
G04 *
G04 Offset:    (0.000 0.000)*
G04 Mirror:    No*
G04 Mode:      Positive*
G04 Rotation:  0*
G04 FullContactRelief:  No*
G04 UndefLineWidth:     4.000*
G04 ================== end FILE IDENTIFICATION RECORD ====================*
%FSLAX25Y25*MOIN*%
%IR0*IPPOS*OFA0.00000B0.00000*MIA0B0*SFA1.00000B1.00000*%
%AMMACRO12*
1,1,.004,.005906,0.0*
20,1,.004,.005906,0.0,.005816,-.001025,0.0*
1,1,.004,.005816,-.001025*
20,1,.004,.005816,-.001025,.005549,-.00202,0.0*
1,1,.004,.005549,-.00202*
20,1,.004,.005549,-.00202,.005114,-.002953,0.0*
1,1,.004,.005114,-.002953*
20,1,.004,.005114,-.002953,.004524,-.003796,0.0*
1,1,.004,.004524,-.003796*
20,1,.004,.004524,-.003796,.003796,-.004524,0.0*
1,1,.004,.003796,-.004524*
20,1,.004,.003796,-.004524,.002953,-.005114,0.0*
1,1,.004,.002953,-.005114*
20,1,.004,.002953,-.005114,.00202,-.005549,0.0*
1,1,.004,.00202,-.005549*
20,1,.004,.00202,-.005549,.001025,-.005816,0.0*
1,1,.004,.001025,-.005816*
20,1,.004,.001025,-.005816,0.0,-.005906,0.0*
1,1,.004,0.0,-.005906*
20,1,.004,0.0,-.005906,-.001025,-.005816,0.0*
1,1,.004,-.001025,-.005816*
20,1,.004,-.001025,-.005816,-.00202,-.005549,0.0*
1,1,.004,-.00202,-.005549*
20,1,.004,-.00202,-.005549,-.002953,-.005114,0.0*
1,1,.004,-.002953,-.005114*
20,1,.004,-.002953,-.005114,-.003796,-.004524,0.0*
1,1,.004,-.003796,-.004524*
20,1,.004,-.003796,-.004524,-.004524,-.003796,0.0*
1,1,.004,-.004524,-.003796*
20,1,.004,-.004524,-.003796,-.005114,-.002953,0.0*
1,1,.004,-.005114,-.002953*
20,1,.004,-.005114,-.002953,-.005549,-.00202,0.0*
1,1,.004,-.005549,-.00202*
20,1,.004,-.005549,-.00202,-.005816,-.001025,0.0*
1,1,.004,-.005816,-.001025*
20,1,.004,-.005816,-.001025,-.005906,0.0,0.0*
1,1,.004,-.005906,0.0*
20,1,.004,-.005906,0.0,-.005816,.001025,0.0*
1,1,.004,-.005816,.001025*
20,1,.004,-.005816,.001025,-.005549,.00202,0.0*
1,1,.004,-.005549,.00202*
20,1,.004,-.005549,.00202,-.005114,.002953,0.0*
1,1,.004,-.005114,.002953*
20,1,.004,-.005114,.002953,-.004524,.003796,0.0*
1,1,.004,-.004524,.003796*
20,1,.004,-.004524,.003796,-.003796,.004524,0.0*
1,1,.004,-.003796,.004524*
20,1,.004,-.003796,.004524,-.002953,.005114,0.0*
1,1,.004,-.002953,.005114*
20,1,.004,-.002953,.005114,-.00202,.005549,0.0*
1,1,.004,-.00202,.005549*
20,1,.004,-.00202,.005549,-.001025,.005816,0.0*
1,1,.004,-.001025,.005816*
20,1,.004,-.001025,.005816,0.0,.005906,0.0*
1,1,.004,0.0,.005906*
20,1,.004,0.0,.005906,.001025,.005816,0.0*
1,1,.004,.001025,.005816*
20,1,.004,.001025,.005816,.00202,.005549,0.0*
1,1,.004,.00202,.005549*
20,1,.004,.00202,.005549,.002953,.005114,0.0*
1,1,.004,.002953,.005114*
20,1,.004,.002953,.005114,.003796,.004524,0.0*
1,1,.004,.003796,.004524*
20,1,.004,.003796,.004524,.004524,.003796,0.0*
1,1,.004,.004524,.003796*
20,1,.004,.004524,.003796,.005114,.002953,0.0*
1,1,.004,.005114,.002953*
20,1,.004,.005114,.002953,.005549,.00202,0.0*
1,1,.004,.005549,.00202*
20,1,.004,.005549,.00202,.005816,.001025,0.0*
1,1,.004,.005816,.001025*
20,1,.004,.005816,.001025,.005906,0.0,0.0*
1,1,.004,.005906,0.0*
1,1,.004,.002166,.002461*
20,1,.004,.002166,.002461,.001575,.002756,0.0*
1,1,.004,.001575,.002756*
20,1,.004,.001575,.002756,.000886,.002953,0.0*
1,1,.004,.000886,.002953*
20,1,.004,.000886,.002953,.000099,.002953,0.0*
1,1,.004,.000099,.002953*
20,1,.004,.000099,.002953,-.000787,.002658,0.0*
1,1,.004,-.000787,.002658*
20,1,.004,-.000787,.002658,-.001476,.002166,0.0*
1,1,.004,-.001476,.002166*
20,1,.004,-.001476,.002166,-.001968,.001575,0.0*
1,1,.004,-.001968,.001575*
20,1,.004,-.001968,.001575,-.002362,.000591,0.0*
1,1,.004,-.002362,.000591*
20,1,.004,-.002362,.000591,-.00246,-.000295,0.0*
1,1,.004,-.00246,-.000295*
20,1,.004,-.00246,-.000295,-.002263,-.001181,0.0*
1,1,.004,-.002263,-.001181*
20,1,.004,-.002263,-.001181,-.001968,-.001771,0.0*
1,1,.004,-.001968,-.001771*
20,1,.004,-.001968,-.001771,-.001377,-.002362,0.0*
1,1,.004,-.001377,-.002362*
20,1,.004,-.001377,-.002362,-.000688,-.002755,0.0*
1,1,.004,-.000688,-.002755*
20,1,.004,-.000688,-.002755,0.0,-.002952,0.0*
1,1,.004,0.0,-.002952*
20,1,.004,0.0,-.002952,.000689,-.002952,0.0*
1,1,.004,.000689,-.002952*
20,1,.004,.000689,-.002952,.001378,-.002755,0.0*
1,1,.004,.001378,-.002755*
20,1,.004,.001378,-.002755,.001969,-.00246,0.0*
1,1,.004,.001969,-.00246*
20,1,.004,.001969,-.00246,.002461,-.002066,0.0*
1,1,.004,.002461,-.002066*
%
%ADD12MACRO12*%
%AMMACRO10*
1,1,.004,.007874,0.0*
20,1,.004,.007874,0.0,.007754,-.001367,0.0*
1,1,.004,.007754,-.001367*
20,1,.004,.007754,-.001367,.007399,-.002693,0.0*
1,1,.004,.007399,-.002693*
20,1,.004,.007399,-.002693,.006819,-.003937,0.0*
1,1,.004,.006819,-.003937*
20,1,.004,.006819,-.003937,.006032,-.005061,0.0*
1,1,.004,.006032,-.005061*
20,1,.004,.006032,-.005061,.005061,-.006032,0.0*
1,1,.004,.005061,-.006032*
20,1,.004,.005061,-.006032,.003937,-.006819,0.0*
1,1,.004,.003937,-.006819*
20,1,.004,.003937,-.006819,.002693,-.007399,0.0*
1,1,.004,.002693,-.007399*
20,1,.004,.002693,-.007399,.001367,-.007754,0.0*
1,1,.004,.001367,-.007754*
20,1,.004,.001367,-.007754,0.0,-.007874,0.0*
1,1,.004,0.0,-.007874*
20,1,.004,0.0,-.007874,-.001367,-.007754,0.0*
1,1,.004,-.001367,-.007754*
20,1,.004,-.001367,-.007754,-.002693,-.007399,0.0*
1,1,.004,-.002693,-.007399*
20,1,.004,-.002693,-.007399,-.003937,-.006819,0.0*
1,1,.004,-.003937,-.006819*
20,1,.004,-.003937,-.006819,-.005061,-.006032,0.0*
1,1,.004,-.005061,-.006032*
20,1,.004,-.005061,-.006032,-.006032,-.005061,0.0*
1,1,.004,-.006032,-.005061*
20,1,.004,-.006032,-.005061,-.006819,-.003937,0.0*
1,1,.004,-.006819,-.003937*
20,1,.004,-.006819,-.003937,-.007399,-.002693,0.0*
1,1,.004,-.007399,-.002693*
20,1,.004,-.007399,-.002693,-.007754,-.001367,0.0*
1,1,.004,-.007754,-.001367*
20,1,.004,-.007754,-.001367,-.007874,0.0,0.0*
1,1,.004,-.007874,0.0*
20,1,.004,-.007874,0.0,-.007754,.001367,0.0*
1,1,.004,-.007754,.001367*
20,1,.004,-.007754,.001367,-.007399,.002693,0.0*
1,1,.004,-.007399,.002693*
20,1,.004,-.007399,.002693,-.006819,.003937,0.0*
1,1,.004,-.006819,.003937*
20,1,.004,-.006819,.003937,-.006032,.005061,0.0*
1,1,.004,-.006032,.005061*
20,1,.004,-.006032,.005061,-.005061,.006032,0.0*
1,1,.004,-.005061,.006032*
20,1,.004,-.005061,.006032,-.003937,.006819,0.0*
1,1,.004,-.003937,.006819*
20,1,.004,-.003937,.006819,-.002693,.007399,0.0*
1,1,.004,-.002693,.007399*
20,1,.004,-.002693,.007399,-.001367,.007754,0.0*
1,1,.004,-.001367,.007754*
20,1,.004,-.001367,.007754,0.0,.007874,0.0*
1,1,.004,0.0,.007874*
20,1,.004,0.0,.007874,.001367,.007754,0.0*
1,1,.004,.001367,.007754*
20,1,.004,.001367,.007754,.002693,.007399,0.0*
1,1,.004,.002693,.007399*
20,1,.004,.002693,.007399,.003937,.006819,0.0*
1,1,.004,.003937,.006819*
20,1,.004,.003937,.006819,.005061,.006032,0.0*
1,1,.004,.005061,.006032*
20,1,.004,.005061,.006032,.006032,.005061,0.0*
1,1,.004,.006032,.005061*
20,1,.004,.006032,.005061,.006819,.003937,0.0*
1,1,.004,.006819,.003937*
20,1,.004,.006819,.003937,.007399,.002693,0.0*
1,1,.004,.007399,.002693*
20,1,.004,.007399,.002693,.007754,.001367,0.0*
1,1,.004,.007754,.001367*
20,1,.004,.007754,.001367,.007874,0.0,0.0*
1,1,.004,.007874,0.0*
1,1,.004,-.003281,-.003937*
20,1,.004,-.003281,-.003937,0.0,.003937,0.0*
1,1,.004,0.0,.003937*
20,1,.004,0.0,.003937,.003281,-.003937,0.0*
1,1,.004,.003281,-.003937*
1,1,.004,.0021,-.001181*
20,1,.004,.0021,-.001181,-.0021,-.001181,0.0*
1,1,.004,-.0021,-.001181*
%
%ADD10MACRO10*%
%AMMACRO13*
1,1,.004,.007874,0.0*
20,1,.004,.007874,0.0,.007754,-.001367,0.0*
1,1,.004,.007754,-.001367*
20,1,.004,.007754,-.001367,.007399,-.002693,0.0*
1,1,.004,.007399,-.002693*
20,1,.004,.007399,-.002693,.006819,-.003937,0.0*
1,1,.004,.006819,-.003937*
20,1,.004,.006819,-.003937,.006032,-.005061,0.0*
1,1,.004,.006032,-.005061*
20,1,.004,.006032,-.005061,.005061,-.006032,0.0*
1,1,.004,.005061,-.006032*
20,1,.004,.005061,-.006032,.003937,-.006819,0.0*
1,1,.004,.003937,-.006819*
20,1,.004,.003937,-.006819,.002693,-.007399,0.0*
1,1,.004,.002693,-.007399*
20,1,.004,.002693,-.007399,.001367,-.007754,0.0*
1,1,.004,.001367,-.007754*
20,1,.004,.001367,-.007754,0.0,-.007874,0.0*
1,1,.004,0.0,-.007874*
20,1,.004,0.0,-.007874,-.001367,-.007754,0.0*
1,1,.004,-.001367,-.007754*
20,1,.004,-.001367,-.007754,-.002693,-.007399,0.0*
1,1,.004,-.002693,-.007399*
20,1,.004,-.002693,-.007399,-.003937,-.006819,0.0*
1,1,.004,-.003937,-.006819*
20,1,.004,-.003937,-.006819,-.005061,-.006032,0.0*
1,1,.004,-.005061,-.006032*
20,1,.004,-.005061,-.006032,-.006032,-.005061,0.0*
1,1,.004,-.006032,-.005061*
20,1,.004,-.006032,-.005061,-.006819,-.003937,0.0*
1,1,.004,-.006819,-.003937*
20,1,.004,-.006819,-.003937,-.007399,-.002693,0.0*
1,1,.004,-.007399,-.002693*
20,1,.004,-.007399,-.002693,-.007754,-.001367,0.0*
1,1,.004,-.007754,-.001367*
20,1,.004,-.007754,-.001367,-.007874,0.0,0.0*
1,1,.004,-.007874,0.0*
20,1,.004,-.007874,0.0,-.007754,.001367,0.0*
1,1,.004,-.007754,.001367*
20,1,.004,-.007754,.001367,-.007399,.002693,0.0*
1,1,.004,-.007399,.002693*
20,1,.004,-.007399,.002693,-.006819,.003937,0.0*
1,1,.004,-.006819,.003937*
20,1,.004,-.006819,.003937,-.006032,.005061,0.0*
1,1,.004,-.006032,.005061*
20,1,.004,-.006032,.005061,-.005061,.006032,0.0*
1,1,.004,-.005061,.006032*
20,1,.004,-.005061,.006032,-.003937,.006819,0.0*
1,1,.004,-.003937,.006819*
20,1,.004,-.003937,.006819,-.002693,.007399,0.0*
1,1,.004,-.002693,.007399*
20,1,.004,-.002693,.007399,-.001367,.007754,0.0*
1,1,.004,-.001367,.007754*
20,1,.004,-.001367,.007754,0.0,.007874,0.0*
1,1,.004,0.0,.007874*
20,1,.004,0.0,.007874,.001367,.007754,0.0*
1,1,.004,.001367,.007754*
20,1,.004,.001367,.007754,.002693,.007399,0.0*
1,1,.004,.002693,.007399*
20,1,.004,.002693,.007399,.003937,.006819,0.0*
1,1,.004,.003937,.006819*
20,1,.004,.003937,.006819,.005061,.006032,0.0*
1,1,.004,.005061,.006032*
20,1,.004,.005061,.006032,.006032,.005061,0.0*
1,1,.004,.006032,.005061*
20,1,.004,.006032,.005061,.006819,.003937,0.0*
1,1,.004,.006819,.003937*
20,1,.004,.006819,.003937,.007399,.002693,0.0*
1,1,.004,.007399,.002693*
20,1,.004,.007399,.002693,.007754,.001367,0.0*
1,1,.004,.007754,.001367*
20,1,.004,.007754,.001367,.007874,0.0,0.0*
1,1,.004,.007874,0.0*
1,1,.004,.002887,.003281*
20,1,.004,.002887,.003281,.0021,.003675,0.0*
1,1,.004,.0021,.003675*
20,1,.004,.0021,.003675,.001181,.003937,0.0*
1,1,.004,.001181,.003937*
20,1,.004,.001181,.003937,.000131,.003937,0.0*
1,1,.004,.000131,.003937*
20,1,.004,.000131,.003937,-.00105,.003543,0.0*
1,1,.004,-.00105,.003543*
20,1,.004,-.00105,.003543,-.001968,.002887,0.0*
1,1,.004,-.001968,.002887*
20,1,.004,-.001968,.002887,-.002625,.0021,0.0*
1,1,.004,-.002625,.0021*
20,1,.004,-.002625,.0021,-.00315,.000787,0.0*
1,1,.004,-.00315,.000787*
20,1,.004,-.00315,.000787,-.003281,-.000394,0.0*
1,1,.004,-.003281,-.000394*
20,1,.004,-.003281,-.000394,-.003018,-.001575,0.0*
1,1,.004,-.003018,-.001575*
20,1,.004,-.003018,-.001575,-.002625,-.002362,0.0*
1,1,.004,-.002625,-.002362*
20,1,.004,-.002625,-.002362,-.001837,-.00315,0.0*
1,1,.004,-.001837,-.00315*
20,1,.004,-.001837,-.00315,-.000919,-.003675,0.0*
1,1,.004,-.000919,-.003675*
20,1,.004,-.000919,-.003675,0.0,-.003937,0.0*
1,1,.004,0.0,-.003937*
20,1,.004,0.0,-.003937,.000919,-.003937,0.0*
1,1,.004,.000919,-.003937*
20,1,.004,.000919,-.003937,.001837,-.003675,0.0*
1,1,.004,.001837,-.003675*
20,1,.004,.001837,-.003675,.002625,-.003281,0.0*
1,1,.004,.002625,-.003281*
20,1,.004,.002625,-.003281,.003281,-.002756,0.0*
1,1,.004,.003281,-.002756*
%
%ADD13MACRO13*%
%AMMACRO14*
1,1,.004,.007874,0.0*
20,1,.004,.007874,0.0,.007754,-.001367,0.0*
1,1,.004,.007754,-.001367*
20,1,.004,.007754,-.001367,.007399,-.002693,0.0*
1,1,.004,.007399,-.002693*
20,1,.004,.007399,-.002693,.006819,-.003937,0.0*
1,1,.004,.006819,-.003937*
20,1,.004,.006819,-.003937,.006032,-.005061,0.0*
1,1,.004,.006032,-.005061*
20,1,.004,.006032,-.005061,.005061,-.006032,0.0*
1,1,.004,.005061,-.006032*
20,1,.004,.005061,-.006032,.003937,-.006819,0.0*
1,1,.004,.003937,-.006819*
20,1,.004,.003937,-.006819,.002693,-.007399,0.0*
1,1,.004,.002693,-.007399*
20,1,.004,.002693,-.007399,.001367,-.007754,0.0*
1,1,.004,.001367,-.007754*
20,1,.004,.001367,-.007754,0.0,-.007874,0.0*
1,1,.004,0.0,-.007874*
20,1,.004,0.0,-.007874,-.001367,-.007754,0.0*
1,1,.004,-.001367,-.007754*
20,1,.004,-.001367,-.007754,-.002693,-.007399,0.0*
1,1,.004,-.002693,-.007399*
20,1,.004,-.002693,-.007399,-.003937,-.006819,0.0*
1,1,.004,-.003937,-.006819*
20,1,.004,-.003937,-.006819,-.005061,-.006032,0.0*
1,1,.004,-.005061,-.006032*
20,1,.004,-.005061,-.006032,-.006032,-.005061,0.0*
1,1,.004,-.006032,-.005061*
20,1,.004,-.006032,-.005061,-.006819,-.003937,0.0*
1,1,.004,-.006819,-.003937*
20,1,.004,-.006819,-.003937,-.007399,-.002693,0.0*
1,1,.004,-.007399,-.002693*
20,1,.004,-.007399,-.002693,-.007754,-.001367,0.0*
1,1,.004,-.007754,-.001367*
20,1,.004,-.007754,-.001367,-.007874,0.0,0.0*
1,1,.004,-.007874,0.0*
20,1,.004,-.007874,0.0,-.007754,.001367,0.0*
1,1,.004,-.007754,.001367*
20,1,.004,-.007754,.001367,-.007399,.002693,0.0*
1,1,.004,-.007399,.002693*
20,1,.004,-.007399,.002693,-.006819,.003937,0.0*
1,1,.004,-.006819,.003937*
20,1,.004,-.006819,.003937,-.006032,.005061,0.0*
1,1,.004,-.006032,.005061*
20,1,.004,-.006032,.005061,-.005061,.006032,0.0*
1,1,.004,-.005061,.006032*
20,1,.004,-.005061,.006032,-.003937,.006819,0.0*
1,1,.004,-.003937,.006819*
20,1,.004,-.003937,.006819,-.002693,.007399,0.0*
1,1,.004,-.002693,.007399*
20,1,.004,-.002693,.007399,-.001367,.007754,0.0*
1,1,.004,-.001367,.007754*
20,1,.004,-.001367,.007754,0.0,.007874,0.0*
1,1,.004,0.0,.007874*
20,1,.004,0.0,.007874,.001367,.007754,0.0*
1,1,.004,.001367,.007754*
20,1,.004,.001367,.007754,.002693,.007399,0.0*
1,1,.004,.002693,.007399*
20,1,.004,.002693,.007399,.003937,.006819,0.0*
1,1,.004,.003937,.006819*
20,1,.004,.003937,.006819,.005061,.006032,0.0*
1,1,.004,.005061,.006032*
20,1,.004,.005061,.006032,.006032,.005061,0.0*
1,1,.004,.006032,.005061*
20,1,.004,.006032,.005061,.006819,.003937,0.0*
1,1,.004,.006819,.003937*
20,1,.004,.006819,.003937,.007399,.002693,0.0*
1,1,.004,.007399,.002693*
20,1,.004,.007399,.002693,.007754,.001367,0.0*
1,1,.004,.007754,.001367*
20,1,.004,.007754,.001367,.007874,0.0,0.0*
1,1,.004,.007874,0.0*
1,1,.004,-.002887,-.003937*
20,1,.004,-.002887,-.003937,-.002887,.003937,0.0*
1,1,.004,-.002887,.003937*
20,1,.004,-.002887,.003937,-.000263,.003937,0.0*
1,1,.004,-.000263,.003937*
20,1,.004,-.000263,.003937,.000787,.003543,0.0*
1,1,.004,.000787,.003543*
20,1,.004,.000787,.003543,.001575,.003018,0.0*
1,1,.004,.001575,.003018*
20,1,.004,.001575,.003018,.002231,.002231,0.0*
1,1,.004,.002231,.002231*
20,1,.004,.002231,.002231,.002756,.001312,0.0*
1,1,.004,.002756,.001312*
20,1,.004,.002756,.001312,.002887,0.0,0.0*
1,1,.004,.002887,0.0*
20,1,.004,.002887,0.0,.002756,-.001312,0.0*
1,1,.004,.002756,-.001312*
20,1,.004,.002756,-.001312,.002231,-.002231,0.0*
1,1,.004,.002231,-.002231*
20,1,.004,.002231,-.002231,.001575,-.003019,0.0*
1,1,.004,.001575,-.003019*
20,1,.004,.001575,-.003019,.000787,-.003543,0.0*
1,1,.004,.000787,-.003543*
20,1,.004,.000787,-.003543,-.000263,-.003937,0.0*
1,1,.004,-.000263,-.003937*
20,1,.004,-.000263,-.003937,-.002887,-.003937,0.0*
1,1,.004,-.002887,-.003937*
%
%ADD14MACRO14*%
%AMMACRO11*
1,1,.004,.003937,0.0*
20,1,.004,.003937,0.0,.003877,-.000684,0.0*
1,1,.004,.003877,-.000684*
20,1,.004,.003877,-.000684,.0037,-.001347,0.0*
1,1,.004,.0037,-.001347*
20,1,.004,.0037,-.001347,.00341,-.001968,0.0*
1,1,.004,.00341,-.001968*
20,1,.004,.00341,-.001968,.003016,-.002531,0.0*
1,1,.004,.003016,-.002531*
20,1,.004,.003016,-.002531,.002531,-.003016,0.0*
1,1,.004,.002531,-.003016*
20,1,.004,.002531,-.003016,.001969,-.00341,0.0*
1,1,.004,.001969,-.00341*
20,1,.004,.001969,-.00341,.001347,-.0037,0.0*
1,1,.004,.001347,-.0037*
20,1,.004,.001347,-.0037,.000684,-.003877,0.0*
1,1,.004,.000684,-.003877*
20,1,.004,.000684,-.003877,0.0,-.003937,0.0*
1,1,.004,0.0,-.003937*
20,1,.004,0.0,-.003937,-.000684,-.003877,0.0*
1,1,.004,-.000684,-.003877*
20,1,.004,-.000684,-.003877,-.001347,-.0037,0.0*
1,1,.004,-.001347,-.0037*
20,1,.004,-.001347,-.0037,-.001968,-.00341,0.0*
1,1,.004,-.001968,-.00341*
20,1,.004,-.001968,-.00341,-.002531,-.003016,0.0*
1,1,.004,-.002531,-.003016*
20,1,.004,-.002531,-.003016,-.003016,-.002531,0.0*
1,1,.004,-.003016,-.002531*
20,1,.004,-.003016,-.002531,-.00341,-.001969,0.0*
1,1,.004,-.00341,-.001969*
20,1,.004,-.00341,-.001969,-.0037,-.001347,0.0*
1,1,.004,-.0037,-.001347*
20,1,.004,-.0037,-.001347,-.003877,-.000684,0.0*
1,1,.004,-.003877,-.000684*
20,1,.004,-.003877,-.000684,-.003937,0.0,0.0*
1,1,.004,-.003937,0.0*
20,1,.004,-.003937,0.0,-.003877,.000684,0.0*
1,1,.004,-.003877,.000684*
20,1,.004,-.003877,.000684,-.0037,.001347,0.0*
1,1,.004,-.0037,.001347*
20,1,.004,-.0037,.001347,-.00341,.001968,0.0*
1,1,.004,-.00341,.001968*
20,1,.004,-.00341,.001968,-.003016,.002531,0.0*
1,1,.004,-.003016,.002531*
20,1,.004,-.003016,.002531,-.002531,.003016,0.0*
1,1,.004,-.002531,.003016*
20,1,.004,-.002531,.003016,-.001969,.00341,0.0*
1,1,.004,-.001969,.00341*
20,1,.004,-.001969,.00341,-.001347,.0037,0.0*
1,1,.004,-.001347,.0037*
20,1,.004,-.001347,.0037,-.000684,.003877,0.0*
1,1,.004,-.000684,.003877*
20,1,.004,-.000684,.003877,0.0,.003937,0.0*
1,1,.004,0.0,.003937*
20,1,.004,0.0,.003937,.000684,.003877,0.0*
1,1,.004,.000684,.003877*
20,1,.004,.000684,.003877,.001347,.0037,0.0*
1,1,.004,.001347,.0037*
20,1,.004,.001347,.0037,.001968,.00341,0.0*
1,1,.004,.001968,.00341*
20,1,.004,.001968,.00341,.002531,.003016,0.0*
1,1,.004,.002531,.003016*
20,1,.004,.002531,.003016,.003016,.002531,0.0*
1,1,.004,.003016,.002531*
20,1,.004,.003016,.002531,.00341,.001969,0.0*
1,1,.004,.00341,.001969*
20,1,.004,.00341,.001969,.0037,.001347,0.0*
1,1,.004,.0037,.001347*
20,1,.004,.0037,.001347,.003877,.000684,0.0*
1,1,.004,.003877,.000684*
20,1,.004,.003877,.000684,.003937,0.0,0.0*
1,1,.004,.003937,0.0*
1,1,.004,-.001443,-.001968*
20,1,.004,-.001443,-.001968,-.001443,.001969,0.0*
1,1,.004,-.001443,.001969*
20,1,.004,-.001443,.001969,-.000131,.001969,0.0*
1,1,.004,-.000131,.001969*
20,1,.004,-.000131,.001969,.000394,.001772,0.0*
1,1,.004,.000394,.001772*
20,1,.004,.000394,.001772,.000788,.00151,0.0*
1,1,.004,.000788,.00151*
20,1,.004,.000788,.00151,.001116,.001116,0.0*
1,1,.004,.001116,.001116*
20,1,.004,.001116,.001116,.001378,.000657,0.0*
1,1,.004,.001378,.000657*
20,1,.004,.001378,.000657,.001444,0.0,0.0*
1,1,.004,.001444,0.0*
20,1,.004,.001444,0.0,.001378,-.000656,0.0*
1,1,.004,.001378,-.000656*
20,1,.004,.001378,-.000656,.001116,-.001115,0.0*
1,1,.004,.001116,-.001115*
20,1,.004,.001116,-.001115,.000788,-.001509,0.0*
1,1,.004,.000788,-.001509*
20,1,.004,.000788,-.001509,.000394,-.001771,0.0*
1,1,.004,.000394,-.001771*
20,1,.004,.000394,-.001771,-.000131,-.001968,0.0*
1,1,.004,-.000131,-.001968*
20,1,.004,-.000131,-.001968,-.001443,-.001968,0.0*
1,1,.004,-.001443,-.001968*
%
%ADD11MACRO11*%
%ADD15C,.007874*%
%ADD16C,.004*%
G75*
%LPD*%
G75*
G54D10*
X-142000Y-135500D03*
X-139500Y139500D03*
X-136000Y142500D03*
X-99500Y113000D03*
X-88500Y-106000D03*
X-78043Y47500D03*
X-79500Y57047D03*
Y70500D03*
X-77000Y86500D03*
X-76500Y81500D03*
X-83000Y86000D03*
X-71000Y-94500D03*
X-66500Y-74500D03*
Y-69500D03*
X-59500Y-34000D03*
X-74000Y-15953D03*
X-73953Y-10500D03*
X-65000Y7000D03*
X-72678Y38981D03*
X-57468Y40000D03*
X-57000Y22500D03*
X-74000Y47500D03*
X-70000Y49000D03*
X-68500Y73500D03*
X-66000Y63000D03*
X-58500Y78000D03*
X-67830Y84870D03*
X-50978Y-66478D03*
X-55500Y7000D03*
X-47500Y45543D03*
X-39000Y43000D03*
X-47000Y71000D03*
X-52000Y69500D03*
X0Y-20500D03*
X-9000D03*
X-3500Y47500D03*
Y52000D03*
X18000Y500D03*
X9000Y37500D03*
X19210Y54500D03*
X34047Y-48953D03*
X24000Y-33500D03*
X26976Y31524D03*
X32500Y48411D03*
X42547Y-48953D03*
X55000Y-19500D03*
X52366Y77134D03*
X74000Y-83500D03*
Y-66500D03*
Y-49500D03*
X67358Y29858D03*
X96000Y-109500D03*
X84500Y-87648D03*
Y-70574D03*
Y-53500D03*
X84339Y9161D03*
X84280Y14279D03*
X83000Y71000D03*
X82000Y64500D03*
X84000Y103000D03*
X100000Y-91000D03*
X109000Y96500D03*
X115500Y126000D03*
X135000Y-141500D03*
X125500Y-115000D03*
X125000Y116500D03*
X142500Y136000D03*
X447950Y14000D03*
G54D11*
X-132418Y-134582D03*
X-86500Y-86000D03*
X-78376Y66500D03*
X-65724Y36651D03*
X-62371Y44129D03*
X-56260Y18760D03*
X-41216Y47500D03*
X-53516Y50516D03*
X-41000Y57502D03*
Y54500D03*
Y51498D03*
X-41500Y74500D03*
Y61000D03*
X-44999Y63600D03*
X-49276Y88000D03*
X-32440Y-76478D03*
X-35332Y-75478D03*
X-36150Y-4000D03*
X-35165Y2165D03*
X13031Y-31531D03*
X13000Y-37535D03*
Y-34533D03*
X4000Y-36728D03*
X7002Y-36701D03*
X15500Y26000D03*
X18500Y23899D03*
X11166Y55003D03*
X6500Y78199D03*
X11500Y69953D03*
X24500Y-22000D03*
X32000Y29000D03*
X37500D03*
X20500Y21000D03*
X32516Y51884D03*
X33500Y68000D03*
X26000D03*
X44612Y-32000D03*
X44500Y-19000D03*
X58735Y-33235D03*
X52000Y-34720D03*
X58735Y-5735D03*
Y-15265D03*
X44500Y13500D03*
X51610Y17000D03*
X55899Y14221D03*
X58061Y17000D03*
X44500Y23000D03*
X49735Y46735D03*
X49500Y50000D03*
X46500Y47000D03*
X56000Y64500D03*
Y76500D03*
X64500Y-39839D03*
X67500Y-28500D03*
X69899Y-31500D03*
X64500Y-34720D03*
Y-31001D03*
X72000Y-14201D03*
X67500D03*
X68000Y9000D03*
X66000Y15500D03*
X65000Y22055D03*
X65501Y52016D03*
X68500Y55000D03*
X69130Y48341D03*
X65501Y49000D03*
X68551Y43551D03*
X70875Y41226D03*
X59500Y51500D03*
X68982Y66018D03*
X66635Y64146D03*
X64274Y62274D03*
X62000Y60000D03*
X70956Y76000D03*
X77500Y79500D03*
X70500D03*
X84500Y-79148D03*
X90000Y-96000D03*
X84500Y-62074D03*
Y-45000D03*
X81500Y-27500D03*
X79399Y4000D03*
X81500Y54000D03*
X91250Y76500D03*
X79500Y76000D03*
X94596Y83656D03*
X96500Y97500D03*
X133661Y-132579D03*
X133088Y135000D03*
X447950Y39000D03*
G54D12*
X-116874Y-110146D03*
X-117606Y110414D03*
X-109914Y-117106D03*
X-93774Y-83254D03*
X-110646Y117374D03*
X-91226Y-73746D03*
X110146Y-116874D03*
X117106Y-109914D03*
X110583Y117775D03*
X117543Y110815D03*
X447950Y-61000D03*
G54D13*
X-79095Y-56514D03*
X-92024Y-53050D03*
X-89477Y-43543D03*
X-76547Y-47007D03*
X-86930Y-34036D03*
X-74000Y-37500D03*
X447950Y-36000D03*
G54D14*
X-16039Y-49000D03*
X-6039D03*
X3961D03*
X13961D03*
X447950Y-11000D03*
G54D15*
G01X-13189Y-12795D02*
X12402D01*
Y12795D01*
X-13189D01*
Y-12795D01*
G54D16*
G01X-196817Y-185002D02*
Y-232000D01*
G01X-23925Y-222000D02*
X-196817D01*
G01X-181817Y-219500D02*
X-196817Y-222000D01*
X-181817Y-224500D01*
Y-219500D01*
G01X175226Y153516D02*
G03X153573Y175169I0J21654D01*
G02X-153511I-153542J92789D01*
G03X-175165Y153516I-21654J0D01*
G02Y-153568I-92789J-153542D01*
G03X-153511Y-175222I0J-21654D01*
G02X153573I153542J-92789D01*
G03X175226Y-153568I21654J0D01*
G02Y153516I92789J153542D01*
G01X-161220Y-175197D02*
G03I-13976J0D01*
G01Y175197D02*
G03I-13976J0D01*
G01X-9900Y-228250D02*
Y-215750D01*
X-11760Y-218250D01*
G01Y-228250D02*
X-8040D01*
G01X2500Y-215750D02*
X1260Y-216167D01*
X330Y-217208D01*
X-290Y-218458D01*
X-755Y-220125D01*
X-910Y-222000D01*
X-755Y-223875D01*
X-290Y-225542D01*
X330Y-226792D01*
X1260Y-227833D01*
X2500Y-228250D01*
X3740Y-227833D01*
X4670Y-226792D01*
X5290Y-225542D01*
X5755Y-223875D01*
X5910Y-222000D01*
X5755Y-220125D01*
X5290Y-218458D01*
X4670Y-217208D01*
X3740Y-216167D01*
X2500Y-215750D01*
G01X14900D02*
X13660Y-216167D01*
X12730Y-217208D01*
X12110Y-218458D01*
X11645Y-220125D01*
X11490Y-222000D01*
X11645Y-223875D01*
X12110Y-225542D01*
X12730Y-226792D01*
X13660Y-227833D01*
X14900Y-228250D01*
X16140Y-227833D01*
X17070Y-226792D01*
X17690Y-225542D01*
X18155Y-223875D01*
X18310Y-222000D01*
X18155Y-220125D01*
X17690Y-218458D01*
X17070Y-217208D01*
X16140Y-216167D01*
X14900Y-215750D01*
G01X28925Y-222000D02*
X196880D01*
G01X189173Y-175197D02*
G03I-13976J0D01*
G01Y175197D02*
G03I-13976J0D01*
G01X181880Y-224500D02*
X196880Y-222000D01*
X181880Y-219500D01*
Y-224500D01*
G01X185278Y-196876D02*
X228000D01*
G01X184991Y196822D02*
X228000D01*
G01X196880Y-185373D02*
Y-232000D01*
G01X205600Y-8250D02*
Y4250D01*
X203740Y1750D01*
G01Y-8250D02*
X207460D01*
G01X218000Y4250D02*
X216760Y3833D01*
X215830Y2792D01*
X215210Y1542D01*
X214745Y-125D01*
X214590Y-2000D01*
X214745Y-3875D01*
X215210Y-5542D01*
X215830Y-6792D01*
X216760Y-7833D01*
X218000Y-8250D01*
X219240Y-7833D01*
X220170Y-6792D01*
X220790Y-5542D01*
X221255Y-3875D01*
X221410Y-2000D01*
X221255Y-125D01*
X220790Y1542D01*
X220170Y2792D01*
X219240Y3833D01*
X218000Y4250D01*
G01X230400D02*
X229160Y3833D01*
X228230Y2792D01*
X227610Y1542D01*
X227145Y-125D01*
X226990Y-2000D01*
X227145Y-3875D01*
X227610Y-5542D01*
X228230Y-6792D01*
X229160Y-7833D01*
X230400Y-8250D01*
X231640Y-7833D01*
X232570Y-6792D01*
X233190Y-5542D01*
X233655Y-3875D01*
X233810Y-2000D01*
X233655Y-125D01*
X233190Y1542D01*
X232570Y2792D01*
X231640Y3833D01*
X230400Y4250D01*
G01X218000Y-17625D02*
Y-196876D01*
G01X215500Y-181876D02*
X218000Y-196876D01*
X220500Y-181876D01*
X215500D01*
G01X218000Y13625D02*
Y196822D01*
G01X220500Y181822D02*
X218000Y196822D01*
X215500Y181822D01*
X220500D01*
G01X403000Y-73500D02*
Y126500D01*
X886600D01*
Y-73500D01*
X403000D01*
G01Y-48500D02*
X886600D01*
G01X403000Y-23500D02*
X886600D01*
G01X403000Y1500D02*
X886600D01*
G01X403000Y26500D02*
X886600D01*
G01X403000Y51500D02*
X886600D01*
G01X403000Y76500D02*
X886600D01*
G01X403000Y101500D02*
X886600D01*
G01X414005Y57750D02*
Y70250D01*
X419895D01*
G01X417725Y64208D02*
X414005D01*
G01X427490Y70250D02*
X431210D01*
G01X429350D02*
Y57750D01*
G01X427490D02*
X431210D01*
G01X442680Y64000D02*
X445780D01*
Y60250D01*
X444850Y59000D01*
X443765Y58167D01*
X442215Y57750D01*
X440665Y58167D01*
X439580Y59000D01*
X438650Y60250D01*
X438030Y61708D01*
X437720Y63375D01*
Y64833D01*
X438030Y66083D01*
X438650Y67542D01*
X439580Y68792D01*
X440510Y69625D01*
X441750Y70250D01*
X442835D01*
X444075Y69833D01*
X445005Y69000D01*
G01X450740Y70250D02*
Y61292D01*
X451360Y59416D01*
X452600Y58167D01*
X454150Y57750D01*
X455700Y58167D01*
X456940Y59416D01*
X457560Y61292D01*
Y70250D01*
G01X463450Y57750D02*
Y70250D01*
X467325D01*
X468565Y69625D01*
X469340Y68792D01*
X469650Y67125D01*
X469340Y65458D01*
X468410Y64417D01*
X467325Y63792D01*
X463450D01*
G01X467325D02*
X469650Y57750D01*
G01X482050D02*
X475850D01*
Y70250D01*
X482050D01*
G01X479570Y64208D02*
X475850D01*
G01X486390Y107750D02*
Y120250D01*
X489490D01*
X490730Y119625D01*
X491660Y118792D01*
X492435Y117542D01*
X493055Y116083D01*
X493210Y114000D01*
X493055Y111916D01*
X492435Y110458D01*
X491660Y109208D01*
X490730Y108375D01*
X489490Y107750D01*
X486390D01*
G01X499100D02*
Y120250D01*
X502975D01*
X504215Y119625D01*
X504990Y118792D01*
X505300Y117125D01*
X504990Y115458D01*
X504060Y114417D01*
X502975Y113792D01*
X499100D01*
G01X502975D02*
X505300Y107750D01*
G01X512740Y120250D02*
X516460D01*
G01X514600D02*
Y107750D01*
G01X512740D02*
X516460D01*
G01X523900Y120250D02*
Y107750D01*
X530100D01*
G01X536300Y120250D02*
Y107750D01*
X542500D01*
G01X567610Y119208D02*
X566680Y119833D01*
X565595Y120250D01*
X564355D01*
X562960Y119625D01*
X561875Y118583D01*
X561100Y117333D01*
X560480Y115250D01*
X560325Y113375D01*
X560635Y111500D01*
X561100Y110250D01*
X562030Y109000D01*
X563115Y108167D01*
X564200Y107750D01*
X565285D01*
X566370Y108167D01*
X567300Y108791D01*
X568075Y109625D01*
G01X573345Y107750D02*
Y120250D01*
G01X579855D02*
Y107750D01*
G01Y114000D02*
X573345D01*
G01X585125Y107750D02*
X589000Y120250D01*
X592875Y107750D01*
G01X591480Y112125D02*
X586520D01*
G01X598300Y107750D02*
Y120250D01*
X602175D01*
X603415Y119625D01*
X604190Y118792D01*
X604500Y117125D01*
X604190Y115458D01*
X603260Y114417D01*
X602175Y113792D01*
X598300D01*
G01X602175D02*
X604500Y107750D01*
G01X613800Y120250D02*
Y107750D01*
G01X610235Y120250D02*
X617365D01*
G01X626200Y107333D02*
X625890Y107542D01*
Y107958D01*
X626200Y108167D01*
X626510Y107958D01*
Y107542D01*
X626200Y107333D01*
G01Y112958D02*
X625890Y113167D01*
Y113583D01*
X626200Y113792D01*
X626510Y113583D01*
Y113167D01*
X626200Y112958D01*
G01X651000Y120250D02*
Y107750D01*
G01X647435Y120250D02*
X654565D01*
G01X663400Y107750D02*
X662160Y107958D01*
X661075Y108791D01*
X660145Y110042D01*
X659525Y111500D01*
X659215Y113167D01*
Y114833D01*
X659525Y116500D01*
X660145Y117958D01*
X661075Y119208D01*
X662160Y120042D01*
X663400Y120250D01*
X664640Y120042D01*
X665725Y119208D01*
X666655Y117958D01*
X667275Y116500D01*
X667585Y114833D01*
Y113167D01*
X667275Y111500D01*
X666655Y110042D01*
X665725Y108791D01*
X664640Y107958D01*
X663400Y107750D01*
G01X672700D02*
Y120250D01*
X676420D01*
X677660Y119625D01*
X678590Y118167D01*
X678900Y116500D01*
X678590Y114833D01*
X677815Y113583D01*
X676420Y112958D01*
X672700D01*
G01X700600Y120250D02*
Y107750D01*
G01X698430Y116083D02*
X702770D01*
G01X713000Y107750D02*
X712070Y107958D01*
X711140Y108791D01*
X710520Y110250D01*
X710210Y111916D01*
X710520Y113583D01*
X711140Y115042D01*
X712070Y115875D01*
X713000Y116083D01*
X713930Y115875D01*
X714860Y115042D01*
X715480Y113583D01*
X715635Y111916D01*
X715480Y110250D01*
X714860Y108791D01*
X713930Y107958D01*
X713000Y107750D01*
G01X739040Y114417D02*
X739660Y115042D01*
X740125Y116083D01*
X740435Y117542D01*
X740125Y118792D01*
X739505Y119625D01*
X738420Y120250D01*
X734235D01*
Y107750D01*
X739350D01*
X740435Y108583D01*
X741055Y109833D01*
X741365Y111292D01*
X741055Y112750D01*
X740125Y114000D01*
X739040Y114417D01*
X734235D01*
G01X750200Y107750D02*
X748960Y107958D01*
X747875Y108791D01*
X746945Y110042D01*
X746325Y111500D01*
X746015Y113167D01*
Y114833D01*
X746325Y116500D01*
X746945Y117958D01*
X747875Y119208D01*
X748960Y120042D01*
X750200Y120250D01*
X751440Y120042D01*
X752525Y119208D01*
X753455Y117958D01*
X754075Y116500D01*
X754385Y114833D01*
Y113167D01*
X754075Y111500D01*
X753455Y110042D01*
X752525Y108791D01*
X751440Y107958D01*
X750200Y107750D01*
G01X762600Y120250D02*
Y107750D01*
G01X759035Y120250D02*
X766165D01*
G01X775000D02*
Y107750D01*
G01X771435Y120250D02*
X778565D01*
G01X787400Y107750D02*
X786160Y107958D01*
X785075Y108791D01*
X784145Y110042D01*
X783525Y111500D01*
X783215Y113167D01*
Y114833D01*
X783525Y116500D01*
X784145Y117958D01*
X785075Y119208D01*
X786160Y120042D01*
X787400Y120250D01*
X788640Y120042D01*
X789725Y119208D01*
X790655Y117958D01*
X791275Y116500D01*
X791585Y114833D01*
Y113167D01*
X791275Y111500D01*
X790655Y110042D01*
X789725Y108791D01*
X788640Y107958D01*
X787400Y107750D01*
G01X795770D02*
Y120250D01*
X799800Y109833D01*
X803830Y120250D01*
Y107750D01*
G01X492900Y76500D02*
Y-73500D01*
G01X516925Y82750D02*
X520800Y95250D01*
X524675Y82750D01*
G01X523280Y87125D02*
X518320D01*
G01X530100Y95250D02*
Y82750D01*
X536300D01*
G01X542500Y95250D02*
Y82750D01*
X548700D01*
G01X566990Y95250D02*
Y86292D01*
X567610Y84416D01*
X568850Y83167D01*
X570400Y82750D01*
X571950Y83167D01*
X573190Y84416D01*
X573810Y86292D01*
Y95250D01*
G01X579235Y82750D02*
Y95250D01*
X586365Y82750D01*
Y95250D01*
G01X593340D02*
X597060D01*
G01X595200D02*
Y82750D01*
G01X593340D02*
X597060D01*
G01X607600Y95250D02*
Y82750D01*
G01X604035Y95250D02*
X611165D01*
G01X616745Y84416D02*
X617985Y83375D01*
X619380Y82750D01*
X620620D01*
X621860Y83375D01*
X622790Y84416D01*
X623255Y85875D01*
X622945Y87333D01*
X622170Y88583D01*
X620775Y89417D01*
X618915Y89833D01*
X617830Y90666D01*
X617365Y92125D01*
X617675Y93583D01*
X618450Y94625D01*
X619535Y95250D01*
X620620D01*
X621705Y94833D01*
X622635Y93792D01*
G01X640925Y82750D02*
X644800Y95250D01*
X648675Y82750D01*
G01X647280Y87125D02*
X642320D01*
G01X654100Y82750D02*
Y95250D01*
X657975D01*
X659215Y94625D01*
X659990Y93792D01*
X660300Y92125D01*
X659990Y90458D01*
X659060Y89417D01*
X657975Y88792D01*
X654100D01*
G01X657975D02*
X660300Y82750D01*
G01X672700D02*
X666500D01*
Y95250D01*
X672700D01*
G01X670220Y89208D02*
X666500D01*
G01X692540Y95250D02*
X696260D01*
G01X694400D02*
Y82750D01*
G01X692540D02*
X696260D01*
G01X703235D02*
Y95250D01*
X710365Y82750D01*
Y95250D01*
G01X727570Y82750D02*
Y95250D01*
X731600Y84833D01*
X735630Y95250D01*
Y82750D01*
G01X742140Y95250D02*
X745860D01*
G01X744000D02*
Y82750D01*
G01X742140D02*
X745860D01*
G01X753300Y95250D02*
Y82750D01*
X759500D01*
G01X765545Y84416D02*
X766785Y83375D01*
X768180Y82750D01*
X769420D01*
X770660Y83375D01*
X771590Y84416D01*
X772055Y85875D01*
X771745Y87333D01*
X770970Y88583D01*
X769575Y89417D01*
X767715Y89833D01*
X766630Y90666D01*
X766165Y92125D01*
X766475Y93583D01*
X767250Y94625D01*
X768335Y95250D01*
X769420D01*
X770505Y94833D01*
X771435Y93792D01*
G01X559240Y-64750D02*
X560170Y-66209D01*
X561410Y-67042D01*
X562805Y-67250D01*
X564045Y-67042D01*
X565285Y-66000D01*
X566060Y-64750D01*
X566215Y-63500D01*
X565905Y-62042D01*
X564820Y-61000D01*
X563735Y-60583D01*
X562340D01*
G01X563735D02*
X564665Y-59958D01*
X565440Y-58917D01*
X565750Y-57667D01*
X565440Y-56417D01*
X564665Y-55375D01*
X563270Y-54750D01*
X561875Y-54958D01*
X560480Y-55792D01*
G01X572415Y-65792D02*
X573500Y-66833D01*
X574740Y-67250D01*
X575980Y-66833D01*
X577065Y-65584D01*
X577840Y-63708D01*
X578150Y-61833D01*
Y-59542D01*
X577840Y-57667D01*
X577065Y-56000D01*
X576135Y-55167D01*
X575050Y-54750D01*
X573810Y-55167D01*
X572880Y-56000D01*
X572260Y-57250D01*
X571950Y-58917D01*
X572260Y-60375D01*
X573035Y-61833D01*
X573965Y-62667D01*
X575050Y-62875D01*
X576290Y-62459D01*
X577220Y-61417D01*
X578150Y-59542D01*
G01X587450Y-67667D02*
X587140Y-67458D01*
Y-67042D01*
X587450Y-66833D01*
X587760Y-67042D01*
Y-67458D01*
X587450Y-67667D01*
G01X596440Y-64750D02*
X597370Y-66209D01*
X598610Y-67042D01*
X600005Y-67250D01*
X601245Y-67042D01*
X602485Y-66000D01*
X603260Y-64750D01*
X603415Y-63500D01*
X603105Y-62042D01*
X602020Y-61000D01*
X600935Y-60583D01*
X599540D01*
G01X600935D02*
X601865Y-59958D01*
X602640Y-58917D01*
X602950Y-57667D01*
X602640Y-56417D01*
X601865Y-55375D01*
X600470Y-54750D01*
X599075Y-54958D01*
X597680Y-55792D01*
G01X611940Y-67250D02*
X612250Y-64542D01*
X612715Y-62250D01*
X613335Y-60167D01*
X614110Y-57875D01*
X615350Y-54750D01*
X609150D01*
G01X553040Y-39750D02*
X553970Y-41209D01*
X555210Y-42042D01*
X556605Y-42250D01*
X557845Y-42042D01*
X559085Y-41000D01*
X559860Y-39750D01*
X560015Y-38500D01*
X559705Y-37042D01*
X558620Y-36000D01*
X557535Y-35583D01*
X556140D01*
G01X557535D02*
X558465Y-34958D01*
X559240Y-33917D01*
X559550Y-32667D01*
X559240Y-31417D01*
X558465Y-30375D01*
X557070Y-29750D01*
X555675Y-29958D01*
X554280Y-30792D01*
G01X565440Y-40375D02*
X566370Y-41417D01*
X567455Y-42042D01*
X568850Y-42250D01*
X570245Y-41833D01*
X571330Y-41000D01*
X572105Y-39542D01*
X572260Y-37875D01*
X571950Y-36208D01*
X571175Y-35167D01*
X570090Y-34334D01*
X569005Y-34125D01*
X567920Y-34334D01*
X566525Y-35167D01*
X566990Y-29750D01*
X571175D01*
G01X581250Y-42667D02*
X580940Y-42458D01*
Y-42042D01*
X581250Y-41833D01*
X581560Y-42042D01*
Y-42458D01*
X581250Y-42667D01*
G01X595510Y-42250D02*
Y-29750D01*
X589775Y-38708D01*
X597525D01*
G01X602640Y-39750D02*
X603570Y-41209D01*
X604810Y-42042D01*
X606205Y-42250D01*
X607445Y-42042D01*
X608685Y-41000D01*
X609460Y-39750D01*
X609615Y-38500D01*
X609305Y-37042D01*
X608220Y-36000D01*
X607135Y-35583D01*
X605740D01*
G01X607135D02*
X608065Y-34958D01*
X608840Y-33917D01*
X609150Y-32667D01*
X608840Y-31417D01*
X608065Y-30375D01*
X606670Y-29750D01*
X605275Y-29958D01*
X603880Y-30792D01*
G01X615040Y-39750D02*
X615970Y-41209D01*
X617210Y-42042D01*
X618605Y-42250D01*
X619845Y-42042D01*
X621085Y-41000D01*
X621860Y-39750D01*
X622015Y-38500D01*
X621705Y-37042D01*
X620620Y-36000D01*
X619535Y-35583D01*
X618140D01*
G01X619535D02*
X620465Y-34958D01*
X621240Y-33917D01*
X621550Y-32667D01*
X621240Y-31417D01*
X620465Y-30375D01*
X619070Y-29750D01*
X617675Y-29958D01*
X616280Y-30792D01*
G01X553040Y-14750D02*
X553970Y-16209D01*
X555210Y-17042D01*
X556605Y-17250D01*
X557845Y-17042D01*
X559085Y-16000D01*
X559860Y-14750D01*
X560015Y-13500D01*
X559705Y-12042D01*
X558620Y-11000D01*
X557535Y-10583D01*
X556140D01*
G01X557535D02*
X558465Y-9958D01*
X559240Y-8917D01*
X559550Y-7667D01*
X559240Y-6417D01*
X558465Y-5375D01*
X557070Y-4750D01*
X555675Y-4958D01*
X554280Y-5792D01*
G01X568850Y-17250D02*
Y-4750D01*
X566990Y-7250D01*
G01Y-17250D02*
X570710D01*
G01X581250Y-17667D02*
X580940Y-17458D01*
Y-17042D01*
X581250Y-16833D01*
X581560Y-17042D01*
Y-17458D01*
X581250Y-17667D01*
G01X595510Y-17250D02*
Y-4750D01*
X589775Y-13708D01*
X597525D01*
G01X603415Y-15792D02*
X604500Y-16833D01*
X605740Y-17250D01*
X606980Y-16833D01*
X608065Y-15584D01*
X608840Y-13708D01*
X609150Y-11833D01*
Y-9542D01*
X608840Y-7667D01*
X608065Y-6000D01*
X607135Y-5167D01*
X606050Y-4750D01*
X604810Y-5167D01*
X603880Y-6000D01*
X603260Y-7250D01*
X602950Y-8917D01*
X603260Y-10375D01*
X604035Y-11833D01*
X604965Y-12667D01*
X606050Y-12875D01*
X607290Y-12459D01*
X608220Y-11417D01*
X609150Y-9542D01*
G01X615505Y-12042D02*
X616590Y-10583D01*
X617520Y-9750D01*
X618760Y-9334D01*
X619845Y-9750D01*
X620620Y-10583D01*
X621240Y-11833D01*
X621395Y-13292D01*
X621240Y-14542D01*
X620620Y-15792D01*
X619690Y-16833D01*
X618605Y-17250D01*
X617365Y-16833D01*
X616280Y-15584D01*
X615660Y-13708D01*
X615505Y-11625D01*
X615815Y-8917D01*
X616280Y-7458D01*
X617055Y-6000D01*
X618140Y-4958D01*
X619225Y-4750D01*
X620310Y-5167D01*
X621085Y-6208D01*
G01X556450Y7750D02*
Y20250D01*
X554590Y17750D01*
G01Y7750D02*
X558310D01*
G01X566215Y9208D02*
X567300Y8167D01*
X568540Y7750D01*
X569780Y8167D01*
X570865Y9416D01*
X571640Y11292D01*
X571950Y13167D01*
Y15458D01*
X571640Y17333D01*
X570865Y19000D01*
X569935Y19833D01*
X568850Y20250D01*
X567610Y19833D01*
X566680Y19000D01*
X566060Y17750D01*
X565750Y16083D01*
X566060Y14625D01*
X566835Y13167D01*
X567765Y12333D01*
X568850Y12125D01*
X570090Y12541D01*
X571020Y13583D01*
X571950Y15458D01*
G01X581250Y7333D02*
X580940Y7542D01*
Y7958D01*
X581250Y8167D01*
X581560Y7958D01*
Y7542D01*
X581250Y7333D01*
G01X590705Y12958D02*
X591790Y14417D01*
X592720Y15250D01*
X593960Y15666D01*
X595045Y15250D01*
X595820Y14417D01*
X596440Y13167D01*
X596595Y11708D01*
X596440Y10458D01*
X595820Y9208D01*
X594890Y8167D01*
X593805Y7750D01*
X592565Y8167D01*
X591480Y9416D01*
X590860Y11292D01*
X590705Y13375D01*
X591015Y16083D01*
X591480Y17542D01*
X592255Y19000D01*
X593340Y20042D01*
X594425Y20250D01*
X595510Y19833D01*
X596285Y18792D01*
G01X606050Y7750D02*
X607135Y7958D01*
X608375Y8583D01*
X609150Y9625D01*
X609460Y11083D01*
X609150Y12541D01*
X608220Y13791D01*
X606825Y14417D01*
X605275D01*
X604345Y14833D01*
X603570Y15875D01*
X603260Y17333D01*
X603725Y18792D01*
X604810Y19833D01*
X606050Y20250D01*
X607290Y19833D01*
X608375Y18792D01*
X608840Y17333D01*
X608530Y15875D01*
X607755Y14833D01*
X606825Y14417D01*
X605275D01*
X603880Y13791D01*
X602950Y12541D01*
X602640Y11083D01*
X602950Y9625D01*
X603725Y8583D01*
X604965Y7958D01*
X606050Y7750D01*
G01X615040Y9625D02*
X615970Y8583D01*
X617055Y7958D01*
X618450Y7750D01*
X619845Y8167D01*
X620930Y9000D01*
X621705Y10458D01*
X621860Y12125D01*
X621550Y13791D01*
X620775Y14833D01*
X619690Y15666D01*
X618605Y15875D01*
X617520Y15666D01*
X616125Y14833D01*
X616590Y20250D01*
X620775D01*
G01X556450Y32750D02*
Y45250D01*
X554590Y42750D01*
G01Y32750D02*
X558310D01*
G01X568850D02*
Y45250D01*
X566990Y42750D01*
G01Y32750D02*
X570710D01*
G01X581250Y32333D02*
X580940Y32542D01*
Y32958D01*
X581250Y33167D01*
X581560Y32958D01*
Y32542D01*
X581250Y32333D01*
G01X593650Y32750D02*
X594735Y32958D01*
X595975Y33583D01*
X596750Y34625D01*
X597060Y36083D01*
X596750Y37541D01*
X595820Y38792D01*
X594425Y39417D01*
X592875D01*
X591945Y39833D01*
X591170Y40875D01*
X590860Y42333D01*
X591325Y43792D01*
X592410Y44833D01*
X593650Y45250D01*
X594890Y44833D01*
X595975Y43792D01*
X596440Y42333D01*
X596130Y40875D01*
X595355Y39833D01*
X594425Y39417D01*
X592875D01*
X591480Y38792D01*
X590550Y37541D01*
X590240Y36083D01*
X590550Y34625D01*
X591325Y33583D01*
X592565Y32958D01*
X593650Y32750D01*
G01X606050D02*
Y45250D01*
X604190Y42750D01*
G01Y32750D02*
X607910D01*
G01X618450D02*
Y45250D01*
X616590Y42750D01*
G01Y32750D02*
X620310D01*
G01X565595Y59416D02*
X566835Y58375D01*
X568230Y57750D01*
X569470D01*
X570710Y58375D01*
X571640Y59416D01*
X572105Y60875D01*
X571795Y62333D01*
X571020Y63583D01*
X569625Y64417D01*
X567765Y64833D01*
X566680Y65666D01*
X566215Y67125D01*
X566525Y68583D01*
X567300Y69625D01*
X568385Y70250D01*
X569470D01*
X570555Y69833D01*
X571485Y68792D01*
G01X579390Y70250D02*
X583110D01*
G01X581250D02*
Y57750D01*
G01X579390D02*
X583110D01*
G01X590705Y70250D02*
X596595D01*
X590705Y57750D01*
X596595D01*
G01X609150D02*
X602950D01*
Y70250D01*
X609150D01*
G01X606670Y64208D02*
X602950D01*
G01X682000Y76500D02*
Y-73500D01*
G01X711450Y-67250D02*
Y-54750D01*
X715170D01*
X716410Y-55375D01*
X717340Y-56833D01*
X717650Y-58500D01*
X717340Y-60167D01*
X716565Y-61417D01*
X715170Y-62042D01*
X711450D01*
G01X723850Y-54750D02*
Y-67250D01*
X730050D01*
G01X735475D02*
X739350Y-54750D01*
X743225Y-67250D01*
G01X741830Y-62875D02*
X736870D01*
G01X751750Y-54750D02*
Y-67250D01*
G01X748185Y-54750D02*
X755315D01*
G01X767250Y-67250D02*
X761050D01*
Y-54750D01*
X767250D01*
G01X764770Y-60792D02*
X761050D01*
G01X773140Y-67250D02*
Y-54750D01*
X776240D01*
X777480Y-55375D01*
X778410Y-56208D01*
X779185Y-57458D01*
X779805Y-58917D01*
X779960Y-61000D01*
X779805Y-63084D01*
X779185Y-64542D01*
X778410Y-65792D01*
X777480Y-66625D01*
X776240Y-67250D01*
X773140D01*
G01X711450Y-42250D02*
Y-29750D01*
X715170D01*
X716410Y-30375D01*
X717340Y-31833D01*
X717650Y-33500D01*
X717340Y-35167D01*
X716565Y-36417D01*
X715170Y-37042D01*
X711450D01*
G01X723850Y-29750D02*
Y-42250D01*
X730050D01*
G01X735475D02*
X739350Y-29750D01*
X743225Y-42250D01*
G01X741830Y-37875D02*
X736870D01*
G01X751750Y-29750D02*
Y-42250D01*
G01X748185Y-29750D02*
X755315D01*
G01X767250Y-42250D02*
X761050D01*
Y-29750D01*
X767250D01*
G01X764770Y-35792D02*
X761050D01*
G01X773140Y-42250D02*
Y-29750D01*
X776240D01*
X777480Y-30375D01*
X778410Y-31208D01*
X779185Y-32458D01*
X779805Y-33917D01*
X779960Y-36000D01*
X779805Y-38084D01*
X779185Y-39542D01*
X778410Y-40792D01*
X777480Y-41625D01*
X776240Y-42250D01*
X773140D01*
G01X711450Y-17250D02*
Y-4750D01*
X715170D01*
X716410Y-5375D01*
X717340Y-6833D01*
X717650Y-8500D01*
X717340Y-10167D01*
X716565Y-11417D01*
X715170Y-12042D01*
X711450D01*
G01X723850Y-4750D02*
Y-17250D01*
X730050D01*
G01X735475D02*
X739350Y-4750D01*
X743225Y-17250D01*
G01X741830Y-12875D02*
X736870D01*
G01X751750Y-4750D02*
Y-17250D01*
G01X748185Y-4750D02*
X755315D01*
G01X767250Y-17250D02*
X761050D01*
Y-4750D01*
X767250D01*
G01X764770Y-10792D02*
X761050D01*
G01X773140Y-17250D02*
Y-4750D01*
X776240D01*
X777480Y-5375D01*
X778410Y-6208D01*
X779185Y-7458D01*
X779805Y-8917D01*
X779960Y-11000D01*
X779805Y-13084D01*
X779185Y-14542D01*
X778410Y-15792D01*
X777480Y-16625D01*
X776240Y-17250D01*
X773140D01*
G01X711450Y7750D02*
Y20250D01*
X715170D01*
X716410Y19625D01*
X717340Y18167D01*
X717650Y16500D01*
X717340Y14833D01*
X716565Y13583D01*
X715170Y12958D01*
X711450D01*
G01X723850Y20250D02*
Y7750D01*
X730050D01*
G01X735475D02*
X739350Y20250D01*
X743225Y7750D01*
G01X741830Y12125D02*
X736870D01*
G01X751750Y20250D02*
Y7750D01*
G01X748185Y20250D02*
X755315D01*
G01X767250Y7750D02*
X761050D01*
Y20250D01*
X767250D01*
G01X764770Y14209D02*
X761050D01*
G01X773140Y7750D02*
Y20250D01*
X776240D01*
X777480Y19625D01*
X778410Y18792D01*
X779185Y17542D01*
X779805Y16083D01*
X779960Y14000D01*
X779805Y11916D01*
X779185Y10458D01*
X778410Y9208D01*
X777480Y8375D01*
X776240Y7750D01*
X773140D01*
G01X711450Y32750D02*
Y45250D01*
X715170D01*
X716410Y44625D01*
X717340Y43167D01*
X717650Y41500D01*
X717340Y39833D01*
X716565Y38583D01*
X715170Y37958D01*
X711450D01*
G01X723850Y45250D02*
Y32750D01*
X730050D01*
G01X735475D02*
X739350Y45250D01*
X743225Y32750D01*
G01X741830Y37125D02*
X736870D01*
G01X751750Y45250D02*
Y32750D01*
G01X748185Y45250D02*
X755315D01*
G01X767250Y32750D02*
X761050D01*
Y45250D01*
X767250D01*
G01X764770Y39208D02*
X761050D01*
G01X773140Y32750D02*
Y45250D01*
X776240D01*
X777480Y44625D01*
X778410Y43792D01*
X779185Y42542D01*
X779805Y41083D01*
X779960Y39000D01*
X779805Y36916D01*
X779185Y35458D01*
X778410Y34208D01*
X777480Y33375D01*
X776240Y32750D01*
X773140D01*
G01X711450Y57750D02*
Y70250D01*
X715170D01*
X716410Y69625D01*
X717340Y68167D01*
X717650Y66500D01*
X717340Y64833D01*
X716565Y63583D01*
X715170Y62958D01*
X711450D01*
G01X723850Y70250D02*
Y57750D01*
X730050D01*
G01X735475D02*
X739350Y70250D01*
X743225Y57750D01*
G01X741830Y62125D02*
X736870D01*
G01X751750Y70250D02*
Y57750D01*
G01X748185Y70250D02*
X755315D01*
G01X767250Y57750D02*
X761050D01*
Y70250D01*
X767250D01*
G01X764770Y64208D02*
X761050D01*
G01X773140Y57750D02*
Y70250D01*
X776240D01*
X777480Y69625D01*
X778410Y68792D01*
X779185Y67542D01*
X779805Y66083D01*
X779960Y64000D01*
X779805Y61916D01*
X779185Y60458D01*
X778410Y59208D01*
X777480Y58375D01*
X776240Y57750D01*
X773140D01*
G01X809100Y76500D02*
Y-73500D01*
G01X835450Y57750D02*
X834210Y57958D01*
X833125Y58791D01*
X832195Y60042D01*
X831575Y61500D01*
X831265Y63167D01*
Y64833D01*
X831575Y66500D01*
X832195Y67958D01*
X833125Y69208D01*
X834210Y70042D01*
X835450Y70250D01*
X836690Y70042D01*
X837775Y69208D01*
X838705Y67958D01*
X839325Y66500D01*
X839635Y64833D01*
Y63167D01*
X839325Y61500D01*
X838705Y60042D01*
X837775Y58791D01*
X836690Y57958D01*
X835450Y57750D01*
G01X836690Y61083D02*
X838550Y57750D01*
G01X847850Y70250D02*
Y57750D01*
G01X844285Y70250D02*
X851415D01*
G01X860250Y57750D02*
Y63375D01*
X857150Y70250D01*
G01X863350D02*
X860250Y63375D01*
G01X841650Y-67250D02*
Y-54750D01*
X839790Y-57250D01*
G01Y-67250D02*
X843510D01*
G01X854050Y-54750D02*
X852810Y-55167D01*
X851880Y-56208D01*
X851260Y-57458D01*
X850795Y-59125D01*
X850640Y-61000D01*
X850795Y-62875D01*
X851260Y-64542D01*
X851880Y-65792D01*
X852810Y-66833D01*
X854050Y-67250D01*
X855290Y-66833D01*
X856220Y-65792D01*
X856840Y-64542D01*
X857305Y-62875D01*
X857460Y-61000D01*
X857305Y-59125D01*
X856840Y-57458D01*
X856220Y-56208D01*
X855290Y-55167D01*
X854050Y-54750D01*
G01X844905Y-37042D02*
X845990Y-35583D01*
X846920Y-34750D01*
X848160Y-34334D01*
X849245Y-34750D01*
X850020Y-35583D01*
X850640Y-36833D01*
X850795Y-38292D01*
X850640Y-39542D01*
X850020Y-40792D01*
X849090Y-41833D01*
X848005Y-42250D01*
X846765Y-41833D01*
X845680Y-40584D01*
X845060Y-38708D01*
X844905Y-36625D01*
X845215Y-33917D01*
X845680Y-32458D01*
X846455Y-31000D01*
X847540Y-29958D01*
X848625Y-29750D01*
X849710Y-30167D01*
X850485Y-31208D01*
G01X849710Y-17250D02*
Y-4750D01*
X843975Y-13708D01*
X851725D01*
G01X838705Y12958D02*
X839790Y14417D01*
X840720Y15250D01*
X841960Y15666D01*
X843045Y15250D01*
X843820Y14417D01*
X844440Y13167D01*
X844595Y11708D01*
X844440Y10458D01*
X843820Y9208D01*
X842890Y8167D01*
X841805Y7750D01*
X840565Y8167D01*
X839480Y9416D01*
X838860Y11292D01*
X838705Y13375D01*
X839015Y16083D01*
X839480Y17542D01*
X840255Y19000D01*
X841340Y20042D01*
X842425Y20250D01*
X843510Y19833D01*
X844285Y18792D01*
G01X854050Y7750D02*
X855135Y7958D01*
X856375Y8583D01*
X857150Y9625D01*
X857460Y11083D01*
X857150Y12541D01*
X856220Y13791D01*
X854825Y14417D01*
X853275D01*
X852345Y14833D01*
X851570Y15875D01*
X851260Y17333D01*
X851725Y18792D01*
X852810Y19833D01*
X854050Y20250D01*
X855290Y19833D01*
X856375Y18792D01*
X856840Y17333D01*
X856530Y15875D01*
X855755Y14833D01*
X854825Y14417D01*
X853275D01*
X851880Y13791D01*
X850950Y12541D01*
X850640Y11083D01*
X850950Y9625D01*
X851725Y8583D01*
X852965Y7958D01*
X854050Y7750D01*
G01X841650Y32750D02*
X842735Y32958D01*
X843975Y33583D01*
X844750Y34625D01*
X845060Y36083D01*
X844750Y37541D01*
X843820Y38792D01*
X842425Y39417D01*
X840875D01*
X839945Y39833D01*
X839170Y40875D01*
X838860Y42333D01*
X839325Y43792D01*
X840410Y44833D01*
X841650Y45250D01*
X842890Y44833D01*
X843975Y43792D01*
X844440Y42333D01*
X844130Y40875D01*
X843355Y39833D01*
X842425Y39417D01*
X840875D01*
X839480Y38792D01*
X838550Y37541D01*
X838240Y36083D01*
X838550Y34625D01*
X839325Y33583D01*
X840565Y32958D01*
X841650Y32750D01*
G01X851415Y34208D02*
X852500Y33167D01*
X853740Y32750D01*
X854980Y33167D01*
X856065Y34416D01*
X856840Y36292D01*
X857150Y38167D01*
Y40458D01*
X856840Y42333D01*
X856065Y44000D01*
X855135Y44833D01*
X854050Y45250D01*
X852810Y44833D01*
X851880Y44000D01*
X851260Y42750D01*
X850950Y41083D01*
X851260Y39625D01*
X852035Y38167D01*
X852965Y37333D01*
X854050Y37125D01*
X855290Y37541D01*
X856220Y38583D01*
X857150Y40458D01*
M02*
