G04 ================== begin FILE IDENTIFICATION RECORD ==================*
G04 Layout Name:  C:/Users/Jahn/Desktop/Allergo/HardWare/BOARD/Aircraft.brd*
G04 Film Name:    SILK_BOT*
G04 File Format:  Gerber RS274X*
G04 File Origin:  Cadence Allegro 16.6-2015-S108*
G04 Origin Date:  Mon Sep 30 12:36:45 2019*
G04 *
G04 Layer:  REF DES/SILKSCREEN_BOTTOM*
G04 Layer:  PACKAGE GEOMETRY/SILKSCREEN_BOTTOM*
G04 Layer:  BOARD GEOMETRY/SILKSCREEN_BOTTOM*
G04 Layer:  BOARD GEOMETRY/OUTLINE*
G04 *
G04 Offset:    (0.000 0.000)*
G04 Mirror:    No*
G04 Mode:      Positive*
G04 Rotation:  0*
G04 FullContactRelief:  No*
G04 UndefLineWidth:     4.000*
G04 ================== end FILE IDENTIFICATION RECORD ====================*
%FSLAX25Y25*MOIN*%
%IR0*IPPOS*OFA0.00000B0.00000*MIA0B0*SFA1.00000B1.00000*%
%ADD10C,.006*%
%ADD11C,.007874*%
%ADD12C,.004*%
%ADD13C,.03937*%
%ADD14C,.015748*%
G75*
%LPD*%
G75*
G54D10*
G01X-55167Y21667D02*
X-54917Y21867D01*
X-54625Y22000D01*
X-54292D01*
X-53917Y21800D01*
X-53625Y21467D01*
X-53417Y21067D01*
X-53250Y20400D01*
X-53208Y19800D01*
X-53292Y19200D01*
X-53417Y18800D01*
X-53667Y18400D01*
X-53958Y18133D01*
X-54250Y18000D01*
X-54542D01*
X-54833Y18133D01*
X-55083Y18333D01*
X-55292Y18600D01*
G01X-56433Y18800D02*
X-56683Y18333D01*
X-57017Y18067D01*
X-57392Y18000D01*
X-57725Y18067D01*
X-58058Y18400D01*
X-58267Y18800D01*
X-58308Y19200D01*
X-58225Y19667D01*
X-57933Y20000D01*
X-57642Y20133D01*
X-57267D01*
G01X-57642D02*
X-57892Y20333D01*
X-58100Y20667D01*
X-58183Y21067D01*
X-58100Y21467D01*
X-57892Y21800D01*
X-57517Y22000D01*
X-57142Y21933D01*
X-56767Y21667D01*
G01X-60450Y18000D02*
X-60742Y18067D01*
X-61075Y18267D01*
X-61283Y18600D01*
X-61367Y19067D01*
X-61283Y19533D01*
X-61033Y19933D01*
X-60658Y20133D01*
X-60242D01*
X-59992Y20267D01*
X-59783Y20600D01*
X-59700Y21067D01*
X-59825Y21533D01*
X-60117Y21867D01*
X-60450Y22000D01*
X-60783Y21867D01*
X-61075Y21533D01*
X-61200Y21067D01*
X-61117Y20600D01*
X-60908Y20267D01*
X-60658Y20133D01*
X-60242D01*
X-59867Y19933D01*
X-59617Y19533D01*
X-59533Y19067D01*
X-59617Y18600D01*
X-59825Y18267D01*
X-60158Y18067D01*
X-60450Y18000D01*
G01X-60000Y41417D02*
X-56000D01*
Y42458D01*
X-56200Y42792D01*
X-56467Y43000D01*
X-57000Y43083D01*
X-57533Y43000D01*
X-57867Y42750D01*
X-58067Y42458D01*
Y41417D01*
G01Y42458D02*
X-60000Y43083D01*
G01X-58333Y44558D02*
X-57867Y44850D01*
X-57600Y45100D01*
X-57467Y45433D01*
X-57600Y45725D01*
X-57867Y45933D01*
X-58267Y46100D01*
X-58733Y46142D01*
X-59133Y46100D01*
X-59533Y45933D01*
X-59867Y45683D01*
X-60000Y45392D01*
X-59867Y45058D01*
X-59467Y44767D01*
X-58867Y44600D01*
X-58200Y44558D01*
X-57333Y44642D01*
X-56867Y44767D01*
X-56400Y44975D01*
X-56067Y45267D01*
X-56000Y45558D01*
X-56133Y45850D01*
X-56467Y46058D01*
G01X-38000Y35500D02*
Y37750D01*
X-36733Y40500D01*
G01X-39267D02*
X-38000Y37750D01*
G01X-50333Y42667D02*
X-50133Y42417D01*
X-50000Y42125D01*
Y41792D01*
X-50200Y41417D01*
X-50533Y41125D01*
X-50933Y40917D01*
X-51600Y40750D01*
X-52200Y40708D01*
X-52800Y40792D01*
X-53200Y40917D01*
X-53600Y41167D01*
X-53867Y41458D01*
X-54000Y41750D01*
Y42042D01*
X-53867Y42333D01*
X-53667Y42583D01*
X-53400Y42792D01*
G01X-50667Y44058D02*
X-50267Y44308D01*
X-50067Y44600D01*
X-50000Y44933D01*
X-50133Y45350D01*
X-50467Y45642D01*
X-50867Y45725D01*
X-51267Y45683D01*
X-51600Y45517D01*
X-52267Y44683D01*
X-52733Y44308D01*
X-53400Y44058D01*
X-54000Y43975D01*
Y45725D01*
G01Y47867D02*
X-53133Y47950D01*
X-52400Y48075D01*
X-51733Y48242D01*
X-51000Y48450D01*
X-50000Y48783D01*
Y47117D01*
G01X-29917Y65000D02*
Y69000D01*
X-30958D01*
X-31292Y68800D01*
X-31500Y68533D01*
X-31583Y68000D01*
X-31500Y67467D01*
X-31250Y67133D01*
X-30958Y66933D01*
X-29917D01*
G01X-30958D02*
X-31583Y65000D01*
G01X-33767D02*
X-33850Y65867D01*
X-33975Y66600D01*
X-34142Y67267D01*
X-34350Y68000D01*
X-34683Y69000D01*
X-33017D01*
G01X11033Y-68000D02*
X8700Y-75500D01*
X6367Y-68000D01*
G01X640Y-71750D02*
X-1227D01*
Y-74000D01*
X-667Y-74750D01*
X-13Y-75250D01*
X920Y-75500D01*
X1853Y-75250D01*
X2507Y-74750D01*
X3067Y-74000D01*
X3440Y-73125D01*
X3627Y-72125D01*
Y-71250D01*
X3440Y-70500D01*
X3067Y-69625D01*
X2507Y-68875D01*
X1947Y-68375D01*
X1200Y-68000D01*
X547D01*
X-200Y-68250D01*
X-760Y-68750D01*
G01X-6300Y-68000D02*
Y-75500D01*
G01X-4153Y-68000D02*
X-8447D01*
G01X-11933Y-75500D02*
Y-68000D01*
X-14267D01*
X-15013Y-68375D01*
X-15480Y-68875D01*
X-15667Y-69875D01*
X-15480Y-70875D01*
X-14920Y-71500D01*
X-14267Y-71875D01*
X-11933D01*
G01X-14267D02*
X-15667Y-75500D01*
G01X-6170Y54000D02*
X-8830Y59000D01*
G01X-6170D02*
X-8830Y54000D01*
G01X32833Y-9833D02*
X33083Y-9633D01*
X33375Y-9500D01*
X33708D01*
X34083Y-9700D01*
X34375Y-10033D01*
X34583Y-10433D01*
X34750Y-11100D01*
X34792Y-11700D01*
X34708Y-12300D01*
X34583Y-12700D01*
X34333Y-13100D01*
X34042Y-13367D01*
X33750Y-13500D01*
X33458D01*
X33167Y-13367D01*
X32917Y-13167D01*
X32708Y-12900D01*
G01X30650Y-13500D02*
Y-9500D01*
X31150Y-10300D01*
G01Y-13500D02*
X30150D01*
G01X27550Y-9500D02*
X27883Y-9633D01*
X28133Y-9967D01*
X28300Y-10367D01*
X28425Y-10900D01*
X28467Y-11500D01*
X28425Y-12100D01*
X28300Y-12633D01*
X28133Y-13033D01*
X27883Y-13367D01*
X27550Y-13500D01*
X27217Y-13367D01*
X26967Y-13033D01*
X26800Y-12633D01*
X26675Y-12100D01*
X26633Y-11500D01*
X26675Y-10900D01*
X26800Y-10367D01*
X26967Y-9967D01*
X27217Y-9633D01*
X27550Y-9500D01*
G01X29333Y59667D02*
X29583Y59867D01*
X29875Y60000D01*
X30208D01*
X30583Y59800D01*
X30875Y59467D01*
X31083Y59067D01*
X31250Y58400D01*
X31292Y57800D01*
X31208Y57200D01*
X31083Y56800D01*
X30833Y56400D01*
X30542Y56133D01*
X30250Y56000D01*
X29958D01*
X29667Y56133D01*
X29417Y56333D01*
X29208Y56600D01*
G01X27150Y56000D02*
Y60000D01*
X27650Y59200D01*
G01Y56000D02*
X26650D01*
G01X61083Y85500D02*
Y89500D01*
X60042D01*
X59708Y89300D01*
X59500Y89033D01*
X59417Y88500D01*
X59500Y87967D01*
X59750Y87633D01*
X60042Y87433D01*
X61083D01*
G01X60042D02*
X59417Y85500D01*
G01X57150D02*
Y89500D01*
X57650Y88700D01*
G01Y85500D02*
X56650D01*
G01X100039Y76901D02*
X99659Y76659D01*
X99309Y76553D01*
X98990Y76583D01*
X98768Y76865D01*
X98684Y77221D01*
X98668Y77693D01*
X98862Y78196D01*
X100196Y80506D01*
G01X95800Y78425D02*
X97800Y81889D01*
X97702Y78636D01*
X95897Y79677D01*
G54D11*
G01X-53291Y16756D02*
X-64709D01*
Y11244D01*
X-53291D01*
Y16756D01*
G01X-55744Y50291D02*
Y61709D01*
X-61256D01*
Y50291D01*
X-55744D01*
G01X-49744D02*
Y61709D01*
X-55256D01*
Y50291D01*
X-49744D01*
G01X-47709Y64244D02*
X-36291D01*
Y69756D01*
X-47709D01*
Y64244D01*
G01X-13189Y-12795D02*
X12402D01*
Y12795D01*
X-13189D01*
Y-12795D01*
G01X23791Y-20756D02*
X35209D01*
Y-15244D01*
X23791D01*
Y-20756D01*
G01X25744Y54709D02*
Y43291D01*
X31256D01*
Y54709D01*
X25744D01*
G01X52791Y79244D02*
X64209D01*
Y84756D01*
X52791D01*
Y79244D01*
G01X96768Y93772D02*
X84958Y73315D01*
X99618Y64850D01*
X111430Y85308D01*
X96768Y93772D01*
G54D12*
G01X175226Y153516D02*
G03X153573Y175169I0J21654D01*
G02X-153511I-153542J92789D01*
G03X-175165Y153516I-21654J0D01*
G02Y-153568I-92789J-153542D01*
G03X-153511Y-175222I0J-21654D01*
G02X153573I153542J-92789D01*
G03X175226Y-153568I21654J0D01*
G02Y153516I92789J153542D01*
G01X-161220Y-175197D02*
G03I-13976J0D01*
G01Y175197D02*
G03I-13976J0D01*
G01X189173Y-175197D02*
G03I-13976J0D01*
G01Y175197D02*
G03I-13976J0D01*
G54D13*
G01X-42500Y35500D02*
X-45500Y32500D01*
G01X-42500Y29500D02*
X-45500Y32500D01*
X-15500D01*
G01X-18500Y59500D02*
X-15500Y62500D01*
Y32500D01*
G01Y62500D02*
X-12500Y59500D01*
G54D14*
G01X-112559Y-106666D02*
X-113672Y-105553D01*
G01X-105320Y-112234D02*
X-106991Y-113904D01*
G01Y-112234D02*
X-105320Y-113904D01*
G01X-98945Y-81257D02*
X-99352Y-82778D01*
G01X-97742Y-72204D02*
X-95460Y-72816D01*
G01X-96907Y-73651D02*
X-96296Y-71369D01*
G01X-107166Y113059D02*
X-106053Y114172D01*
G01X-112734Y105820D02*
X-114404Y107491D01*
G01X-112734D02*
X-114404Y105820D01*
G01X106666Y-112559D02*
X105553Y-113672D01*
G01X112234Y-105320D02*
X113904Y-106991D01*
G01X112234D02*
X113904Y-105320D01*
G01X113228Y107335D02*
X114341Y106222D01*
G01X105990Y112904D02*
X107660Y114574D01*
G01Y112904D02*
X105990Y114574D01*
M02*
