G04 ================== begin FILE IDENTIFICATION RECORD ==================*
G04 Layout Name:  C:/Users/Jahn/Desktop/Allergo/HardWare/BOARD/Aircraft.brd*
G04 Film Name:    TOP*
G04 File Format:  Gerber RS274X*
G04 File Origin:  Cadence Allegro 16.6-2015-S108*
G04 Origin Date:  Mon Sep 30 12:36:45 2019*
G04 *
G04 Layer:  VIA CLASS/TOP*
G04 Layer:  PIN/TOP*
G04 Layer:  ETCH/TOP*
G04 Layer:  BOARD GEOMETRY/OUTLINE*
G04 *
G04 Offset:    (0.000 0.000)*
G04 Mirror:    No*
G04 Mode:      Positive*
G04 Rotation:  0*
G04 FullContactRelief:  No*
G04 UndefLineWidth:     4.000*
G04 ================== end FILE IDENTIFICATION RECORD ====================*
%FSLAX25Y25*MOIN*%
%IR0*IPPOS*OFA0.00000B0.00000*MIA0B0*SFA1.00000B1.00000*%
%ADD23R,.070866X.062992*%
%ADD34O,.070866X.018898*%
%AMMACRO12*
21,1,.031496,.035433,0.0,0.0,135.*%
%ADD12MACRO12*%
%ADD24R,.145669X.043307*%
%ADD13C,.024016*%
%ADD32R,.011811X.055118*%
%ADD10C,.035433*%
%ADD29R,.055118X.011811*%
%ADD36R,.011811X.031496*%
%ADD28C,.047244*%
%ADD37R,.031496X.011811*%
%ADD20O,.011811X.057087*%
%ADD21O,.057087X.011811*%
%ADD14C,.059055*%
%ADD33R,.01378X.01378*%
%ADD19R,.03937X.021654*%
%ADD35R,.035433X.031496*%
%ADD30R,.047244X.055118*%
%ADD17R,.021654X.03937*%
%AMMACRO15*
21,1,.031496,.035433,0.0,0.0,45.*%
%ADD15MACRO15*%
%ADD22R,.055118X.047244*%
%ADD27O,.098425X.043307*%
%ADD18R,.03937X.03937*%
%AMMACRO11*
21,1,.031496,.031496,0.0,0.0,45.*%
%ADD11MACRO11*%
%ADD31R,.025591X.033465*%
%ADD16R,.031496X.031496*%
%ADD26R,.03937X.07874*%
%ADD25R,.062992X.070866*%
%ADD38C,.006*%
%ADD39C,.007874*%
%ADD40C,.01*%
%ADD41C,.02*%
%ADD42C,.012*%
%ADD43C,.03*%
%ADD44C,.04*%
%ADD45C,.05*%
%ADD46C,.014*%
%ADD47C,.015*%
%ADD48C,.06*%
%ADD49C,.016*%
%ADD50C,.025*%
%ADD51C,.08*%
%ADD52C,.004*%
%ADD53C,.03937*%
%ADD54C,.31559*%
%ADD55C,.315592*%
G75*
%LPD*%
G75*
G36*
G01X-129549Y-140398D02*
X-129234Y-140387D01*
X-129224Y-140673D01*
X-129285Y-140734D01*
G03X-155699Y-174802I129135J-127400D01*
G02X-174802Y-155699I-19646J-543D01*
G03X-136548Y-125016I-93332J155549D01*
G01X-136485Y-124950D01*
X-136194Y-124964D01*
X-136213Y-125364D01*
X-139092Y-128243D01*
X-136212Y-131123D01*
X-136173Y-131874D01*
X-133772Y-132042D01*
X-133350Y-132464D01*
G02X-133412Y-133080I-283J-283D01*
G03X-134219Y-134582I994J-1501D01*
G01Y-136046D01*
X-135757Y-137909D01*
X-136767Y-138919D01*
X-132419Y-143267D01*
X-129549Y-140398D01*
G37*
G36*
G01X-141219Y129736D02*
X-141500D01*
X-141558Y129793D01*
G03X-174802Y155400I-126576J-129943D01*
G02X-155699Y174503I-543J19646D01*
G03X-128736Y139881I155550J93332D01*
G01X-128595Y139740D01*
X-129167Y139167D01*
X-132500Y142500D01*
X-133000D01*
X-136000Y139500D01*
Y139000D01*
X-132459Y135459D01*
X-132542Y134272D01*
X-134272Y132542D01*
X-135001Y132491D01*
G02X-135157Y132832I-14J199D01*
G01X-135070Y132919D01*
X-139419Y137267D01*
X-143767Y132919D01*
X-141219Y130370D01*
Y129736D01*
G37*
G36*
G01X-132631Y-136480D02*
X-134646Y-138918D01*
X-132418Y-138994D01*
X-130191Y-138918D01*
X-132206Y-136480D01*
G03X-132631I-212J-212D01*
G37*
G36*
G01X-127908Y-139327D02*
X-128166Y-139015D01*
X-123894Y-134743D01*
X-126766Y-131871D01*
X-126795Y-131113D01*
X-129213Y-130944D01*
X-130984Y-129173D01*
X-128507Y-126696D01*
X-128114Y-126668D01*
X-127537Y-127246D01*
X-122910Y-122619D01*
X-127258Y-118270D01*
X-130441Y-121453D01*
X-131171Y-121521D01*
X-131336Y-123868D01*
X-131873Y-124405D01*
X-135150Y-124530D01*
G02X-135458Y-123857I-15J400D01*
G03X-95530Y-55957I-132676J123708D01*
G02X-94862Y-55802I381J-123D01*
G03X-91527Y-56971I2838J2752D01*
G01X-91478Y-56965D01*
X-91244Y-57055D01*
X-91394Y-57445D01*
X-94917Y-66001D01*
X-97625Y-75208D01*
X-95349Y-79000D01*
X-90711D01*
X-87289Y-77632D01*
X-81811Y-60699D01*
G02X-81240Y-60470I381J-123D01*
G03X-79095Y-61014I2145J3956D01*
G01X-67843D01*
X-67829Y-61000D01*
X-64224D01*
G03X-61411Y-60013I0J4500D01*
G01X-61356Y-59969D01*
X-60756D01*
Y-59368D01*
X-60712Y-59313D01*
G03X-59948Y-55098I-3513J2813D01*
G02X-59332Y-54650I380J125D01*
G01X-58500Y-55260D01*
Y-60000D01*
X-56064D01*
G02X-55781Y-60683I0J-400D01*
G01X-62100Y-67002D01*
Y-67272D01*
X-63075Y-68422D01*
Y-79700D01*
X-82746D01*
X-87773Y-84727D01*
G03X-85227Y-87273I1273J-1273D01*
G01X-81254Y-83300D01*
X-36716D01*
X-31167Y-77750D01*
G03X-33048Y-74783I-1273J1273D01*
G02X-33541Y-74585I-135J376D01*
G03X-35278Y-73478I-1790J-892D01*
G02X-35472Y-73278I5J200D01*
G01Y-67425D01*
X-41622D01*
Y-70746D01*
X-42572Y-71696D01*
Y-74425D01*
X-46612D01*
X-47213Y-74977D01*
X-48224D01*
X-48749Y-74453D01*
X-49128D01*
X-50364Y-73378D01*
X-54659D01*
X-55260Y-73930D01*
X-56925D01*
Y-68422D01*
X-57225Y-68068D01*
X-49158Y-60000D01*
X-38500D01*
Y-50879D01*
X-40500Y-48879D01*
Y-43621D01*
X-38044Y-41166D01*
X-30716D01*
Y-39838D01*
X-30500Y-39621D01*
Y-33500D01*
X-45121D01*
X-45456Y-33834D01*
X-48284D01*
Y-36662D01*
X-49121Y-37500D01*
X-53177D01*
Y-36543D01*
X-58343D01*
Y-37500D01*
X-60657D01*
Y-36543D01*
X-65823D01*
Y-37500D01*
X-66000D01*
Y-49760D01*
X-63931Y-51278D01*
G02X-64172Y-52000I-237J-323D01*
G03X-64224Y-52000I-52J-4500D01*
G01X-71557D01*
X-71571Y-52014D01*
X-72665D01*
G02X-72936Y-51320I0J400D01*
G01X-69211Y-47893D01*
X-72096Y-40969D01*
X-71949Y-40879D01*
G03X-77463Y-39407I-2051J3379D01*
G02X-77813Y-40000I-350J-193D01*
G01X-82121D01*
X-84956Y-42834D01*
G02X-85628Y-42642I-283J283D01*
G03X-90503Y-39725I-3849J-900D01*
G02X-90997Y-39252I-104J386D01*
G03X-90500Y-36928I-177136J39106D01*
G02X-89816Y-36736I392J-81D01*
G03X-88645Y-30474I2886J2701D01*
G02X-89213Y-30048I-174J360D01*
G03X-118056Y101748I-178921J29898D01*
G02X-117442Y102255I331J225D01*
G01X-106387Y91200D01*
X-88388D01*
G02X-88105Y90517I0J-400D01*
G01X-91000Y87621D01*
Y84575D01*
X-92028D01*
Y79383D01*
X-91153Y78330D01*
Y77170D01*
X-92028Y76117D01*
Y70925D01*
X-91000D01*
Y69528D01*
X-94075D01*
Y57472D01*
X-92846D01*
X-91631Y56258D01*
G02X-91914Y55575I-283J-283D01*
G01X-92028D01*
Y49425D01*
X-91000D01*
Y44224D01*
X-89251Y39632D01*
G03X-88868Y39016I1776J676D01*
G03X-88744Y38301I1900J-38D01*
G01X-86534Y32500D01*
X-82148D01*
G02X-81865Y31817I0J-400D01*
G01X-84250Y29432D01*
Y8647D01*
X-82449Y6846D01*
Y-1066D01*
X-81624Y-2067D01*
Y-6933D01*
X-82449Y-7934D01*
Y-13122D01*
X-76299D01*
Y-7934D01*
X-77124Y-6933D01*
Y-2067D01*
X-76299Y-1066D01*
Y10028D01*
X-79267D01*
X-79750Y10511D01*
Y27568D01*
X-77568Y29750D01*
X-75990D01*
G02X-75879Y29383I0J-200D01*
G01X-76000Y29303D01*
Y12474D01*
X-73221Y9000D01*
X-49168D01*
X-45269Y4668D01*
G02X-45567Y4000I-297J-268D01*
G01X-47988D01*
Y4122D01*
X-54138D01*
Y4000D01*
X-57425D01*
Y4122D01*
X-63575D01*
Y4000D01*
X-66862D01*
Y4122D01*
X-70738D01*
X-70769Y4132D01*
G03X-71831I-531J-1615D01*
G01X-71862Y4122D01*
X-73012D01*
Y-2028D01*
X-73000D01*
Y-2621D01*
X-63575Y-12047D01*
Y-13453D01*
X-67122D01*
X-67829Y-12878D01*
X-73012D01*
Y-19028D01*
X-67829D01*
X-67122Y-18453D01*
X-65740D01*
Y-25913D01*
X-65823D01*
Y-32851D01*
X-60657D01*
Y-25913D01*
X-60740D01*
Y-19728D01*
X-60039Y-19028D01*
X-58392D01*
X-57686Y-18453D01*
X-53878D01*
X-53171Y-19028D01*
X-49615D01*
G02X-49332Y-19711I0J-400D01*
G01X-53121Y-23500D01*
X-56621D01*
X-58417Y-25296D01*
Y-33000D01*
X-34879D01*
X-30500Y-28621D01*
Y-21879D01*
X-38379Y-14000D01*
X-43621D01*
X-47305Y-17684D01*
G02X-47988Y-17401I-283J283D01*
G01Y-13000D01*
X-39379D01*
X-37000Y-10621D01*
Y-6661D01*
G02X-36317Y-6378I400J0D01*
G01X-35202Y-7493D01*
X-32327D01*
G03X-29134Y-9358I3193J1800D01*
G01X-23622D01*
G03X-22236Y-9086I0J3666D01*
G02X-21685Y-9457I151J-370D01*
G01Y-13278D01*
X-27525Y-19118D01*
Y-52427D01*
X-21475Y-58478D01*
X10495D01*
X10528Y-58445D01*
G02X11210Y-58728I283J-283D01*
G01Y-61100D01*
X22006Y-71896D01*
X28547D01*
Y-78028D01*
X28577D01*
Y-79966D01*
X33361Y-84750D01*
X41539D01*
X41919Y-85075D01*
X52081D01*
X52461Y-84750D01*
X53164D01*
X57728Y-89314D01*
Y-91575D01*
X64272D01*
Y-85425D01*
X61617D01*
X55442Y-79250D01*
X52461D01*
X52081Y-78925D01*
X41919D01*
X41539Y-79250D01*
X35639D01*
X34758Y-78369D01*
G02X34900Y-78028I141J141D01*
G01X35309D01*
X35836Y-78581D01*
X37004Y-77604D01*
X41832D01*
X44862Y-74575D01*
X52081D01*
X52461Y-74250D01*
X57728D01*
Y-74575D01*
X64272D01*
Y-68425D01*
X59731D01*
X59171Y-68002D01*
X58295Y-68750D01*
X52461D01*
X52081Y-68425D01*
X40998D01*
X40938Y-68336D01*
G03X40631Y-68306I-166J-111D01*
G01X40452Y-68485D01*
X38330D01*
X38136Y-68679D01*
G02X37453Y-68396I-283J283D01*
G01Y-65936D01*
X39639Y-63750D01*
X41539D01*
X41919Y-64075D01*
X52081D01*
X52461Y-63750D01*
X55442D01*
X61617Y-57575D01*
X64272D01*
Y-51425D01*
X57728D01*
Y-53686D01*
X53164Y-58250D01*
X52461D01*
X52081Y-57925D01*
X41919D01*
X41539Y-58250D01*
X37361D01*
X31923Y-63688D01*
Y-65972D01*
X30691D01*
X30164Y-65419D01*
X28996Y-66396D01*
X24285D01*
X16711Y-58821D01*
Y-52227D01*
G03X17461Y-50062I-2750J2165D01*
G01Y-49000D01*
G03X10493Y-48522I-3500J0D01*
G01X10484Y-48589D01*
X7595Y-51477D01*
X-2903D01*
G02X-3236Y-50857I0J400D01*
G03X-8843I-2803J1857D01*
G02X-9176Y-51477I-333J-221D01*
G01X-12903D01*
G02X-13236Y-50857I0J400D01*
G03X-19332Y-49682I-2803J1857D01*
G02X-20006Y-50046I-392J-81D01*
G01X-20525Y-49528D01*
Y-22018D01*
X-14685Y-16178D01*
Y-15000D01*
X13046D01*
G02X13328Y-15683I0J-400D01*
G01X4539Y-24472D01*
X2892D01*
X2186Y-25047D01*
X-686D01*
X-1392Y-24472D01*
X-5608D01*
X-6315Y-25047D01*
X-9186D01*
X-9892Y-24472D01*
X-15075D01*
Y-30622D01*
X-9892D01*
X-9186Y-30047D01*
X-6315D01*
X-5608Y-30622D01*
X-1392D01*
X-686Y-30047D01*
X2186D01*
X2892Y-30622D01*
X7125D01*
X8275Y-29647D01*
X11407D01*
G02X11702Y-30317I0J-400D01*
G03X11774Y-32819I1329J-1214D01*
G01X11954Y-33000D01*
X11727Y-33227D01*
G03X11200Y-34500I1273J-1273D01*
G01Y-34533D01*
G03X11807Y-35882I1800J0D01*
G01X11812Y-35886D01*
X11958Y-36031D01*
X11727Y-36262D01*
G03X11205Y-37398I1273J-1273D01*
G02X10523Y-37651I-399J30D01*
G01X9188Y-36316D01*
X9162D01*
X8275Y-35428D01*
G03X5762Y-35396I-1273J-1273D01*
G02X5216Y-35401I-275J290D01*
G03X2200Y-36728I-1216J-1328D01*
G01Y-39746D01*
X5754Y-43300D01*
X16443D01*
X18537Y-41206D01*
X19941D01*
Y-43662D01*
X26091D01*
Y-35591D01*
X34162D01*
Y-31409D01*
X28059D01*
Y-25561D01*
G02X28742Y-25278I400J0D01*
G01X36000Y-32536D01*
Y-40233D01*
X35425Y-40939D01*
Y-46122D01*
X40608D01*
X41314Y-45547D01*
X43186D01*
X43892Y-46122D01*
X49075D01*
Y-42942D01*
X52638Y-39380D01*
X53457D01*
Y-42028D01*
X57835D01*
Y-40195D01*
X58482Y-39548D01*
G02X59165Y-39831I283J-283D01*
G01Y-42028D01*
X62586D01*
X63053Y-41639D01*
X64500D01*
G03X66138Y-39092I0J1800D01*
G01X66080Y-38966D01*
X69300Y-35746D01*
Y-33691D01*
G02X69736Y-33293I400J0D01*
G03X69899Y-33300I163J1793D01*
G01X78246D01*
X82773Y-28773D01*
G03X80227Y-26227I-1273J1273D01*
G01X76754Y-29700D01*
X69899D01*
G03X69736Y-29707I0J-1800D01*
G02X69300Y-29309I-36J398D01*
G01Y-19512D01*
G02X69983Y-19230I400J0D01*
G01X73554Y-22800D01*
X76692D01*
G03X78347Y-23445I1655J1800D01*
G01X83543D01*
G03X84710Y-18852I0J2445D01*
G02Y-18148I191J351D01*
G03Y-13852I-1167J2149D01*
G02Y-13149I191J351D01*
G03Y-8852I-1167J2149D01*
G02Y-8148I191J351D01*
G03X83543Y-3555I-1167J2149D01*
G01X81467D01*
X81447Y-3551D01*
G03X80442I-503J-2449D01*
G01X80423Y-3555D01*
X78347D01*
G03X76697Y-7805I0J-2445D01*
G02X76427Y-8500I-270J-295D01*
G01X59512D01*
G02X59229Y-7817I0J400D01*
G01X60536Y-6510D01*
Y-5735D01*
G03X57293Y-4658I-1800J0D01*
G01X57285Y-4670D01*
X53001Y-8954D01*
X52868Y-8878D01*
G03X52821Y-8852I-1212J-2124D01*
G02Y-8148I191J351D01*
G03X54092Y-6176I-1167J2149D01*
G01X54098Y-6102D01*
X57899Y-2300D01*
X75645D01*
X80672Y2727D01*
G03X78126Y5273I-1273J1273D01*
G01X78112Y5259D01*
G02X77429Y5542I-283J283D01*
G01Y7020D01*
X73248D01*
Y1300D01*
X72311D01*
Y7020D01*
X72021D01*
Y7525D01*
X69508Y10038D01*
X74209Y14738D01*
X80556D01*
G03X80745Y14747I0J2100D01*
G01X80754Y14748D01*
X81778D01*
X82130Y14870D01*
X82269Y14748D01*
X83630D01*
Y18929D01*
X80754D01*
X80745Y18930D01*
G03X80556Y18939I-190J-2092D01*
G01X77429D01*
Y24972D01*
X83075D01*
Y31122D01*
X76925D01*
Y29893D01*
X75832Y28800D01*
X64246D01*
X63253Y29793D01*
Y30729D01*
G02X63450Y30929I200J0D01*
G03X64406Y31175I-29J2091D01*
G03X67042Y31739I984J1845D01*
G02X67674I316J-245D01*
G03X71418Y33020I1652J1281D01*
G01Y35084D01*
X71418Y35093D01*
G03X71427Y35283I-2092J190D01*
G01Y39426D01*
X71630D01*
X72577Y40373D01*
X72888D01*
X72934Y40348D01*
G03X73953Y40082I1019J1825D01*
G01X78480D01*
G03X80325Y43157I0J2091D01*
G03Y45126I-1845J984D01*
G03Y47094I-1845J984D01*
G03Y49063I-1845J984D01*
G03Y51031I-1845J984D01*
G03X80567Y51890I-1845J984D01*
G02X81064Y52254I399J-24D01*
G03X82773Y55273I436J1746D01*
G01X80533Y57513D01*
X80548Y57612D01*
G03X80571Y57892I-2068J309D01*
G01X80574Y58090D01*
X82136D01*
X93050Y69004D01*
Y76500D01*
G03X92205Y78026I-1800J0D01*
G02X92135Y78648I212J339D01*
G01X95869Y82383D01*
G03X93324Y84928I-1273J1273D01*
G01X86195Y77800D01*
X80312D01*
G02X80029Y78483I0J400D01*
G01X97773Y96227D01*
G03X95227Y98773I-1273J1273D01*
G01X77754Y81300D01*
X77500D01*
G03X77009Y81232I0J-1800D01*
G02X76500Y81617I-109J385D01*
G01Y81733D01*
X77075Y82439D01*
Y87622D01*
X70925D01*
Y87547D01*
X69075D01*
Y87622D01*
X62925D01*
Y87547D01*
X52921D01*
X46430Y81057D01*
X46314D01*
X42304Y77047D01*
X41075D01*
Y77122D01*
X34925D01*
Y77047D01*
X33075D01*
Y77122D01*
X26925D01*
Y77047D01*
X8568D01*
G02X8192Y77584I0J400D01*
G03X6500Y79999I-1692J615D01*
G01X4547D01*
X-1206Y85752D01*
G02X-922Y86435I283J283D01*
G03X128410Y139854I772J181400D01*
G01X128417Y139861D01*
X128578Y139995D01*
X128835Y139684D01*
X124563Y135412D01*
X127436Y132540D01*
X127465Y131783D01*
X129883Y131613D01*
X131653Y129842D01*
X130265Y128454D01*
X130261Y128451D01*
G03X130244Y128433I1421J-1408D01*
G01X129176Y127365D01*
X128783Y127338D01*
X128206Y127915D01*
X123579Y123288D01*
X127928Y118939D01*
X131111Y122122D01*
X131840Y122190D01*
X132005Y124537D01*
X132542Y125074D01*
X135759Y125197D01*
G02X136064Y124522I15J-400D01*
G03X134845Y-123520I131771J-124672D01*
G01X134976Y-123661D01*
X131871Y-126766D01*
X131113Y-126795D01*
X130944Y-129213D01*
X129173Y-130984D01*
X126696Y-128507D01*
X126668Y-128114D01*
X127246Y-127537D01*
X122619Y-122910D01*
X118270Y-127258D01*
X121453Y-130441D01*
X121521Y-131171D01*
X123868Y-131336D01*
X124405Y-131873D01*
X124541Y-135440D01*
G02X123868Y-135747I-400J-15D01*
G03X-127740Y-139188I-124017J-132387D01*
G01X-127747Y-139194D01*
X-127908Y-139327D01*
G37*
G36*
G01X-132378Y-130209D02*
X-132516Y-128243D01*
X-134831Y-128154D01*
X-134743Y-130470D01*
X-132777Y-130608D01*
G03X-132378Y-130209I-93J491D01*
G37*
G36*
G01X-130961Y-125872D02*
X-134743Y-126016D01*
X-134854Y-128299D01*
X-134743Y-130470D01*
X-130639Y-126706D01*
G03X-130961Y-125872I-370J336D01*
G37*
G36*
G01X-129503Y-125262D02*
X-127537Y-125124D01*
X-127309Y-122669D01*
X-129764Y-122897D01*
X-129902Y-124863D01*
G03X-129503Y-125262I491J93D01*
G37*
G36*
G01X-130608Y-132777D02*
X-130470Y-134743D01*
X-128154Y-134831D01*
X-128243Y-132516D01*
X-130209Y-132378D01*
G03X-130608Y-132777I93J-491D01*
G37*
G36*
G01X-106693Y114526D02*
X-106694Y117318D01*
Y117319D01*
G03X-112483Y120874I-3953J55D01*
G01X-116156D01*
X-117651Y122369D01*
G03X-119087Y123236I-2475J-2475D01*
G01X-119135Y123251D01*
X-120265Y124382D01*
X-121560Y123087D01*
X-121592Y123072D01*
G03X-123319Y121328I1466J-3178D01*
G01X-124614Y120033D01*
X-123483Y118902D01*
X-123468Y118855D01*
G03X-122601Y117419I3343J1039D01*
G01X-119593Y114411D01*
G02X-119667Y113787I-283J-283D01*
G03X-120699Y112875I2062J-3373D01*
G02X-121295Y112841I-313J249D01*
G01X-134046Y125591D01*
X-132371Y127266D01*
X-131613Y127295D01*
X-131444Y129713D01*
X-129673Y131484D01*
X-127196Y129007D01*
X-127168Y128614D01*
X-127746Y128037D01*
X-123119Y123410D01*
X-118770Y127758D01*
X-121953Y130941D01*
X-122021Y131671D01*
X-124368Y131836D01*
X-124905Y132373D01*
X-125005Y134995D01*
X-125000Y135000D01*
X-125005Y135005D01*
X-125017Y135307D01*
G02X-124343Y135614I400J15D01*
G03X-57025Y95580I124194J132221D01*
G02X-57151Y94800I-125J-380D01*
G01X-104895D01*
X-115873Y105778D01*
G02X-115590Y106461I283J283D01*
G01X-114758D01*
X-110833Y102536D01*
X-111063Y102306D01*
X-106714Y97957D01*
X-98189Y106482D01*
X-102538Y110830D01*
X-102768Y110601D01*
X-106693Y114526D01*
G37*
G36*
G01X-113119Y108711D02*
X-114822Y110414D01*
X-117898Y110525D01*
X-117606Y107461D01*
X-113119D01*
Y108711D01*
G37*
G36*
G01X-130709Y132878D02*
X-128743Y133016D01*
X-128654Y135331D01*
X-130970Y135243D01*
X-131108Y133277D01*
G03X-130709Y132878I491J93D01*
G37*
G36*
G01X-126372Y131461D02*
X-126516Y135243D01*
X-128799Y135354D01*
X-130970Y135243D01*
X-127206Y131139D01*
G03X-126372Y131461I336J370D01*
G37*
G36*
G01X-125762Y130003D02*
X-125624Y128037D01*
X-123169Y127809D01*
X-123397Y130264D01*
X-125363Y130402D01*
G03X-125762Y130003I93J-491D01*
G37*
G36*
G01X-133277Y131108D02*
X-135243Y130970D01*
X-135331Y128654D01*
X-133016Y128743D01*
X-132878Y130709D01*
G03X-133277Y131108I-491J-93D01*
G37*
G36*
G01X-135284Y141385D02*
X-135146Y139418D01*
X-132830Y139330D01*
X-132918Y141646D01*
X-134885Y141784D01*
G03X-135284Y141385I93J-491D01*
G37*
G36*
G01X-107693Y112887D02*
X-107694Y117374D01*
X-110757Y117666D01*
X-110646Y114590D01*
X-108943Y112887D01*
X-107693D01*
G37*
G36*
G01X-104926Y108512D02*
X-104765Y106482D01*
X-102317Y106261D01*
X-102538Y108709D01*
X-104568Y108869D01*
G03X-104926Y108512I687J-1044D01*
G37*
G36*
G01X-109101Y104336D02*
X-108941Y102306D01*
X-106493Y102085D01*
X-106714Y104533D01*
X-108744Y104693D01*
G03X-109101Y104336I687J-1044D01*
G37*
G36*
G01X-82792Y-59083D02*
X-83000Y-59500D01*
X-88500Y-76500D01*
X-91000Y-77500D01*
X-94500D01*
X-96000Y-75000D01*
X-93500Y-66500D01*
X-90000Y-58000D01*
X-89133Y-55745D01*
X-89107Y-55717D01*
G03X-88294Y-54359I-2917J2667D01*
G03X-88072Y-53025I-3730J1309D01*
G01X-88072Y-52987D01*
X-85000Y-45000D01*
X-81500Y-41500D01*
X-73500D01*
X-71000Y-47500D01*
X-75891Y-52000D01*
X-76000Y-52000D01*
X-76023Y-52014D01*
X-79095D01*
G03X-82855Y-58987I0J-4500D01*
G01X-82792Y-59083D01*
G37*
G36*
G01X-79722Y-6983D02*
X-80949Y-8472D01*
X-79374Y-10235D01*
X-77799Y-8472D01*
X-79026Y-6983D01*
G03X-79722I-348J-664D01*
G37*
G36*
G01X-79026Y-2016D02*
X-77799Y-528D01*
X-79374Y1235D01*
X-80949Y-528D01*
X-79722Y-2016D01*
G03X-79026I348J664D01*
G37*
G36*
G01X-85500Y34000D02*
X-87342Y38835D01*
G02X-86968Y39378I374J143D01*
G01X-80925D01*
Y39953D01*
X-79575D01*
Y39378D01*
X-73425D01*
Y39953D01*
X-72075D01*
Y39378D01*
X-67621D01*
X-65176Y36933D01*
G02X-65459Y36250I-283J-283D01*
G01X-67562D01*
X-69562Y34250D01*
X-79432D01*
X-79682Y34000D01*
X-85500D01*
G37*
G36*
G01X-79972Y54347D02*
Y55575D01*
X-87153D01*
Y56871D01*
X-87925Y57643D01*
Y64653D01*
X-86075D01*
Y63378D01*
X-79925D01*
Y64250D01*
X-78376D01*
G03X-78283Y64252I-2J2250D01*
G02X-78075Y64052I8J-200D01*
G01Y63472D01*
X-76800D01*
Y61528D01*
X-78075D01*
Y54347D01*
X-79972D01*
G37*
G36*
G01X-87849Y40166D02*
X-89500Y44500D01*
Y49425D01*
X-79972D01*
Y50747D01*
X-78075D01*
Y49472D01*
X-71925D01*
Y52576D01*
X-71802Y52700D01*
X-68506D01*
G02X-68219Y52021I0J-400D01*
G03X-66936Y48484I1499J-1458D01*
G01X-66757Y48465D01*
Y47949D01*
X-69178Y45528D01*
X-72075D01*
Y44953D01*
X-73425D01*
Y45528D01*
X-79575D01*
Y44953D01*
X-80925D01*
Y45528D01*
X-87075D01*
Y40308D01*
G02X-87849Y40166I-400J0D01*
G37*
G36*
G01X-80911Y42796D02*
X-82425Y44028D01*
X-84250Y42453D01*
X-82425Y40878D01*
X-80911Y42110D01*
G03Y42796I-939J343D01*
G37*
G36*
G01X-79589Y42110D02*
X-78075Y40878D01*
X-76250Y42453D01*
X-78075Y44028D01*
X-79589Y42796D01*
G03Y42110I939J-343D01*
G37*
G36*
G01X-68691Y60237D02*
X-69700Y61246D01*
Y69698D01*
X-71925Y71924D01*
Y75528D01*
X-77904D01*
X-78176Y75800D01*
X-79972D01*
Y77075D01*
X-81247D01*
Y78425D01*
X-79972D01*
Y84575D01*
X-86122D01*
Y78425D01*
X-84847D01*
Y77075D01*
X-86122D01*
Y70925D01*
X-79972D01*
Y72200D01*
X-79668D01*
X-78120Y70653D01*
X-78075D01*
Y68948D01*
G02X-78283Y68748I-200J0D01*
G03X-78376Y68750I-95J-2248D01*
G01X-79925D01*
Y69528D01*
X-86075D01*
Y68253D01*
X-87925D01*
Y69528D01*
X-89500D01*
Y87000D01*
X-85300Y91200D01*
X-58426D01*
Y86016D01*
X-67087D01*
Y83954D01*
X-67925D01*
Y84122D01*
X-74075D01*
Y77972D01*
X-70471D01*
X-66339Y73841D01*
X-64528D01*
Y70425D01*
X-63253D01*
Y70380D01*
X-61237Y68364D01*
Y66784D01*
G03X-61528Y65720I1800J-1064D01*
G01Y61193D01*
G03X-61515Y60957I2091J1D01*
G02X-61957Y60515I-397J-45D01*
G03X-62193Y60528I-236J-2078D01*
G01X-66720D01*
G03X-67740Y60263I0J-2091D01*
G01X-67785Y60237D01*
X-68691D01*
G37*
G36*
G01X-89292Y77061D02*
X-90528Y75575D01*
X-88953Y73825D01*
X-87378Y75575D01*
X-88613Y77061D01*
G03X-89292I-340J-612D01*
G37*
G36*
G01X-90836Y57921D02*
X-89776Y58972D01*
X-91000Y60622D01*
X-92224Y58972D01*
X-91164Y57921D01*
G03X-90836I164J251D01*
G37*
G36*
G01X-88613Y78439D02*
X-87378Y79925D01*
X-88953Y81675D01*
X-90528Y79925D01*
X-89292Y78439D01*
G03X-88613I340J612D01*
G37*
G36*
G01X-60316Y-67487D02*
X-61575Y-68972D01*
X-60000Y-70697D01*
X-58425Y-68972D01*
X-59684Y-67487D01*
G03X-60316I-316J-510D01*
G37*
G36*
G01X-57003Y-76185D02*
X-58425Y-74878D01*
X-60125Y-76453D01*
X-58425Y-78028D01*
X-57003Y-76721D01*
G03Y-76185I-422J268D01*
G37*
G36*
G01X-64500Y-39000D02*
X-48500D01*
X-44500Y-35000D01*
X-32000D01*
Y-39000D01*
X-32500Y-39500D01*
X-38500D01*
X-42000Y-43000D01*
Y-49500D01*
X-40000Y-51500D01*
Y-58500D01*
X-57000D01*
Y-54500D01*
X-64500Y-49000D01*
Y-39000D01*
G37*
G36*
G01X-62000Y-11500D02*
X-71500Y-2000D01*
Y2517D01*
G02X-71159Y2659I200J0D01*
G01X-71000Y2500D01*
X-40000D01*
X-38609Y1109D01*
X-38614Y1021D01*
G03X-38510Y239I2198J-106D01*
G01X-38500Y208D01*
Y-10000D01*
X-40000Y-11500D01*
X-62000D01*
G37*
G36*
G01X-63589Y-16296D02*
X-62075Y-17528D01*
X-60250Y-15953D01*
X-62075Y-14378D01*
X-63589Y-15610D01*
G03Y-16296I939J-343D01*
G37*
G36*
G01X-57411Y-15610D02*
X-58925Y-14378D01*
X-60750Y-15953D01*
X-58925Y-17528D01*
X-57411Y-16296D01*
G03Y-15610I-939J343D01*
G37*
G36*
G01X-66848D02*
X-68362Y-14378D01*
X-70187Y-15953D01*
X-68362Y-17528D01*
X-66848Y-16296D01*
G03Y-15610I-939J343D01*
G37*
G36*
G01X-21000Y7000D02*
X-23329Y5835D01*
X-23383Y5839D01*
G03X-23622Y5847I-237J-3658D01*
G01X-29134D01*
G03X-30690Y5500I0J-3666D01*
G01X-44000D01*
X-47988Y9931D01*
Y10028D01*
X-48075Y10028D01*
X-48500Y10500D01*
X-72500D01*
X-74500Y13000D01*
Y28500D01*
X-73000Y29500D01*
X-61500D01*
X-60000Y28000D01*
Y25083D01*
X-65587D01*
X-65587Y19917D01*
X-60000Y19917D01*
Y16000D01*
X-48000D01*
X-45150Y13783D01*
Y12764D01*
X-43839D01*
X-43500Y12500D01*
X-23000D01*
X-21000Y11000D01*
Y7000D01*
G37*
G36*
G01X-54121Y23000D02*
X-35379D01*
X-32379Y26000D01*
X2500D01*
G03X2746Y26005I0J5500D01*
G01X2834Y26009D01*
X13160Y15683D01*
G02X12877Y15000I-283J-283D01*
G01X-15500D01*
Y7344D01*
G02X-16183Y7062I-400J0D01*
G01X-19500Y10379D01*
Y11750D01*
X-22500Y14000D01*
X-42866D01*
X-42920Y14080D01*
X-44266Y14996D01*
X-47485Y17500D01*
X-48020D01*
Y21343D01*
X-54957D01*
Y21260D01*
X-56260D01*
G03X-57846Y20692I0J-2500D01*
G02X-58500Y21002I-254J309D01*
G01Y21417D01*
X-64086D01*
Y23583D01*
X-58500D01*
Y28621D01*
X-58649Y28771D01*
Y28823D01*
X-58701D01*
X-60879Y31000D01*
X-65482D01*
G02X-65765Y31683I0J400D01*
G01X-65698Y31750D01*
X-59984D01*
G03X-58000Y31000I1984J2250D01*
G01X-55500D01*
Y24379D01*
X-54121Y23000D01*
G37*
G36*
G01X-56904Y37147D02*
X-61841Y42084D01*
X-61671Y42255D01*
X-61632Y42270D01*
G03X-61511Y42323I-738J1859D01*
G02X-61252Y42241I86J-181D01*
G03X-57967Y41792I1815J1038D01*
G02X-57403Y41791I281J-284D01*
G01X-54996Y39383D01*
G02X-55015Y38799I-283J-283D01*
G01X-56904Y37147D01*
G37*
G36*
G01X-73411Y42796D02*
X-74925Y44028D01*
X-76750Y42453D01*
X-74925Y40878D01*
X-73411Y42110D01*
G03Y42796I-939J343D01*
G37*
G36*
G01X-72089Y42110D02*
X-70575Y40878D01*
X-68750Y42453D01*
X-70575Y44028D01*
X-72089Y42796D01*
G03Y42110I939J-343D01*
G37*
G36*
G01X-61982Y76575D02*
X-62848Y77441D01*
X-64848D01*
X-65015Y77608D01*
G02X-64732Y78291I283J283D01*
G01X-58574D01*
Y84984D01*
X-52483D01*
X-49075Y81576D01*
Y80518D01*
X-52152Y77441D01*
X-54152D01*
X-55018Y76575D01*
X-61982D01*
G37*
G36*
G01X-67917Y81236D02*
X-69425Y82622D01*
X-71075Y81047D01*
X-69425Y79472D01*
X-67917Y80859D01*
G03Y81236I-233J189D01*
G37*
G36*
G01X-47450Y-77768D02*
X-46028Y-79075D01*
X-44328Y-77500D01*
X-46028Y-75925D01*
X-47450Y-77232D01*
G03Y-77768I422J-268D01*
G37*
G36*
G01X-36472Y-75425D02*
X-40122Y-75925D01*
X-38647Y-77576D01*
X-36972Y-79075D01*
X-35979Y-76004D01*
G03X-36472Y-75425I-494J78D01*
G37*
G36*
G01X-49437Y-76171D02*
X-50925Y-74878D01*
X-52625Y-76453D01*
X-50925Y-78028D01*
X-49437Y-76735D01*
G03Y-76171I-413J282D01*
G37*
G36*
G01X-55497Y-76721D02*
X-54075Y-78028D01*
X-52375Y-76453D01*
X-54075Y-74878D01*
X-55497Y-76185D01*
G03Y-76721I422J-268D01*
G37*
G36*
G01X-56917Y-31500D02*
Y-25917D01*
X-56000Y-25000D01*
X-52500D01*
X-43000Y-15500D01*
X-39000D01*
X-32000Y-22500D01*
Y-28000D01*
X-35500Y-31500D01*
X-56917D01*
G37*
G36*
G01X-54152Y-16296D02*
X-52638Y-17528D01*
X-50813Y-15953D01*
X-52638Y-14378D01*
X-54152Y-15610D01*
G03Y-16296I939J-343D01*
G37*
G36*
G01X-50500Y39500D02*
X-36000D01*
X-33000Y36500D01*
Y27500D01*
X-36000Y24500D01*
X-53500D01*
X-54000Y25000D01*
Y36000D01*
X-50500Y39500D01*
G37*
G36*
G01X-48807Y48472D02*
X-44735D01*
X-43000Y46738D01*
Y44500D01*
X-46500Y41000D01*
X-50673D01*
X-51792Y42119D01*
G03X-51441Y43280I-1740J1160D01*
G01Y47807D01*
G03X-51523Y48389I-2091J1D01*
G01X-51532Y48416D01*
Y48569D01*
X-51015Y49085D01*
G03X-50947Y49157I-1416J1413D01*
G02X-50355Y49157I296J-269D01*
G03X-48807Y48472I1548J1406D01*
G37*
G36*
G01X-55500Y53165D02*
Y55565D01*
X-57124Y53941D01*
X-55924Y52741D01*
X-55500Y53165D01*
G37*
G36*
G01X-39957Y53003D02*
X-39811Y53148D01*
X-39806Y53152D01*
G03Y55848I-1194J1348D01*
G01X-39811Y55852D01*
X-39957Y55997D01*
X-39727Y56227D01*
G03X-39209Y57320I-1273J1273D01*
G01X-39191Y57500D01*
X-500D01*
Y37000D01*
X-31500D01*
Y37121D01*
X-35379Y41000D01*
X-43412D01*
G02X-43695Y41683I0J400D01*
G01X-41500Y43879D01*
Y45303D01*
G02X-41121Y45702I400J0D01*
G03X-39944Y48773I-96J1798D01*
G01X-40380Y49209D01*
G02X-40261Y49857I283J283D01*
G03X-39200Y51498I-739J1642D01*
G01Y51500D01*
G03X-39727Y52773I-1800J0D01*
G01X-39957Y53003D01*
G37*
G36*
G01X-43000Y72823D02*
Y62262D01*
X-44735Y60528D01*
X-48807D01*
G03X-49043Y60515I1J-2091D01*
G02X-49485Y60957I-45J397D01*
G03X-49472Y61193I-2078J236D01*
G01Y61657D01*
X-47798D01*
X-47227Y62227D01*
G03X-48872Y65261I-1273J1273D01*
G01X-48893Y65257D01*
X-49472D01*
Y65720D01*
G03X-52547Y67565I-2091J0D01*
G03X-54989Y67219I-984J-1845D01*
G02X-55668Y67506I-279J287D01*
G01Y68458D01*
X-53702Y70425D01*
X-52472D01*
Y73841D01*
X-50661D01*
X-46529Y77972D01*
X-43000D01*
Y76177D01*
G03Y72823I1500J-1677D01*
G37*
G36*
G01X-42131Y74095D02*
X-39598Y71538D01*
X-37442Y74500D01*
X-39598Y77462D01*
X-42131Y74905D01*
G03Y74095I631J-405D01*
G37*
G36*
G01X-55383Y70874D02*
X-54323Y71925D01*
X-55547Y73575D01*
X-56772Y71925D01*
X-55711Y70874D01*
G03X-55383I164J251D01*
G37*
G36*
G01X-46529Y84122D02*
X-49047Y86641D01*
Y86664D01*
X-49913Y87530D01*
Y89200D01*
X-45746D01*
X-43000Y86454D01*
Y84122D01*
X-46529D01*
G37*
G36*
G01X-6589Y-27890D02*
X-5075Y-29122D01*
X-3250Y-27547D01*
X-5075Y-25972D01*
X-6589Y-27204D01*
G03Y-27890I939J-343D01*
G37*
G36*
G01X-411Y-27204D02*
X-1925Y-25972D01*
X-3750Y-27547D01*
X-1925Y-29122D01*
X-411Y-27890D01*
G03Y-27204I-939J343D01*
G37*
G36*
G01X-8911D02*
X-10425Y-25972D01*
X-12250Y-27547D01*
X-10425Y-29122D01*
X-8911Y-27890D01*
G03Y-27204I-939J343D01*
G37*
G36*
G01X14779Y-33632D02*
X15339Y-34091D01*
X18170Y-33500D01*
X15339Y-32909D01*
X14779Y-33368D01*
G03Y-33632I269J-132D01*
G37*
G36*
G01X18297Y-29244D02*
Y-27547D01*
X16000D01*
X17697Y-29244D01*
X18297D01*
G37*
G36*
G01X8060Y-27232D02*
X6575Y-25972D01*
X4850Y-27547D01*
X6575Y-29122D01*
X8060Y-27863D01*
G03Y-27232I-510J316D01*
G37*
G36*
G01X1911Y-27890D02*
X3425Y-29122D01*
X5250Y-27547D01*
X3425Y-25972D01*
X1911Y-27204D01*
G03Y-27890I939J-343D01*
G37*
G36*
G01X14000Y-14046D02*
Y13877D01*
G02X14683Y14160I400J0D01*
G01X22047Y6796D01*
Y-6964D01*
X14683Y-14328D01*
G02X14000Y-14046I-283J283D01*
G37*
G36*
G01X13322Y26835D02*
X11686Y28471D01*
X21093Y37878D01*
X26575D01*
Y37953D01*
X27425D01*
Y37878D01*
X32200D01*
Y31746D01*
X30727Y30273D01*
G03X30323Y28346I1273J-1273D01*
G02X29950Y27800I-373J-145D01*
G01X15500D01*
G03X13950Y26915I0J-1800D01*
G02X13322Y26835I-345J203D01*
G37*
G36*
G01X5500Y36110D02*
Y39925D01*
X13689D01*
G02X13972Y39242I0J-400D01*
G01X9230Y34500D01*
X7110D01*
G03X5500Y36110I-4610J-3000D01*
G37*
G36*
G01X20425Y43953D02*
X18682D01*
X17869Y43140D01*
G02X17528Y43281I-141J141D01*
G01Y43529D01*
X22232Y48234D01*
X26575Y48590D01*
Y52076D01*
X26683Y52184D01*
X30715D01*
Y51884D01*
G03X33159Y50202I1800J0D01*
G01X33194Y50216D01*
X35136D01*
G02X35419Y49533I0J-400D01*
G01X30361Y44474D01*
X28450Y43953D01*
X26575D01*
Y44028D01*
X20425D01*
Y43953D01*
G37*
G36*
G01X5500Y46075D02*
Y55075D01*
X10984D01*
Y48959D01*
X10118Y48093D01*
Y47117D01*
X9076Y46075D01*
X5500D01*
G37*
G36*
G01X19392Y50485D02*
G02X18709Y50768I-283J283D01*
G01Y54925D01*
X12016D01*
Y61041D01*
X12882Y61907D01*
Y62883D01*
X13924Y63925D01*
X14982D01*
X19707Y59200D01*
X24254D01*
X26987Y56467D01*
G02X26704Y55784I-283J-283D01*
G01X25191D01*
X24029Y54622D01*
X20762D01*
X19806Y50899D01*
X19392Y50485D01*
G37*
G36*
G01X17528Y66471D02*
Y70075D01*
X11378D01*
Y66471D01*
X9281Y64374D01*
Y63587D01*
X5500D01*
Y66757D01*
X9790Y71047D01*
X26925D01*
Y70972D01*
X33075D01*
Y71047D01*
X34925D01*
Y70972D01*
X38683D01*
Y66117D01*
G02X38486Y65917I-200J0D01*
G03X36675Y62843I33J-2090D01*
G03Y60874I1845J-984D01*
G03Y58906I1845J-984D01*
G03X36429Y57950I1845J-984D01*
G01X36426Y57753D01*
X30793D01*
X25746Y62800D01*
X21198D01*
X17528Y66471D01*
G37*
G36*
G01X28412Y-69452D02*
X30047Y-70819D01*
X31639Y-69146D01*
X30047Y-67472D01*
X28412Y-68839D01*
G03Y-69452I1212J-306D01*
G37*
G36*
G01X37588Y-74548D02*
X35953Y-73181D01*
X34361Y-74854D01*
X35953Y-76528D01*
X37588Y-75161D01*
G03Y-74548I-1212J306D01*
G37*
G36*
G01X38157Y-39958D02*
X36925Y-41472D01*
X38500Y-43297D01*
X40075Y-41472D01*
X38843Y-39958D01*
G03X38157I-343J-939D01*
G37*
G36*
G01X41589Y-42704D02*
X40075Y-41472D01*
X38250Y-43047D01*
X40075Y-44622D01*
X41589Y-43390D01*
G03Y-42704I-939J343D01*
G37*
G36*
G01X25893Y-24254D02*
X25378Y-24839D01*
X25968Y-27720D01*
X26559Y-24839D01*
X26044Y-24254D01*
G03X25893I-76J-494D01*
G37*
G36*
G01X22351Y-35149D02*
Y-31851D01*
X25649D01*
Y-35149D01*
X22351D01*
G37*
G36*
G01X41000Y-36611D02*
Y-30464D01*
X31266Y-20730D01*
G02X31549Y-20047I283J283D01*
G01X35686D01*
X36392Y-20622D01*
X40608D01*
X41314Y-20047D01*
X42700D01*
Y-21747D01*
X42812Y-21859D01*
Y-32000D01*
G03X44048Y-33709I1800J0D01*
G02X44205Y-34372I-125J-380D01*
G01X41683Y-36894D01*
G02X41000Y-36611I-283J283D01*
G37*
G36*
G01X41563Y-9171D02*
X40075Y-7878D01*
X38375Y-9453D01*
X40075Y-11028D01*
X41563Y-9735D01*
G03Y-9171I-413J282D01*
G37*
G36*
G01X41589Y-17204D02*
X40075Y-15972D01*
X38250Y-17547D01*
X40075Y-19122D01*
X41589Y-17890D01*
G03Y-17204I-939J343D01*
G37*
G36*
G01X35411Y-17890D02*
X36925Y-19122D01*
X38750Y-17547D01*
X36925Y-15972D01*
X35411Y-17204D01*
G03Y-17890I939J-343D01*
G37*
G36*
G01X35437Y-3829D02*
X36925Y-5122D01*
X38625Y-3547D01*
X36925Y-1972D01*
X35437Y-3265D01*
G03Y-3829I413J-282D01*
G37*
G36*
G01X41872Y-7453D02*
X41321Y-6973D01*
G02X41452Y-6622I131J151D01*
G01X41575D01*
Y-472D01*
X36364D01*
X35128Y-1547D01*
X29047D01*
Y6453D01*
X41686D01*
X42392Y5878D01*
X46608D01*
X47314Y6453D01*
X49186D01*
X49892Y5878D01*
X55075D01*
Y9058D01*
X55638Y9620D01*
X59370D01*
Y7071D01*
X65571D01*
Y1300D01*
X56408D01*
X51553Y-3555D01*
X46457D01*
G03X44059Y-5522I0J-2445D01*
G01X44047Y-5581D01*
X42175Y-7453D01*
X41872D01*
G37*
G36*
G01X31454Y43217D02*
X28925Y42528D01*
X30424Y40823D01*
X32075Y42528D01*
X31564Y43211D01*
G03X31454Y43217I-89J-593D01*
G37*
G36*
G01X21425Y49672D02*
X25075Y49972D01*
X23560Y51592D01*
X21925Y53122D01*
X21129Y50019D01*
G03X21425Y49672I296J-47D01*
G37*
G36*
G01X40924Y-82252D02*
X42472Y-83575D01*
X44360Y-82000D01*
X42472Y-80425D01*
X40924Y-81748D01*
G03Y-82252I1224J-252D01*
G37*
G36*
G01X53076Y-81748D02*
X51528Y-80425D01*
X49640Y-82000D01*
X51528Y-83575D01*
X53076Y-82252D01*
G03Y-81748I-1224J252D01*
G37*
G36*
G01X40924Y-61252D02*
X42472Y-62575D01*
X44360Y-61000D01*
X42472Y-59425D01*
X40924Y-60748D01*
G03Y-61252I1224J-252D01*
G37*
G36*
G01X53076Y-60748D02*
X51528Y-59425D01*
X49640Y-61000D01*
X51528Y-62575D01*
X53076Y-61252D01*
G03Y-60748I-1224J252D01*
G37*
G36*
G01X57679Y-71752D02*
X59228Y-73075D01*
X61313Y-71500D01*
X59228Y-69925D01*
X57679Y-71248D01*
G03Y-71752I1224J-252D01*
G37*
G36*
G01X53076Y-71248D02*
X51528Y-69925D01*
X49640Y-71500D01*
X51528Y-73075D01*
X53076Y-71752D01*
G03Y-71248I-1224J252D01*
G37*
G36*
G01X42911Y-43390D02*
X44425Y-44622D01*
X46250Y-43047D01*
X44425Y-41472D01*
X42911Y-42704D01*
G03Y-43390I939J-343D01*
G37*
G36*
G01X45228Y-39289D02*
X50256Y-34262D01*
X53457D01*
Y-34351D01*
X56935D01*
Y-35090D01*
X53457D01*
Y-35179D01*
X50898D01*
X46105Y-39972D01*
X45511D01*
G02X45228Y-39289I0J400D01*
G37*
G36*
G01X46412Y-31199D02*
Y-20367D01*
X46300Y-20255D01*
Y-19000D01*
G03X46298Y-18918I-1800J-1D01*
G02X46698Y-18500I400J18D01*
G01X52689D01*
X56253Y-14937D01*
G02X56936Y-15228I283J-283D01*
G03X56935Y-15265I1800J-38D01*
G01Y-29972D01*
X53457D01*
Y-30061D01*
X48516D01*
X47095Y-31482D01*
G02X46412Y-31199I-283J283D01*
G37*
G36*
G01X47589Y9296D02*
X46075Y10528D01*
X44250Y8953D01*
X46075Y7378D01*
X47589Y8610D01*
G03Y9296I-939J343D01*
G37*
G36*
G01X41411Y8610D02*
X42925Y7378D01*
X44750Y8953D01*
X42925Y10528D01*
X41411Y9296D01*
G03Y8610I939J-343D01*
G37*
G36*
G01X48911D02*
X50425Y7378D01*
X52250Y8953D01*
X50425Y10528D01*
X48911Y9296D01*
G03Y8610I939J-343D01*
G37*
G36*
G01X50404Y74688D02*
G02X49773Y75015I-231J327D01*
G01Y75914D01*
X55406Y81547D01*
X61536D01*
G02X61818Y80864I0J-400D01*
G01X58365Y77411D01*
G02X57735Y77495I-283J283D01*
G03X54586Y77914I-1735J-995D01*
G01X53547Y76876D01*
Y75079D01*
X53367Y75060D01*
G03X52594Y74825I211J-2080D01*
G03X50404Y74688I-984J-1845D01*
G37*
G36*
G01X62693Y-39691D02*
X62043Y-39150D01*
X61279Y-39839D01*
X62043Y-40528D01*
X62693Y-39986D01*
G03Y-39691I-261J148D01*
G37*
G36*
G01Y-37132D02*
X62043Y-36591D01*
X61279Y-37280D01*
X62043Y-37968D01*
X62693Y-37427D01*
G03Y-37132I-261J148D01*
G37*
G36*
G01Y-34573D02*
X62043Y-34032D01*
X61279Y-34720D01*
X62043Y-35409D01*
X62693Y-34868D01*
G03Y-34573I-261J148D01*
G37*
G36*
G01X65154Y-33044D02*
G03X64500Y-32920I-655J-1677D01*
G01X63053D01*
X62586Y-32531D01*
X60536D01*
Y-15265D01*
G03X60148Y-14148I-1800J0D01*
G02X60462Y-13500I314J248D01*
G01X65320D01*
G02X65717Y-13955I0J-400D01*
G03X65700Y-14201I1783J-246D01*
G01Y-32671D01*
G02X65154Y-33044I-400J0D01*
G37*
G36*
G01X60310Y14147D02*
X60870Y13689D01*
X62520Y14279D01*
X60870Y14870D01*
X60310Y14412D01*
G03Y14147I269J-132D01*
G37*
G36*
G01Y16706D02*
X60870Y16248D01*
X62520Y16839D01*
X60870Y17429D01*
X60310Y16971D01*
G03Y16706I269J-132D01*
G37*
G36*
G01X70088Y6080D02*
X69630Y5520D01*
X70221Y3870D01*
X70811Y5520D01*
X70353Y6080D01*
G03X70088I-132J-269D01*
G37*
G36*
G01X72704Y6104D02*
X72189Y5520D01*
X72780Y3820D01*
X73370Y5520D01*
X72855Y6104D01*
G03X72704I-76J-494D01*
G37*
G36*
G01X65563Y21866D02*
X67071Y20480D01*
X67736Y22055D01*
X67071Y23630D01*
X65563Y22244D01*
G03Y21866I233J-189D01*
G37*
G36*
G01X78317Y66117D02*
Y66387D01*
X76500Y68204D01*
Y77383D01*
G02X77009Y77768I400J0D01*
G03X77500Y77700I491J1732D01*
G01X77725D01*
G02X78048Y77064I0J-400D01*
G03X79500Y74200I1453J-1063D01*
G01X87687D01*
X88767Y75280D01*
G02X89450Y74997I283J-283D01*
G01Y70496D01*
X80644Y61690D01*
X80266D01*
G02X79979Y62369I0J400D01*
G03X78514Y65917I-1499J1458D01*
G02X78317Y66117I3J200D01*
G37*
G36*
G01X74343Y81458D02*
X75575Y82972D01*
X74000Y84797D01*
X72425Y82972D01*
X73657Y81458D01*
G03X74343I343J939D01*
G37*
G36*
G01X174503Y-155699D02*
G02X155400Y-174802I543J-19646D01*
G03X124701Y-136533I-155550J-93332D01*
G01X124634Y-136470D01*
X124649Y-136178D01*
X125364Y-136213D01*
X128243Y-139092D01*
X131123Y-136212D01*
X131874Y-136173D01*
X132001Y-134355D01*
G02X132629Y-134055I399J-28D01*
G03X134367Y-134235I1031J1476D01*
G01X134405Y-134219D01*
X136046D01*
X137909Y-135757D01*
X138919Y-136767D01*
X143473Y-132213D01*
X143614Y-132346D01*
G03X174503Y-155699I124221J132196D01*
G37*
G36*
G01X130209Y-132378D02*
X128243Y-132516D01*
X128154Y-134831D01*
X130470Y-134743D01*
X130608Y-132777D01*
G03X130209Y-132378I-491J-93D01*
G37*
G36*
G01X125872Y-130961D02*
X126016Y-134743D01*
X128299Y-134854D01*
X130470Y-134743D01*
X126706Y-130639D01*
G03X125872Y-130961I-336J-370D01*
G37*
G36*
G01X125262Y-129503D02*
X125124Y-127537D01*
X122669Y-127309D01*
X122897Y-129764D01*
X124863Y-129902D01*
G03X125262Y-129503I-93J491D01*
G37*
G36*
G01X132777Y-130608D02*
X134743Y-130470D01*
X134831Y-128154D01*
X132516Y-128243D01*
X132378Y-130209D01*
G03X132777Y-130608I491J93D01*
G37*
G36*
G01X155400Y174503D02*
G02X174503Y155400I19646J543D01*
G03X137219Y125731I93332J-155549D01*
G01X137156Y125666D01*
X136865Y125680D01*
X136882Y126034D01*
X139761Y128912D01*
X136881Y131792D01*
X136842Y132543D01*
X134442Y132711D01*
X134165Y132988D01*
G02X134201Y133585I283J283D01*
G03X134888Y135000I-1113J1415D01*
G01Y136716D01*
X136427Y138578D01*
X137437Y139588D01*
X133088Y143937D01*
X130218Y141067D01*
X129882Y141056D01*
X129873Y141341D01*
X129932Y141402D01*
G03X155400Y174503I-130082J126433D01*
G37*
G36*
G01X133047Y130878D02*
X133185Y128912D01*
X135500Y128824D01*
X135412Y131139D01*
X133446Y131277D01*
G03X133047Y130878I92J-491D01*
G37*
G36*
G01X131631Y126541D02*
X135412Y126685D01*
X135524Y128968D01*
X135412Y131139D01*
X131308Y127376D01*
G03X131631Y126541I370J-337D01*
G37*
G36*
G01X130172Y125932D02*
X128206Y125793D01*
X127978Y123339D01*
X130433Y123566D01*
X130571Y125533D01*
G03X130172Y125932I-491J-93D01*
G37*
G36*
G01X131277Y133446D02*
X131139Y135412D01*
X128824Y135500D01*
X128912Y133185D01*
X130878Y133047D01*
G03X131277Y133446I-92J491D01*
G37*
G36*
G01X133300Y137149D02*
X135315Y139588D01*
X133088Y139663D01*
X130861Y139588D01*
X132876Y137149D01*
G03X133300I212J212D01*
G37*
G36*
G01X136480Y-132631D02*
X138918Y-134646D01*
X138994Y-132418D01*
X138918Y-130191D01*
X136480Y-132206D01*
G03Y-132631I212J-212D01*
G37*
%LPC*%
G75*
G36*
G01X109554Y101262D02*
X106651Y98359D01*
X98126Y106883D01*
X102475Y111232D01*
X102705Y111002D01*
X106630Y114928D01*
Y117775D01*
G02X113956Y119837I3953J0D01*
G03X114580Y119762I341J209D01*
G01X117588Y122770D01*
G02X119024Y123638I2475J-2475D01*
G01X119072Y123653D01*
X120202Y124783D01*
X121497Y123488D01*
G02X123256Y121730I-1434J-3193D01*
G01X124551Y120434D01*
X123420Y119304D01*
X123406Y119257D01*
G02X122538Y117820I-3343J1039D01*
G01X121043Y116325D01*
Y112653D01*
G02X117488Y106863I-3500J-1837D01*
G01X114696D01*
X110369Y102537D01*
X110274Y101327D01*
X109554Y101262D01*
G37*
G36*
G01X83630Y9630D02*
X77480D01*
Y13811D01*
X81778D01*
X82130Y13689D01*
X82269Y13811D01*
X83630D01*
Y9630D01*
G37*
G36*
G01X72443Y-93945D02*
X70668Y-95488D01*
X70104Y-95020D01*
X65602D01*
Y-88870D01*
X72146D01*
Y-89686D01*
X72443Y-89945D01*
X76859D01*
X77395Y-89452D01*
X78047Y-88702D01*
Y-86909D01*
X76972Y-85673D01*
Y-80462D01*
X82499D01*
G03X82862Y-79896I0J400D01*
G02X82786Y-78597I1638J748D01*
G03X82405Y-78075I-381J122D01*
G01X77888D01*
X76718Y-77000D01*
X76644D01*
X76589Y-76945D01*
X72443D01*
X70668Y-78488D01*
X70104Y-78020D01*
X65602D01*
Y-71870D01*
X72146D01*
Y-72686D01*
X72443Y-72945D01*
X76778D01*
X77395Y-72378D01*
X78047Y-71628D01*
Y-69835D01*
X76972Y-68599D01*
Y-63388D01*
X82499D01*
G03X82862Y-62822I0J400D01*
G02X82786Y-61523I1638J748D01*
G03X82405Y-61001I-381J122D01*
G01X77888D01*
X76739Y-59945D01*
X72443D01*
X70668Y-61488D01*
X70104Y-61020D01*
X65602D01*
Y-54870D01*
X72146D01*
Y-55686D01*
X72443Y-55945D01*
X76625D01*
X76644Y-55926D01*
X76718D01*
X77395Y-55303D01*
X78047Y-54554D01*
Y-52761D01*
X76972Y-51525D01*
Y-46314D01*
X82499D01*
G03X82862Y-45748I0J400D01*
G02X85773Y-43727I1638J748D01*
G01X87753Y-45707D01*
Y-45843D01*
X89028Y-47229D01*
Y-52464D01*
X82878D01*
Y-52341D01*
G03X82527Y-52210I-200J0D01*
G01X82047Y-52761D01*
Y-54554D01*
X83122Y-55790D01*
Y-60103D01*
G03X83700Y-60461I400J0D01*
G02X85773Y-60801I800J-1613D01*
G01X87753Y-62781D01*
Y-62917D01*
X89028Y-64303D01*
Y-69538D01*
X82878D01*
Y-69415D01*
G03X82527Y-69284I-200J0D01*
G01X82047Y-69835D01*
Y-71628D01*
X83122Y-72864D01*
Y-77177D01*
G03X83700Y-77535I400J0D01*
G02X85773Y-77875I800J-1613D01*
G01X87753Y-79855D01*
Y-79991D01*
X89028Y-81377D01*
Y-86612D01*
X82878D01*
Y-86489D01*
G03X82527Y-86358I-200J0D01*
G01X82047Y-86909D01*
Y-88702D01*
X83122Y-89938D01*
Y-95149D01*
X77888D01*
X76718Y-94074D01*
X76644D01*
X76515Y-93945D01*
X72443D01*
G37*
G36*
G01X121060Y-122587D02*
X119765Y-123882D01*
X118634Y-122751D01*
X118587Y-122736D01*
G02X117151Y-121869I1039J3343D01*
G01X115656Y-120374D01*
X111983D01*
G02X106213Y-116478I-1837J3500D01*
G01X106214Y-116467D01*
Y-113693D01*
X102260Y-109740D01*
X100634Y-109572D01*
X100583Y-108875D01*
X97689Y-105982D01*
X106214Y-97457D01*
X110563Y-101806D01*
X110202Y-102166D01*
X113997Y-105961D01*
X117106D01*
G02X119167Y-113287I0J-3953D01*
G03X119093Y-113911I209J-341D01*
G01X122101Y-116919D01*
G02X122968Y-118355I-2475J-2475D01*
G01X122983Y-118402D01*
X124114Y-119533D01*
X122819Y-120828D01*
G02X121060Y-122587I-3193J1434D01*
G37*
G36*
G01X-118402Y-122983D02*
X-119533Y-124114D01*
X-120828Y-122819D01*
X-120860Y-122804D01*
G02X-122587Y-121060I1466J3178D01*
G01X-123882Y-119765D01*
X-122751Y-118634D01*
X-122736Y-118587D01*
G02X-121869Y-117151I3343J-1039D01*
G01X-120374Y-115656D01*
Y-111983D01*
G02X-116874Y-106193I3500J1837D01*
G01X-114082D01*
X-110334Y-102444D01*
G02X-109989Y-102152I1945J-1945D01*
G01X-109976Y-102142D01*
X-109700Y-101867D01*
X-109605Y-100658D01*
X-108885Y-100593D01*
X-105982Y-97689D01*
X-97457Y-106214D01*
X-101806Y-110563D01*
X-102036Y-110333D01*
X-105961Y-114258D01*
Y-117106D01*
G02X-113287Y-119167I-3953J0D01*
G03X-113911Y-119093I-341J-209D01*
G01X-116919Y-122101D01*
G02X-118355Y-122968I-2475J2475D01*
G01X-118402Y-122983D01*
G37*
G54D54*
X-175197Y-175197D03*
X175197D03*
G54D55*
X-175197Y175197D03*
X175197D03*
%LPD*%
G75*
G36*
G01X-140885Y-134784D02*
X-138918Y-134646D01*
X-138830Y-132330D01*
X-141146Y-132418D01*
X-141284Y-134385D01*
G03X-140885Y-134784I491J93D01*
G37*
G36*
G01X-112443Y-107193D02*
X-116874D01*
X-117165Y-110258D01*
X-114146Y-110146D01*
X-112443Y-108443D01*
Y-107193D01*
G37*
G36*
G01X-108211Y-112619D02*
X-109914Y-114322D01*
X-110025Y-117398D01*
X-106961Y-117106D01*
Y-112619D01*
X-108211D01*
G37*
G36*
G01X-108012Y-104426D02*
X-105982Y-104265D01*
X-105761Y-101817D01*
X-108209Y-102038D01*
X-108369Y-104068D01*
G03X-108012Y-104426I1044J687D01*
G37*
G36*
G01X-103836Y-108601D02*
X-101806Y-108441D01*
X-101585Y-105993D01*
X-104033Y-106214D01*
X-104193Y-108244D01*
G03X-103836Y-108601I1044J687D01*
G37*
G36*
G01X-76285Y-15610D02*
X-77799Y-14378D01*
X-79624Y-15953D01*
X-77799Y-17528D01*
X-76285Y-16296D01*
G03Y-15610I-939J343D01*
G37*
G36*
G01X-52815Y-67489D02*
X-54075Y-68972D01*
X-52500Y-70697D01*
X-50925Y-68972D01*
X-52185Y-67489D01*
G03X-52815I-315J-511D01*
G37*
G36*
G01X-47971Y-70319D02*
X-46028Y-72075D01*
X-44305Y-70526D01*
X-46028Y-68925D01*
X-47830Y-69492D01*
G03X-47971Y-70319I352J-486D01*
G37*
G36*
G01X-49684Y87711D02*
X-47575Y85592D01*
X-45881Y86915D01*
X-47575Y88528D01*
X-49424Y88478D01*
G03X-49684Y87711I148J-478D01*
G37*
G36*
G01X35440Y-49269D02*
X36925Y-50528D01*
X38650Y-48953D01*
X36925Y-47378D01*
X35440Y-48637D01*
G03Y-49269I510J-316D01*
G37*
G36*
G01X26075Y33425D02*
X25075Y36622D01*
X23326Y35227D01*
X21925Y33472D01*
X25060Y32425D01*
G03X26075Y33425I15J1000D01*
G37*
G36*
G01X42940Y-49269D02*
X44425Y-50528D01*
X46150Y-48953D01*
X44425Y-47378D01*
X42940Y-48637D01*
G03Y-49269I510J-316D01*
G37*
G36*
G01X72194Y-84803D02*
X70646Y-83480D01*
X68561Y-85055D01*
X70646Y-86630D01*
X72194Y-85308D01*
G03Y-84803I-1224J252D01*
G37*
G36*
G01X77050Y-92342D02*
X78472Y-93649D01*
X80172Y-92074D01*
X78472Y-90499D01*
X77050Y-91806D01*
G03Y-92342I422J-268D01*
G37*
G36*
G01X72134Y-91663D02*
X70646Y-90370D01*
X68749Y-91945D01*
X70646Y-93520D01*
X72134Y-92227D01*
G03Y-91663I-413J282D01*
G37*
G36*
G01X72194Y-67803D02*
X70646Y-66480D01*
X68561Y-68055D01*
X70646Y-69630D01*
X72194Y-68308D01*
G03Y-67803I-1224J252D01*
G37*
G36*
G01X77050Y-75268D02*
X78472Y-76575D01*
X80172Y-75000D01*
X78472Y-73425D01*
X77050Y-74732D01*
G03Y-75268I422J-268D01*
G37*
G36*
G01X72134Y-74663D02*
X70646Y-73370D01*
X68749Y-74945D01*
X70646Y-76520D01*
X72134Y-75227D01*
G03Y-74663I-413J282D01*
G37*
G36*
G01Y-57663D02*
X70646Y-56370D01*
X68749Y-57945D01*
X70646Y-59520D01*
X72134Y-58227D01*
G03Y-57663I-413J282D01*
G37*
G36*
G01X72194Y-50803D02*
X70646Y-49480D01*
X68561Y-51055D01*
X70646Y-52630D01*
X72194Y-51308D01*
G03Y-50803I-1224J252D01*
G37*
G36*
G01X77050Y-58194D02*
X78472Y-59501D01*
X80172Y-57926D01*
X78472Y-56351D01*
X77050Y-57658D01*
G03Y-58194I422J-268D01*
G37*
G36*
G01X85764Y-80454D02*
X84378Y-81962D01*
X85953Y-83612D01*
X87528Y-81962D01*
X86141Y-80454D01*
G03X85764I-189J-233D01*
G37*
G36*
G01X85637Y-89014D02*
X84378Y-90499D01*
X85953Y-92224D01*
X87528Y-90499D01*
X86268Y-89014D01*
G03X85637I-316J-510D01*
G37*
G36*
G01X79765Y-89011D02*
X78472Y-90499D01*
X80047Y-92199D01*
X81622Y-90499D01*
X80329Y-89011D01*
G03X79765I-282J-413D01*
G37*
G36*
G01X80329Y-86600D02*
X81622Y-85112D01*
X80047Y-83412D01*
X78472Y-85112D01*
X79765Y-86600D01*
G03X80329I282J413D01*
G37*
G36*
G01X85764Y-63380D02*
X84378Y-64888D01*
X85953Y-66538D01*
X87528Y-64888D01*
X86141Y-63380D01*
G03X85764I-189J-233D01*
G37*
G36*
G01X85637Y-71940D02*
X84378Y-73425D01*
X85953Y-75150D01*
X87528Y-73425D01*
X86268Y-71940D01*
G03X85637I-316J-510D01*
G37*
G36*
G01X79765Y-71937D02*
X78472Y-73425D01*
X80047Y-75125D01*
X81622Y-73425D01*
X80329Y-71937D01*
G03X79765I-282J-413D01*
G37*
G36*
G01X80329Y-69526D02*
X81622Y-68038D01*
X80047Y-66338D01*
X78472Y-68038D01*
X79765Y-69526D01*
G03X80329I282J413D01*
G37*
G36*
G01X85764Y-46306D02*
X84378Y-47814D01*
X85953Y-49464D01*
X87528Y-47814D01*
X86141Y-46306D01*
G03X85764I-189J-233D01*
G37*
G36*
G01X85637Y-54866D02*
X84378Y-56351D01*
X85953Y-58076D01*
X87528Y-56351D01*
X86268Y-54866D01*
G03X85637I-316J-510D01*
G37*
G36*
G01X79765Y-54863D02*
X78472Y-56351D01*
X80047Y-58051D01*
X81622Y-56351D01*
X80329Y-54863D01*
G03X79765I-282J-413D01*
G37*
G36*
G01X80329Y-52452D02*
X81622Y-50964D01*
X80047Y-49264D01*
X78472Y-50964D01*
X79765Y-52452D01*
G03X80329I282J413D01*
G37*
G36*
G01X82715Y9237D02*
X82130Y9752D01*
X80430Y9161D01*
X82130Y8571D01*
X82715Y9086D01*
G03Y9237I-494J76D01*
G37*
G36*
G01X78396Y9086D02*
X78980Y8571D01*
X80680Y9161D01*
X78980Y9752D01*
X78396Y9237D01*
G03Y9086I494J-76D01*
G37*
G36*
G01X107214Y-112158D02*
Y-116853D01*
X110241Y-117105D01*
X110146Y-114090D01*
X108214Y-112158D01*
X107214D01*
G37*
G36*
G01X104465Y-107923D02*
X104265Y-105982D01*
X101861Y-105805D01*
X102038Y-108209D01*
X103980Y-108408D01*
G03X104465Y-107923I-422J907D01*
G37*
G36*
G01X112461Y-107961D02*
X114414Y-109914D01*
X117336Y-110011D01*
X117106Y-106961D01*
X112461D01*
Y-107961D01*
G37*
G36*
G01X108641Y-103748D02*
X108441Y-101806D01*
X106037Y-101629D01*
X106214Y-104033D01*
X108156Y-104232D01*
G03X108641Y-103748I-421J907D01*
G37*
G36*
G01X113056Y107863D02*
X117543D01*
X117835Y110926D01*
X114759Y110815D01*
X113056Y109113D01*
Y107863D01*
G37*
G36*
G01X108681Y105095D02*
X106651Y104935D01*
X106430Y102486D01*
X108878Y102708D01*
X109038Y104738D01*
G03X108681Y105095I-1044J-687D01*
G37*
G36*
G01X108880Y113289D02*
X110583Y114991D01*
X110694Y118067D01*
X107630Y117775D01*
Y113289D01*
X108880D01*
G37*
G36*
G01X104506Y109270D02*
X102475Y109110D01*
X102254Y106662D01*
X104702Y106883D01*
X104863Y108913D01*
G03X104506Y109270I-1044J-687D01*
G37*
G36*
G01X134784Y-140885D02*
X134646Y-138918D01*
X132330Y-138830D01*
X132418Y-141146D01*
X134385Y-141284D01*
G03X134784Y-140885I-93J491D01*
G37*
G36*
G01X141554Y135453D02*
X139588Y135315D01*
X139500Y133000D01*
X141815Y133088D01*
X141953Y135054D01*
G03X141554Y135453I-491J-92D01*
G37*
G54D10*
X-142000Y-135500D03*
X-139500Y139500D03*
X-136000Y142500D03*
X-129676Y127176D03*
X-99500Y113000D03*
X-88500Y-106000D03*
X-78043Y47500D03*
X-79500Y57047D03*
Y70500D03*
X-77000Y86500D03*
X-76500Y81500D03*
X-83000Y86000D03*
X-71000Y-94500D03*
X-66500Y-74500D03*
Y-69500D03*
X-59500Y-34000D03*
X-74000Y-15953D03*
X-73953Y-10500D03*
X-65000Y7000D03*
X-72678Y38981D03*
X-57468Y40000D03*
X-57000Y22500D03*
X-74000Y47500D03*
X-70000Y49000D03*
X-68500Y73500D03*
X-66000Y63000D03*
X-58500Y78000D03*
X-67830Y84870D03*
X-50978Y-66478D03*
X-55500Y7000D03*
X-47500Y45543D03*
X-39000Y43000D03*
X-47000Y71000D03*
X-52000Y69500D03*
X0Y-20500D03*
X-9000D03*
X-3500Y47500D03*
Y52000D03*
X18000Y500D03*
X9000Y37500D03*
X19210Y54500D03*
X34047Y-48953D03*
X24000Y-33500D03*
X26976Y31524D03*
X32500Y48411D03*
X42547Y-48953D03*
X55000Y-19500D03*
X52366Y77134D03*
X74000Y-83500D03*
Y-66500D03*
Y-49500D03*
X67358Y29858D03*
X96000Y-109500D03*
X84500Y-87648D03*
Y-70574D03*
Y-53500D03*
X84339Y9161D03*
X84280Y14279D03*
X83000Y71000D03*
X82000Y64500D03*
X84000Y103000D03*
X100000Y-91000D03*
X109000Y96500D03*
X115500Y126000D03*
X135000Y-141500D03*
X125500Y-115000D03*
X125000Y116500D03*
X142500Y136000D03*
G54D11*
X-138919Y-132419D03*
X-134743Y-128243D03*
X-135243Y128743D03*
X-139419Y132919D03*
X-128243Y-134743D03*
X-132419Y-138919D03*
X-128743Y135243D03*
X-132919Y139419D03*
X-105982Y-102038D03*
X-101806Y-106214D03*
X-102538Y106482D03*
X-106714Y102306D03*
X102038Y-105982D03*
X106214Y-101806D03*
X106651Y102707D03*
X102475Y106883D03*
X132419Y-138919D03*
X128243Y-134743D03*
X134743Y-128243D03*
X128912Y135412D03*
X135412Y128912D03*
X133088Y139588D03*
X138919Y-132419D03*
X139588Y133088D03*
G54D20*
X-59437Y45543D03*
Y63457D03*
X-51563Y45543D03*
X-53532D03*
X-55500D03*
X-57468D03*
Y63457D03*
X-55500D03*
X-53532D03*
X-51563D03*
X57516Y35284D03*
X55547D03*
X53579D03*
X51610D03*
X49642D03*
X47673D03*
Y70716D03*
X49642D03*
X51610D03*
X53579D03*
X55547D03*
X57516D03*
X69327Y35284D03*
X67358D03*
X65390D03*
X63421D03*
X61453D03*
X59484D03*
Y70716D03*
X61453D03*
X63421D03*
X65390D03*
X67358D03*
X69327D03*
G54D30*
X14847Y59331D03*
Y50669D03*
X8154Y59331D03*
Y50669D03*
G54D21*
X-64457Y50563D03*
Y52532D03*
Y54500D03*
Y56468D03*
Y58437D03*
X-46543D03*
Y56468D03*
Y54500D03*
Y52532D03*
Y50563D03*
X40784Y42173D03*
Y44142D03*
Y46110D03*
Y48079D03*
Y50047D03*
Y52016D03*
Y53984D03*
Y55953D03*
Y57921D03*
Y59890D03*
Y61858D03*
Y63827D03*
X76216Y57921D03*
Y55953D03*
Y53984D03*
Y52016D03*
Y50047D03*
Y48079D03*
Y46110D03*
Y44142D03*
Y42173D03*
Y63827D03*
Y61858D03*
Y59890D03*
G54D12*
X-122526Y-127630D03*
X-127397Y-122758D03*
X-119394Y-119626D03*
X123195Y128299D03*
X128067Y123427D03*
X120063Y120295D03*
G54D40*
G01X-138919Y-132419D02*
X-142000Y-135500D01*
G01X-132919Y139419D02*
X-136000Y142500D01*
G01X-134743Y-128243D02*
X-128243Y-134743D01*
G01X-127397Y-122758D02*
X-132882Y-128243D01*
X-134743D01*
G01X-128743Y135243D02*
X-135243Y128743D01*
G01X-123258Y127897D02*
X-128743Y133382D01*
Y135243D01*
G01X-60000Y-76453D02*
X-57425D01*
X-56903Y-75930D01*
X-55597D01*
X-55075Y-76453D01*
X-52500D01*
G01X-59437Y45543D02*
X-60957D01*
X-62371Y44129D01*
G01X-58500Y78000D02*
Y78216D01*
X-54563Y82154D01*
X-54169D01*
G01X-71000Y86953D02*
X-68833Y84785D01*
G01X-63224Y88846D02*
X-63854D01*
G01X-68215Y84785D02*
X-68833D01*
G01X-68130Y84870D02*
X-68215Y84785D01*
G01X-63854Y88846D02*
X-67830Y84870D01*
G01X-63854Y88846D02*
G01X-67830Y84870D02*
X-68130D01*
G01X-52500Y-76453D02*
X-49577D01*
X-49052Y-76978D01*
X-47550D01*
X-47028Y-77500D01*
X-44453D01*
G01X-38547D02*
X-40572Y-75475D01*
Y-72525D01*
X-38547Y-70500D01*
G01X-53516Y50516D02*
Y49984D01*
X-53532Y49968D01*
Y45543D01*
G01X-46000Y86953D02*
Y87000D01*
X-47000Y88000D01*
X-49276D01*
G01X-38547Y-77500D02*
X-38025Y-76978D01*
X-37525D01*
X-36025Y-75478D01*
X-35332D01*
G01X25968Y-27594D02*
Y-23500D01*
X24500Y-22032D01*
X24500Y-22000D01*
G01X49055Y-6000D02*
X46457D01*
X43004Y-9453D01*
X38500D01*
G01Y-3547D02*
X25594D01*
X25547Y-3500D01*
G01X20500Y21000D02*
X39013D01*
X49642Y31629D01*
Y35284D01*
G01X55547Y70716D02*
Y76047D01*
X56000Y76500D01*
G01X68874Y-91945D02*
X77343D01*
X77472Y-92074D01*
X80047D01*
G01X68874Y-74945D02*
X77417D01*
X77472Y-75000D01*
X80047D01*
G01X68874Y-57945D02*
X77454D01*
X77472Y-57926D01*
X80047D01*
G01X72780Y3945D02*
Y6520D01*
X75421Y9161D01*
X80555D01*
G01X80047Y-83537D02*
Y-92074D01*
G01Y-66463D02*
Y-75000D01*
G01Y-49389D02*
Y-57926D01*
G01X80555Y9161D02*
X84339D01*
G01X80555Y14279D02*
X84280D01*
G01X132419Y-138919D02*
X135000Y-141500D01*
G01X128243Y-134743D02*
X134743Y-128243D01*
G01X122758Y-127397D02*
X128243Y-132882D01*
Y-134743D01*
G01X135412Y128912D02*
X128912Y135412D01*
G01X128067Y123427D02*
X128066Y123427D01*
X133552Y128912D01*
X135412D01*
G01X139588Y133088D02*
X142500Y136000D01*
G54D31*
X34673Y-74854D03*
X31327D03*
X34673Y-69146D03*
X31327D03*
G54D22*
X-62831Y88846D03*
Y82154D03*
X-54169Y88846D03*
Y82154D03*
G54D13*
X-132418Y-134582D03*
X-86500Y-86000D03*
X-78376Y66500D03*
X-65724Y36651D03*
X-62371Y44129D03*
X-56260Y18760D03*
X-41216Y47500D03*
X-53516Y50516D03*
X-41000Y57502D03*
Y54500D03*
Y51498D03*
X-41500Y74500D03*
Y61000D03*
X-44999Y63600D03*
X-49276Y88000D03*
X-32440Y-76478D03*
X-35332Y-75478D03*
X-36150Y-4000D03*
X-35165Y2165D03*
X13031Y-31531D03*
X13000Y-37535D03*
Y-34533D03*
X4000Y-36728D03*
X7002Y-36701D03*
X15500Y26000D03*
X18500Y23899D03*
X11166Y55003D03*
X6500Y78199D03*
X11500Y69953D03*
X24500Y-22000D03*
X32000Y29000D03*
X37500D03*
X20500Y21000D03*
X32516Y51884D03*
X33500Y68000D03*
X26000D03*
X44612Y-32000D03*
X44500Y-19000D03*
X58735Y-33235D03*
X52000Y-34720D03*
X58735Y-5735D03*
Y-15265D03*
X44500Y13500D03*
X51610Y17000D03*
X55899Y14221D03*
X58061Y17000D03*
X44500Y23000D03*
X49735Y46735D03*
X49500Y50000D03*
X46500Y47000D03*
X56000Y64500D03*
Y76500D03*
X64500Y-39839D03*
X67500Y-28500D03*
X69899Y-31500D03*
X64500Y-34720D03*
Y-31001D03*
X72000Y-14201D03*
X67500D03*
X68000Y9000D03*
X66000Y15500D03*
X65000Y22055D03*
X65501Y52016D03*
X68500Y55000D03*
X69130Y48341D03*
X65501Y49000D03*
X68551Y43551D03*
X70875Y41226D03*
X59500Y51500D03*
X68982Y66018D03*
X66635Y64146D03*
X64274Y62274D03*
X62000Y60000D03*
X70956Y76000D03*
X77500Y79500D03*
X70500D03*
X84500Y-79148D03*
X90000Y-96000D03*
X84500Y-62074D03*
Y-45000D03*
X81500Y-27500D03*
X79399Y4000D03*
X81500Y54000D03*
X91250Y76500D03*
X79500Y76000D03*
X94596Y83656D03*
X96500Y97500D03*
X133661Y-132579D03*
X133088Y135000D03*
G54D50*
G01X-116874Y-110146D02*
X-114146D01*
X-108389Y-104389D01*
X-108333D01*
X-105982Y-102038D01*
G01X-106714Y102306D02*
X-114822Y110414D01*
X-117606D01*
G01X-101806Y-106214D02*
X-109914Y-114322D01*
Y-117106D01*
G01X-102538Y106482D02*
X-110646Y114590D01*
Y117374D01*
G01X31327Y-69146D02*
X23146D01*
X13961Y-59961D01*
Y-50062D01*
G01X44047Y-82000D02*
X34500D01*
X31327Y-78827D01*
Y-74854D01*
G01X44047Y-61000D02*
X38500D01*
X34673Y-64827D01*
Y-69146D01*
G01Y-74854D02*
X40693D01*
X44047Y-71500D01*
G01X49953Y-82000D02*
X54303D01*
X60803Y-88500D01*
X61000D01*
G01X49953Y-61000D02*
X54303D01*
X60803Y-54500D01*
X61000D01*
G01X49953Y-71500D02*
X61000D01*
G01X68874Y-85055D02*
X72445D01*
X74000Y-83500D01*
G01X68874Y-68055D02*
X72445D01*
X74000Y-66500D01*
G01X68874Y-51055D02*
X72445D01*
X74000Y-49500D01*
G01X106651Y102707D02*
X106651Y102708D01*
X114759Y110815D01*
X117543D01*
G01X102475Y106883D02*
X110583Y114991D01*
Y117775D01*
G54D41*
G01X-79374Y-15953D02*
X-74000D01*
G01X-76500Y42453D02*
X-84000D01*
G01X-63240Y-29382D02*
Y-18693D01*
X-60500Y-15953D01*
G01X-59500Y-29382D02*
Y-34000D01*
G01X-51063Y-15953D02*
X-60500D01*
G01X-69937D02*
X-60500D01*
G01X-73953Y-10500D02*
X-73500Y-10047D01*
X-69937D01*
G01X-62118Y22500D02*
X-57000D01*
G01X-76500Y42453D02*
X-69000D01*
G01X-51488Y18760D02*
X-56260D01*
G01X-3500Y-27547D02*
X5000D01*
G01X-12000D02*
X-3500D01*
G01X25547Y8953D02*
X25500Y9000D01*
G01X5000Y-27547D02*
X25547Y-7000D01*
G01X38500Y-43047D02*
Y-31500D01*
X25547Y-18547D01*
Y-16453D01*
G01X46000Y-43047D02*
X38500D01*
G01Y-17547D02*
X26642D01*
X25547Y-16453D01*
G01X49055Y-16000D02*
X43122D01*
X41575Y-17547D01*
X38500D01*
G01X44500Y8953D02*
X25547D01*
G01X30500Y35047D02*
X26976Y31524D01*
G01X23500Y35047D02*
Y35000D01*
X26976Y31524D01*
G01X49055Y-21000D02*
X53500D01*
X55000Y-19500D01*
G01X80945Y-11000D02*
X56654D01*
X51654Y-16000D01*
X49055D01*
G01X52000Y8953D02*
X44500D01*
G01X74000Y67734D02*
Y84547D01*
G01X80945Y-6000D02*
Y-11000D01*
G01X102038Y-105982D02*
X110146Y-114090D01*
Y-116874D01*
G01X117106Y-109914D02*
X114414D01*
X108480Y-103980D01*
X108388D01*
X106214Y-101806D01*
G54D14*
X-116874Y-110146D03*
X-117606Y110414D03*
X-109914Y-117106D03*
X-93774Y-83254D03*
X-110646Y117374D03*
X-79095Y-56514D03*
X-91226Y-73746D03*
X-92024Y-53050D03*
X-89477Y-43543D03*
X-76547Y-47007D03*
X-86930Y-34036D03*
X-74000Y-37500D03*
X110146Y-116874D03*
X117106Y-109914D03*
X110583Y117775D03*
X117543Y110815D03*
G54D32*
X25968Y-39406D03*
X24000D03*
X22032D03*
Y-27594D03*
X24000D03*
X25968D03*
G54D23*
X-45693Y-46500D03*
X-32307D03*
G54D51*
G01X2500Y31500D02*
X-32850D01*
G54D42*
G01X-60000Y-70547D02*
Y-67872D01*
X-50128Y-58000D01*
G01X-64457Y52532D02*
X-68468D01*
G01D02*
X-70000Y51000D01*
Y49000D01*
G01X-55500Y55565D02*
X-60502Y50563D01*
X-64457D01*
G01X-50978Y-66478D02*
X-47478Y-69978D01*
X-44975D01*
X-44453Y-70500D01*
G01X-50978Y-66478D02*
X-52500Y-68000D01*
Y-70547D01*
G01X-50128Y-58000D02*
X-50000D01*
G01X-51500Y37500D02*
Y38857D01*
X-55500Y42857D01*
Y45543D01*
G01X-51563D02*
X-47500D01*
G01X-57468D02*
Y40000D01*
G01X-55500Y45543D02*
Y55565D01*
G01D02*
X-53532Y57534D01*
Y63457D01*
G01X-55500D02*
Y68000D01*
G01D02*
X-54000Y69500D01*
G01X5000Y-27547D02*
X16000D01*
G01D02*
X20294D01*
X20341Y-27594D01*
X22032D01*
G01X18094Y-29563D02*
X18016D01*
X16000Y-27547D01*
G01X19210Y54500D02*
Y54710D01*
G01D02*
X19073D01*
X14847Y58937D01*
Y59331D01*
G01X8154Y50669D02*
Y51154D01*
G01X19210Y54710D02*
X21953Y57453D01*
X23500D01*
G01X8154Y51154D02*
X11166Y54166D01*
Y55003D01*
G01X8547Y67000D02*
X11500Y69953D01*
G01X55646Y-32161D02*
X49386D01*
X38500Y-43047D01*
G01Y-48953D02*
X34047D01*
G01X30500Y40953D02*
Y41643D01*
X36935Y48079D01*
X40784D01*
G01Y50047D02*
X35632D01*
X34085Y48500D01*
G01D02*
X32589D01*
X32500Y48411D01*
G01X55646Y-37280D02*
X51768D01*
X46000Y-43047D01*
G01Y-48953D02*
X42547D01*
G01X55646Y-34720D02*
X52000D01*
G01X62445Y11720D02*
X54768D01*
X52000Y8953D01*
G01X47673Y70716D02*
Y78057D01*
G01X40784Y63827D02*
Y72831D01*
X42000Y74047D01*
G01X49642Y70716D02*
Y74671D01*
X52104Y77134D01*
G01D02*
X52366D01*
G01X64500Y-31001D02*
X64499D01*
X63339Y-32161D01*
X61354D01*
G01X80555Y16839D02*
X73339D01*
X68220Y11720D01*
X62445D01*
G01X69327Y35284D02*
Y39238D01*
X63000Y45565D01*
Y56500D01*
X74000Y67500D01*
Y67734D01*
G01X80000Y33953D02*
X75905Y29858D01*
X67358D01*
G01Y35284D02*
Y29858D01*
G01X74000Y67734D02*
X76216Y65517D01*
Y63827D01*
G01X80171Y61858D02*
X76216D01*
G01X85953Y-92074D02*
Y-89101D01*
X84500Y-87648D01*
G01X85953Y-75000D02*
Y-72027D01*
X84500Y-70574D01*
G01X85953Y-57926D02*
Y-54953D01*
X84500Y-53500D01*
G01X82000Y64500D02*
Y63687D01*
X80171Y61858D01*
G54D15*
X-128130Y123026D03*
X-123258Y127897D03*
X-120126Y119894D03*
X127630Y-122526D03*
X122758Y-127397D03*
X119626Y-119394D03*
G54D33*
X55646Y-39839D03*
Y-37280D03*
Y-34720D03*
Y-32161D03*
X61354Y-39839D03*
Y-32161D03*
Y-34720D03*
Y-37280D03*
G54D24*
X-39500Y-37500D03*
Y-25689D03*
G54D52*
G01X175226Y153516D02*
G03X153573Y175169I0J21654D01*
G02X-153511I-153542J92789D01*
G03X-175165Y153516I-21654J0D01*
G02Y-153568I-92789J-153542D01*
G03X-153511Y-175222I0J-21654D01*
G02X153573I153542J-92789D01*
G03X175226Y-153568I21654J0D01*
G02Y153516I92789J153542D01*
G01X-161220Y-175197D02*
G03I-13976J0D01*
G01Y175197D02*
G03I-13976J0D01*
G01X189173Y-175197D02*
G03I-13976J0D01*
G01Y175197D02*
G03I-13976J0D01*
G54D43*
G01X-78453Y26500D02*
Y18500D01*
G01X-76500Y36547D02*
X-84000D01*
G01X-72678Y38981D02*
X-73519D01*
X-75953Y36547D01*
X-76500D01*
G01X-72678Y38981D02*
X-71506D01*
X-71403Y38878D01*
X-71378D01*
X-69047Y36547D01*
X-69000D01*
G01X-58000Y34000D02*
X-53000D01*
G01X-69000Y42453D02*
X-66453D01*
X-58000Y34000D01*
G01X30000Y74047D02*
X8547D01*
X2500Y68000D01*
Y31500D01*
G01X3000D02*
X10472D01*
X19925Y40953D01*
X23500D01*
G01X30500D02*
X23500D01*
G01X38000Y74047D02*
X30000D01*
G01X42000D02*
X38000D01*
G01X47673Y78057D02*
X54163Y84547D01*
X66000D01*
G01X47673Y78057D02*
X47557D01*
X43547Y74047D01*
X42000D01*
G01X66000Y84547D02*
X74000D01*
G54D25*
X-40500Y17807D03*
Y31193D03*
G54D16*
X-79374Y-10047D03*
Y-15953D03*
Y1047D03*
X-78453Y18500D03*
X-79374Y6953D03*
X-84000Y36547D03*
X-76500D03*
X-78453Y26500D03*
X-88953Y52500D03*
X-83047D03*
X-84000Y42453D03*
X-76500D03*
X-91000Y66453D03*
Y60547D03*
X-83000D03*
Y66453D03*
X-88953Y74000D03*
X-83047D03*
X-88953Y81500D03*
X-83047D03*
X-60000Y-76453D03*
Y-70547D03*
X-69937Y1047D03*
X-60500D03*
X-69937Y-10047D03*
Y-15953D03*
X-60500D03*
Y-10047D03*
X-72547Y18500D03*
X-69937Y6953D03*
X-60500D03*
X-69000Y36547D03*
X-72547Y26500D03*
X-69000Y42453D03*
X-75000Y58453D03*
Y52547D03*
Y72453D03*
Y66547D03*
X-61453Y73500D03*
X-71000Y86953D03*
Y81047D03*
X-38547Y-77500D03*
X-44453D03*
X-52500Y-76453D03*
Y-70547D03*
X-44453Y-70500D03*
X-38547D03*
X-41953Y-56500D03*
X-51063Y-15953D03*
Y-10047D03*
Y1047D03*
Y6953D03*
X-55547Y73500D03*
X-46000Y86953D03*
Y81047D03*
X-36047Y-56500D03*
X-12000Y-33453D03*
Y-27547D03*
X-3500Y-33453D03*
Y-27547D03*
X5000Y-33453D03*
Y-27547D03*
X8547Y43000D03*
X14453D03*
X8547Y67000D03*
X14453D03*
X38500Y-48953D03*
Y-43047D03*
Y-23453D03*
Y-17547D03*
Y-9453D03*
Y-3547D03*
X23500Y35047D03*
X30500D03*
X23500Y40953D03*
Y57453D03*
Y51547D03*
X30500Y40953D03*
X30000Y74047D03*
X38000D03*
X30000Y79953D03*
X38000D03*
X44047Y-82000D03*
X49953D03*
Y-61000D03*
X44047D03*
X49953Y-71500D03*
X44047D03*
X46000Y-48953D03*
Y-43047D03*
X52000Y3047D03*
Y8953D03*
X44500Y3047D03*
Y8953D03*
X74000Y90453D03*
Y84547D03*
X66000Y90453D03*
Y84547D03*
X80047Y-83537D03*
X85953D03*
Y-92074D03*
X80047D03*
Y-66463D03*
X85953D03*
Y-75000D03*
X80047D03*
X85953Y-57926D03*
X80047D03*
Y-49389D03*
X85953D03*
X80000Y33953D03*
Y28047D03*
G54D34*
X49055Y-21000D03*
Y-16000D03*
Y-11000D03*
Y-6000D03*
X80945Y-21000D03*
Y-16000D03*
Y-11000D03*
Y-6000D03*
G54D53*
G01X-6500Y61500D02*
Y74500D01*
X-16370D01*
G54D44*
G01X-116874Y-110146D02*
Y-117106D01*
X-119394Y-119626D01*
G01X-110646Y117374D02*
X-117606D01*
X-120126Y119894D01*
G01X-51063Y6953D02*
X-60500D01*
G01D02*
X-69937D01*
G01X-24126Y10055D02*
X-18185Y4114D01*
Y-14728D01*
X-24025Y-20568D01*
Y-50978D01*
X-20025Y-54978D01*
X9045D01*
X13961Y-50062D01*
G01X-26378Y10055D02*
X-24126D01*
G01X13961Y-50062D02*
Y-49000D01*
G01X25547Y-7000D02*
Y-3500D01*
G01Y-16453D02*
Y-7000D01*
G01Y-3500D02*
Y8953D01*
G01X110146Y-116874D02*
X117106D01*
X119626Y-119394D01*
G01X117543Y110815D02*
Y117775D01*
X120063Y120295D01*
G54D26*
X-37630Y74500D03*
X-16370D03*
G54D17*
X-63240Y-40012D03*
X-59500Y-29382D03*
X-63240D03*
X-55760Y-40012D03*
Y-29382D03*
G54D35*
X68874Y-85055D03*
Y-91945D03*
X61000Y-88500D03*
X68874Y-57945D03*
Y-68055D03*
Y-74945D03*
X61000Y-71500D03*
X68874Y-51055D03*
X61000Y-54500D03*
G54D45*
G01X25500Y9000D02*
X3000Y31500D01*
G01X2500D02*
X3000D01*
G54D18*
X-64224Y-56500D03*
X-54776D03*
X-40839Y-17724D03*
Y-8276D03*
Y-724D03*
Y8724D03*
G54D27*
X-26378Y-5693D03*
Y-13567D03*
Y10055D03*
Y2181D03*
G54D36*
X75339Y3945D03*
X72780D03*
X70221D03*
X67661D03*
Y22055D03*
X70221D03*
X72780D03*
X75339D03*
G54D46*
G01X-83000Y60547D02*
X-79500Y57047D01*
G01X-88953Y74000D02*
Y81500D01*
G01D02*
X-84453Y86000D01*
X-83000D01*
G01X-54000Y69500D02*
X-52000D01*
G54D19*
X-62118Y18760D03*
Y26240D03*
Y22500D03*
X-51488Y18760D03*
Y26240D03*
G54D37*
X62445Y9161D03*
Y11720D03*
Y14279D03*
Y16839D03*
X80555D03*
Y14279D03*
Y11720D03*
Y9161D03*
G54D28*
X-16039Y-49000D03*
X-6039D03*
X3961D03*
X13961D03*
G54D47*
G01X-79374Y1047D02*
Y-10047D01*
G01Y6953D02*
X-82000Y9579D01*
Y28500D01*
X-78500Y32000D01*
X-68630D01*
X-66630Y34000D01*
X-58000D01*
G01X-78376Y66500D02*
X-82953D01*
X-83000Y66453D01*
G01X-37630Y74500D02*
X-41500D01*
G54D38*
G01X6500Y78199D02*
X3801D01*
X-4000Y86000D01*
X-40000D01*
X-45000Y91000D01*
X-50000D01*
X-52000Y93000D01*
X-105641D01*
X-121459Y108818D01*
Y110459D01*
X-139418Y128418D01*
Y132918D01*
X-139419Y132919D01*
G01X-132419Y-138919D02*
X-132418Y-138918D01*
Y-134582D01*
G01X-32440Y-76478D02*
X-37462Y-81500D01*
X-82000D01*
X-86500Y-86000D01*
G01X-75000Y52547D02*
X-83000D01*
X-83047Y52500D01*
G01X-88953D02*
Y56125D01*
X-91000Y58172D01*
Y60547D01*
G01Y66453D02*
X-83000D01*
G01X-83047Y74000D02*
X-78922D01*
X-77375Y72453D01*
X-75000D01*
G01X-83047Y81500D02*
Y74000D01*
G01X-75000Y52547D02*
X-73047Y54500D01*
X-64457D01*
G01Y56468D02*
X-73016D01*
X-75000Y58453D01*
G01Y66547D02*
Y58453D01*
G01Y72453D02*
X-71500Y68953D01*
Y60500D01*
X-69437Y58437D01*
X-64457D01*
G01X-61453Y73500D02*
X-63593Y75641D01*
X-65593D01*
X-71000Y81047D01*
G01X-59437Y63457D02*
Y69109D01*
X-61453Y71125D01*
Y73500D01*
G01X-62831Y82154D02*
X-66387D01*
X-67493Y81047D01*
X-71000D01*
G01X-46543Y50563D02*
X-44280D01*
X-41216Y47500D01*
G01X-41000Y57502D02*
Y57500D01*
X-42032Y56468D01*
X-46543D01*
G01Y54500D02*
X-41000D01*
G01Y51498D02*
Y51500D01*
X-42032Y52532D01*
X-46543D01*
G01X-55547Y73500D02*
X-53407Y75641D01*
X-51407D01*
X-46000Y81047D01*
G01X-57468Y63457D02*
Y69204D01*
X-55547Y71125D01*
Y73500D01*
G01X-41500Y61000D02*
X-41716D01*
X-44280Y58437D01*
X-46543D01*
G01X-44999Y63600D02*
X-47500D01*
X-47643Y63457D01*
X-51563D01*
G01X-46000Y81047D02*
X-50848Y85895D01*
Y85918D01*
X-53776Y88846D01*
X-54169D01*
G01X-36150Y-4000D02*
X-34457Y-5693D01*
X-26378D01*
G01X-35165Y2165D02*
X-32115D01*
X-32099Y2181D01*
X-26378D01*
G01X4000Y-36728D02*
Y-39000D01*
X6500Y-41500D01*
X15697D01*
X17792Y-39406D01*
X22032D01*
G01X7002Y-36701D02*
X8416Y-38116D01*
X8442D01*
X10327Y-40000D01*
X15500D01*
X18063Y-37437D01*
X18094D01*
G01Y-31532D02*
X13032D01*
X13032Y-31531D01*
X13031D01*
G01X13000Y-37535D02*
X13035Y-37500D01*
X13500D01*
X15532Y-35468D01*
X18094D01*
G01X13000Y-34533D02*
Y-34500D01*
X14000Y-33500D01*
X18094D01*
G01X15500Y26000D02*
X38000D01*
X40784Y28784D01*
Y42173D01*
G01X18500Y23899D02*
X38553D01*
X47673Y33020D01*
Y35284D01*
G01X14453Y43000D02*
X23000Y51547D01*
X23500D01*
G01X14847Y50669D02*
Y50276D01*
X11918Y47348D01*
Y46371D01*
X8547Y43000D01*
G01X8154Y59331D02*
Y59724D01*
X11082Y62652D01*
Y63629D01*
X14453Y67000D01*
G01D02*
X20453Y61000D01*
X25000D01*
X30047Y55953D01*
X40784D01*
G01X32000Y29000D02*
X34000Y31000D01*
Y42981D01*
X37129Y46110D01*
X40784D01*
G01X37500Y29000D02*
X35500Y31000D01*
Y41122D01*
X38520Y44142D01*
X40784D01*
G01Y53984D02*
X25937D01*
X23500Y51547D01*
G01X32516Y51884D02*
Y52016D01*
X40784D01*
G01X55646Y-39839D02*
X58735Y-36749D01*
Y-33235D01*
G01X44612Y-32000D02*
Y-21113D01*
X44500Y-21001D01*
Y-19000D01*
G01X58735Y-5735D02*
Y-5765D01*
X53500Y-11000D01*
X49055D01*
G01X79399Y4000D02*
X74899Y-500D01*
X57154D01*
X51654Y-6000D01*
X49055D01*
G01X44500Y23000D02*
Y20999D01*
X44515Y20985D01*
Y19514D01*
X44500Y19499D01*
Y13500D01*
G01X51610Y35284D02*
Y17000D01*
G01X55899Y14221D02*
Y17000D01*
X53579Y19320D01*
Y35284D01*
G01X55899Y14221D02*
X60012D01*
X60070Y14279D01*
X62445D01*
G01X58061Y17000D02*
X58500D01*
X58661Y16839D01*
X62445D01*
G01X55547Y35284D02*
Y19514D01*
X58061Y17000D01*
G01X66000Y15500D02*
Y17501D01*
X57516Y25985D01*
Y35284D01*
G01X49735Y46735D02*
X53579Y50579D01*
Y70716D01*
G01X49500Y50000D02*
X51610Y52110D01*
Y70716D01*
G01X63421Y35284D02*
Y38938D01*
X57724Y44635D01*
X48865D01*
X47915Y45585D01*
X46500Y47000D01*
G01X57516Y70716D02*
Y66016D01*
X56000Y64500D01*
G01X61354Y-39839D02*
X64500D01*
G01X58735Y-33235D02*
Y-15265D01*
G01X61354Y-37280D02*
X65220D01*
X67500Y-35000D01*
Y-28500D01*
G01D02*
Y-14201D01*
G01D02*
X74299Y-21000D01*
X80945D01*
G01X81500Y-27500D02*
X77500Y-31500D01*
X69899D01*
G01X61354Y-34720D02*
X64500D01*
G01X72000Y-14201D02*
Y-14000D01*
X74000Y-16000D01*
X80945D01*
G01X70221Y3945D02*
Y6780D01*
X68000Y9000D01*
G01X65000Y22055D02*
X67661D01*
G01X72780D02*
Y23039D01*
X70319Y25500D01*
X62500D01*
X59484Y28516D01*
Y35284D01*
G01X80000Y28047D02*
X77625D01*
X76578Y27000D01*
X63500D01*
X61453Y29047D01*
Y35284D01*
G01X65390D02*
Y40610D01*
X61500Y44500D01*
Y49500D01*
X59500Y51500D01*
G01X76216Y52016D02*
X65501D01*
G01X76216Y53984D02*
X69516D01*
X68500Y55000D01*
G01X81500Y54000D02*
X79547Y55953D01*
X76216D01*
G01Y48079D02*
X69393D01*
X69130Y48341D01*
G01X65501Y49000D02*
X67030Y47471D01*
X68260Y46241D01*
X68391Y46110D01*
X76216D01*
G01Y44142D02*
X69142D01*
X68551Y43551D01*
G01X70875Y41226D02*
X70885D01*
X71832Y42173D01*
X76216D01*
G01X68982Y66018D02*
X68402D01*
X67358Y67062D01*
Y70716D01*
G01X66635Y64146D02*
X66599Y64183D01*
Y64401D01*
X65390Y65610D01*
Y70716D01*
G01X63421D02*
Y63127D01*
X64274Y62274D01*
G01X62000Y60000D02*
Y60304D01*
X61453Y60851D01*
Y70716D01*
G01X91250Y76500D02*
Y69750D01*
X81390Y59890D01*
X76216D01*
G01X69327Y70716D02*
Y74371D01*
X70956Y76000D01*
G01X70500Y79500D02*
X63000D01*
X59484Y75984D01*
Y70716D01*
G01X77500Y79500D02*
X78500D01*
X96500Y97500D01*
G01X84500Y-79148D02*
X85953Y-80601D01*
Y-83537D01*
G01X84500Y-62074D02*
X85953Y-63527D01*
Y-66463D01*
G01X84500Y-45000D02*
X85953Y-46453D01*
Y-49389D01*
G01X94596Y83656D02*
X86941Y76000D01*
X79500D01*
G01X138919Y-132419D02*
X138918Y-132418D01*
X133821D01*
X133661Y-132579D01*
G01X133088Y139588D02*
X133088Y135000D01*
G54D29*
X18094Y-37437D03*
Y-35468D03*
Y-33500D03*
Y-31532D03*
Y-29563D03*
X29906D03*
Y-31532D03*
Y-33500D03*
Y-35468D03*
Y-37437D03*
G54D48*
G01X-79095Y-56514D02*
X-69707D01*
X-69693Y-56500D01*
X-64224D01*
G54D39*
G01X-13189Y-12795D02*
X12402D01*
Y12795D01*
X-13189D01*
Y-12795D01*
G54D49*
G01X-69000Y42453D02*
X-64457Y46996D01*
Y50563D01*
M02*
